<?xml version="1.0" encoding="UTF-8" standalone="no"?>
<!DOCTYPE svg PUBLIC "-//W3C//DTD SVG 1.1//EN"
 "http://www.w3.org/Graphics/SVG/1.1/DTD/svg11.dtd">
<!-- Generated by graphviz version 2.40.1 (20161225.0304)
 -->
<!-- Title: affiliations Pages: 1 -->
<svg width="624pt" height="832pt"
 viewBox="0.00 0.00 623.50 832.00" xmlns="http://www.w3.org/2000/svg" xmlns:xlink="http://www.w3.org/1999/xlink">
<g id="graph0" class="graph" transform="scale(1 1) rotate(0) translate(4 828)">
<title>affiliations</title>
<polygon fill="#ffffff" stroke="transparent" points="-4,4 -4,-828 619.5,-828 619.5,4 -4,4"/>
<!-- affiliations -->
<g id="node1" class="node">
<title>affiliations</title>
<polygon fill="#efefef" stroke="transparent" points="316,-165.5 316,-200.5 537,-200.5 537,-165.5 316,-165.5"/>
<polygon fill="none" stroke="#000000" points="316,-165.5 316,-200.5 537,-200.5 537,-165.5 316,-165.5"/>
<text text-anchor="start" x="322.7119" y="-178.3" font-family="Arial Bold" font-size="18.00" fill="#000000">affiliations</text>
<text text-anchor="start" x="402.7201" y="-178.3" font-family="Arial" font-size="14.00" fill="#000000">    </text>
<text text-anchor="start" x="436.9249" y="-178.3" font-family="Arial" font-size="14.00" fill="#666666">[BASE TABLE]</text>
<polygon fill="none" stroke="#000000" points="316,-135.5 316,-165.5 537,-165.5 537,-135.5 316,-135.5"/>
<text text-anchor="start" x="323" y="-146.9" font-family="Arial" font-size="14.00" fill="#000000">id </text>
<text text-anchor="start" x="337.7798" y="-146.9" font-family="Arial" font-size="14.00" fill="#666666">[int unsigned]</text>
<polygon fill="none" stroke="#000000" points="316,-105.5 316,-135.5 537,-135.5 537,-105.5 316,-105.5"/>
<text text-anchor="start" x="323" y="-116.9" font-family="Arial" font-size="14.00" fill="#000000">name </text>
<text text-anchor="start" x="361.899" y="-116.9" font-family="Arial" font-size="14.00" fill="#666666">[varchar(30)]</text>
<polygon fill="none" stroke="#000000" points="316,-75.5 316,-105.5 537,-105.5 537,-75.5 316,-75.5"/>
<text text-anchor="start" x="323" y="-86.9" font-family="Arial" font-size="14.00" fill="#000000">created_at </text>
<text text-anchor="start" x="393.028" y="-86.9" font-family="Arial" font-size="14.00" fill="#666666">[timestamp]</text>
<polygon fill="none" stroke="#000000" points="316,-45.5 316,-75.5 537,-75.5 537,-45.5 316,-45.5"/>
<text text-anchor="start" x="323" y="-56.9" font-family="Arial" font-size="14.00" fill="#000000">updated_at </text>
<text text-anchor="start" x="396.9326" y="-56.9" font-family="Arial" font-size="14.00" fill="#666666">[timestamp]</text>
<polygon fill="none" stroke="#000000" stroke-width="3" points="314,-44.5 314,-202.5 538,-202.5 538,-44.5 314,-44.5"/>
</g>
<!-- users -->
<g id="node2" class="node">
<title>users</title>
<polygon fill="#efefef" stroke="transparent" points="280,-745.5 280,-780.5 573,-780.5 573,-745.5 280,-745.5"/>
<polygon fill="none" stroke="#000000" points="280,-745.5 280,-780.5 573,-780.5 573,-745.5 280,-745.5"/>
<text text-anchor="start" x="340.7137" y="-758.3" font-family="Arial Bold" font-size="18.00" fill="#000000">users</text>
<text text-anchor="start" x="384.7183" y="-758.3" font-family="Arial" font-size="14.00" fill="#000000">    </text>
<text text-anchor="start" x="418.9231" y="-758.3" font-family="Arial" font-size="14.00" fill="#666666">[BASE TABLE]</text>
<polygon fill="none" stroke="#000000" points="280,-715.5 280,-745.5 573,-745.5 573,-715.5 280,-715.5"/>
<text text-anchor="start" x="287" y="-726.9" font-family="Arial" font-size="14.00" fill="#000000">id    </text>
<text text-anchor="start" x="332.094" y="-726.9" font-family="Arial" font-size="14.00" fill="#666666">[int unsigned]</text>
<polygon fill="none" stroke="#000000" points="280,-685.5 280,-715.5 573,-715.5 573,-685.5 280,-685.5"/>
<text text-anchor="start" x="287" y="-696.9" font-family="Arial" font-size="14.00" fill="#000000">firebase_uid    </text>
<text text-anchor="start" x="397.4474" y="-696.9" font-family="Arial" font-size="14.00" fill="#666666">[varchar(255)]</text>
<polygon fill="none" stroke="#000000" points="280,-655.5 280,-685.5 573,-685.5 573,-655.5 280,-655.5"/>
<text text-anchor="start" x="287" y="-666.9" font-family="Arial" font-size="14.00" fill="#000000">email    </text>
<text text-anchor="start" x="354.6438" y="-666.9" font-family="Arial" font-size="14.00" fill="#666666">[varchar(255)]</text>
<polygon fill="none" stroke="#000000" points="280,-625.5 280,-655.5 573,-655.5 573,-625.5 280,-625.5"/>
<text text-anchor="start" x="287" y="-636.9" font-family="Arial" font-size="14.00" fill="#000000">username    </text>
<text text-anchor="start" x="383.439" y="-636.9" font-family="Arial" font-size="14.00" fill="#666666">[varchar(50)]</text>
<polygon fill="none" stroke="#000000" points="280,-595.5 280,-625.5 573,-625.5 573,-595.5 280,-595.5"/>
<text text-anchor="start" x="287" y="-606.9" font-family="Arial" font-size="14.00" fill="#000000">affiliation_id    </text>
<text text-anchor="start" x="395.1052" y="-606.9" font-family="Arial" font-size="14.00" fill="#666666">[int unsigned]</text>
<polygon fill="none" stroke="#000000" points="280,-565.5 280,-595.5 573,-595.5 573,-565.5 280,-565.5"/>
<text text-anchor="start" x="287" y="-576.9" font-family="Arial" font-size="14.00" fill="#000000">enrollment_year    </text>
<text text-anchor="start" x="421.5512" y="-576.9" font-family="Arial" font-size="14.00" fill="#666666">[int]</text>
<polygon fill="none" stroke="#000000" points="280,-535.5 280,-565.5 573,-565.5 573,-535.5 280,-535.5"/>
<text text-anchor="start" x="287" y="-546.9" font-family="Arial" font-size="14.00" fill="#000000">graduation_year    </text>
<text text-anchor="start" x="422.3492" y="-546.9" font-family="Arial" font-size="14.00" fill="#666666">[int]</text>
<polygon fill="none" stroke="#000000" points="280,-505.5 280,-535.5 573,-535.5 573,-505.5 280,-505.5"/>
<text text-anchor="start" x="287" y="-516.9" font-family="Arial" font-size="14.00" fill="#000000">is_job_hunt_completed    </text>
<text text-anchor="start" x="465.1402" y="-516.9" font-family="Arial" font-size="14.00" fill="#666666">[tinyint(1)]</text>
<polygon fill="none" stroke="#000000" points="280,-475.5 280,-505.5 573,-505.5 573,-475.5 280,-475.5"/>
<text text-anchor="start" x="287" y="-486.9" font-family="Arial" font-size="14.00" fill="#000000">self_introduction    </text>
<text text-anchor="start" x="423.1178" y="-486.9" font-family="Arial" font-size="14.00" fill="#666666">[text]</text>
<polygon fill="none" stroke="#000000" points="280,-445.5 280,-475.5 573,-475.5 573,-445.5 280,-445.5"/>
<text text-anchor="start" x="287" y="-456.9" font-family="Arial" font-size="14.00" fill="#000000">icon_url    </text>
<text text-anchor="start" x="370.209" y="-456.9" font-family="Arial" font-size="14.00" fill="#666666">[varchar(255)]</text>
<polygon fill="none" stroke="#000000" points="280,-415.5 280,-445.5 573,-445.5 573,-415.5 280,-415.5"/>
<text text-anchor="start" x="286.8738" y="-426.9" font-family="Arial" font-size="14.00" fill="#000000">show_profile_in_public_event    </text>
<text text-anchor="start" x="504.6816" y="-426.9" font-family="Arial" font-size="14.00" fill="#666666">[tinyint(1)]</text>
<polygon fill="none" stroke="#000000" points="280,-385.5 280,-415.5 573,-415.5 573,-385.5 280,-385.5"/>
<text text-anchor="start" x="287" y="-396.9" font-family="Arial" font-size="14.00" fill="#000000">show_profile_in_shared_url    </text>
<text text-anchor="start" x="492.3492" y="-396.9" font-family="Arial" font-size="14.00" fill="#666666">[tinyint(1)]</text>
<polygon fill="none" stroke="#000000" points="280,-355.5 280,-385.5 573,-385.5 573,-355.5 280,-355.5"/>
<text text-anchor="start" x="287" y="-366.9" font-family="Arial" font-size="14.00" fill="#000000">created_at    </text>
<text text-anchor="start" x="387.3422" y="-366.9" font-family="Arial" font-size="14.00" fill="#666666">[timestamp]</text>
<polygon fill="none" stroke="#000000" points="280,-325.5 280,-355.5 573,-355.5 573,-325.5 280,-325.5"/>
<text text-anchor="start" x="287" y="-336.9" font-family="Arial" font-size="14.00" fill="#000000">updated_at    </text>
<text text-anchor="start" x="391.2468" y="-336.9" font-family="Arial" font-size="14.00" fill="#666666">[timestamp]</text>
</g>
<!-- users&#45;&gt;affiliations -->
<g id="edge1" class="edge">
<title>users:affiliation_id&#45;&gt;affiliations:id</title>
<path fill="none" stroke="#000000" d="M269.9688,-608.9245C180.0039,-579.5921 216.9698,-150.5 316,-150.5"/>
<polygon fill="#000000" stroke="#000000" points="270.1211,-608.9484 279.3018,-614.9455 275.0605,-609.7242 280,-610.5 280,-610.5 280,-610.5 275.0605,-609.7242 280.6982,-606.0545 270.1211,-608.9484 270.1211,-608.9484"/>
<text text-anchor="start" x="6.943" y="-620.5" font-family="Arial" font-size="10.00" fill="#000000">FOREIGN KEY (affiliation_id) REFERENCES affiliations (id)</text>
</g>
</g>
</svg>
