<?xml version="1.0" encoding="UTF-8" standalone="no"?>
<!DOCTYPE svg PUBLIC "-//W3C//DTD SVG 1.1//EN"
 "http://www.w3.org/Graphics/SVG/1.1/DTD/svg11.dtd">
<!-- Generated by graphviz version 2.40.1 (20161225.0304)
 -->
<!-- Title: authorities Pages: 1 -->
<svg width="655pt" height="562pt"
 viewBox="0.00 0.00 654.50 562.00" xmlns="http://www.w3.org/2000/svg" xmlns:xlink="http://www.w3.org/1999/xlink">
<g id="graph0" class="graph" transform="scale(1 1) rotate(0) translate(4 558)">
<title>authorities</title>
<polygon fill="#ffffff" stroke="transparent" points="-4,4 -4,-558 650.5,-558 650.5,4 -4,4"/>
<!-- authorities -->
<g id="node1" class="node">
<title>authorities</title>
<polygon fill="#efefef" stroke="transparent" points="93.5,-165.5 93.5,-200.5 317.5,-200.5 317.5,-165.5 93.5,-165.5"/>
<polygon fill="none" stroke="#000000" points="93.5,-165.5 93.5,-200.5 317.5,-200.5 317.5,-165.5 93.5,-165.5"/>
<text text-anchor="start" x="100.208" y="-178.3" font-family="Arial Bold" font-size="18.00" fill="#000000">authorities</text>
<text text-anchor="start" x="183.224" y="-178.3" font-family="Arial" font-size="14.00" fill="#000000">    </text>
<text text-anchor="start" x="217.4288" y="-178.3" font-family="Arial" font-size="14.00" fill="#666666">[BASE TABLE]</text>
<polygon fill="none" stroke="#000000" points="93.5,-135.5 93.5,-165.5 317.5,-165.5 317.5,-135.5 93.5,-135.5"/>
<text text-anchor="start" x="100.5" y="-146.9" font-family="Arial" font-size="14.00" fill="#000000">id </text>
<text text-anchor="start" x="115.2798" y="-146.9" font-family="Arial" font-size="14.00" fill="#666666">[int unsigned]</text>
<polygon fill="none" stroke="#000000" points="93.5,-105.5 93.5,-135.5 317.5,-135.5 317.5,-105.5 93.5,-105.5"/>
<text text-anchor="start" x="100.5" y="-116.9" font-family="Arial" font-size="14.00" fill="#000000">name </text>
<text text-anchor="start" x="139.399" y="-116.9" font-family="Arial" font-size="14.00" fill="#666666">[varchar(30)]</text>
<polygon fill="none" stroke="#000000" points="93.5,-75.5 93.5,-105.5 317.5,-105.5 317.5,-75.5 93.5,-75.5"/>
<text text-anchor="start" x="100.5" y="-86.9" font-family="Arial" font-size="14.00" fill="#000000">created_at </text>
<text text-anchor="start" x="170.528" y="-86.9" font-family="Arial" font-size="14.00" fill="#666666">[timestamp]</text>
<polygon fill="none" stroke="#000000" points="93.5,-45.5 93.5,-75.5 317.5,-75.5 317.5,-45.5 93.5,-45.5"/>
<text text-anchor="start" x="100.5" y="-56.9" font-family="Arial" font-size="14.00" fill="#000000">updated_at </text>
<text text-anchor="start" x="174.4326" y="-56.9" font-family="Arial" font-size="14.00" fill="#666666">[timestamp]</text>
<polygon fill="none" stroke="#000000" stroke-width="3" points="92,-44.5 92,-202.5 319,-202.5 319,-44.5 92,-44.5"/>
</g>
<!-- event_user_authorities -->
<g id="node2" class="node">
<title>event_user_authorities</title>
<polygon fill="#efefef" stroke="transparent" points="43.5,-475.5 43.5,-510.5 366.5,-510.5 366.5,-475.5 43.5,-475.5"/>
<polygon fill="none" stroke="#000000" points="43.5,-475.5 43.5,-510.5 366.5,-510.5 366.5,-475.5 43.5,-475.5"/>
<text text-anchor="start" x="50.1891" y="-488.3" font-family="Arial Bold" font-size="18.00" fill="#000000">event_user_authorities</text>
<text text-anchor="start" x="232.2429" y="-488.3" font-family="Arial" font-size="14.00" fill="#000000">    </text>
<text text-anchor="start" x="266.4477" y="-488.3" font-family="Arial" font-size="14.00" fill="#666666">[BASE TABLE]</text>
<polygon fill="none" stroke="#000000" points="43.5,-445.5 43.5,-475.5 366.5,-475.5 366.5,-445.5 43.5,-445.5"/>
<text text-anchor="start" x="50.5" y="-456.9" font-family="Arial" font-size="14.00" fill="#000000">event_id    </text>
<text text-anchor="start" x="137.615" y="-456.9" font-family="Arial" font-size="14.00" fill="#666666">[int unsigned]</text>
<polygon fill="none" stroke="#000000" points="43.5,-415.5 43.5,-445.5 366.5,-445.5 366.5,-415.5 43.5,-415.5"/>
<text text-anchor="start" x="50.5" y="-426.9" font-family="Arial" font-size="14.00" fill="#000000">user_id    </text>
<text text-anchor="start" x="130.6024" y="-426.9" font-family="Arial" font-size="14.00" fill="#666666">[int unsigned]</text>
<polygon fill="none" stroke="#000000" points="43.5,-385.5 43.5,-415.5 366.5,-415.5 366.5,-385.5 43.5,-385.5"/>
<text text-anchor="start" x="50.5" y="-396.9" font-family="Arial" font-size="14.00" fill="#000000">authority_id    </text>
<text text-anchor="start" x="157.0554" y="-396.9" font-family="Arial" font-size="14.00" fill="#666666">[int unsigned]</text>
<polygon fill="none" stroke="#000000" points="43.5,-355.5 43.5,-385.5 366.5,-385.5 366.5,-355.5 43.5,-355.5"/>
<text text-anchor="start" x="50.5" y="-366.9" font-family="Arial" font-size="14.00" fill="#000000">created_at    </text>
<text text-anchor="start" x="150.8422" y="-366.9" font-family="Arial" font-size="14.00" fill="#666666">[timestamp]</text>
<polygon fill="none" stroke="#000000" points="43.5,-325.5 43.5,-355.5 366.5,-355.5 366.5,-325.5 43.5,-325.5"/>
<text text-anchor="start" x="50.5" y="-336.9" font-family="Arial" font-size="14.00" fill="#000000">updated_at    </text>
<text text-anchor="start" x="154.7468" y="-336.9" font-family="Arial" font-size="14.00" fill="#666666">[timestamp]</text>
</g>
<!-- event_user_authorities&#45;&gt;authorities -->
<g id="edge1" class="edge">
<title>event_user_authorities:authority_id&#45;&gt;authorities:id</title>
<path fill="none" stroke="#000000" d="M376.4957,-399.3804C416.1377,-389.691 398.5076,-319.5055 366.5,-283 285.8166,-190.9785 174.1834,-339.0215 93.5,-247 65.2248,-214.7514 50.6111,-150.5 93.5,-150.5"/>
<polygon fill="#000000" stroke="#000000" points="376.4379,-399.3868 365.9991,-396.028 371.4689,-399.9434 366.5,-400.5 366.5,-400.5 366.5,-400.5 371.4689,-399.9434 367.0009,-404.972 376.4379,-399.3868 376.4379,-399.3868"/>
<text text-anchor="start" x="373.161" y="-410.5" font-family="Arial" font-size="10.00" fill="#000000">FOREIGN KEY (authority_id) REFERENCES authorities (id)</text>
</g>
</g>
</svg>
