<?xml version="1.0" encoding="UTF-8" standalone="no"?>
<!DOCTYPE svg PUBLIC "-//W3C//DTD SVG 1.1//EN"
 "http://www.w3.org/Graphics/SVG/1.1/DTD/svg11.dtd">
<!-- Generated by graphviz version 2.40.1 (20161225.0304)
 -->
<!-- Title: bookmarks Pages: 1 -->
<svg width="728pt" height="832pt"
 viewBox="0.00 0.00 727.50 832.00" xmlns="http://www.w3.org/2000/svg" xmlns:xlink="http://www.w3.org/1999/xlink">
<g id="graph0" class="graph" transform="scale(1 1) rotate(0) translate(4 828)">
<title>bookmarks</title>
<polygon fill="#ffffff" stroke="transparent" points="-4,4 -4,-828 723.5,-828 723.5,4 -4,4"/>
<!-- bookmarks -->
<g id="node1" class="node">
<title>bookmarks</title>
<polygon fill="#efefef" stroke="transparent" points="247.5,-742.5 247.5,-777.5 476.5,-777.5 476.5,-742.5 247.5,-742.5"/>
<polygon fill="none" stroke="#000000" points="247.5,-742.5 247.5,-777.5 476.5,-777.5 476.5,-742.5 247.5,-742.5"/>
<text text-anchor="start" x="254.2114" y="-755.3" font-family="Arial Bold" font-size="18.00" fill="#000000">bookmarks</text>
<text text-anchor="start" x="342.2206" y="-755.3" font-family="Arial" font-size="14.00" fill="#000000">    </text>
<text text-anchor="start" x="376.4254" y="-755.3" font-family="Arial" font-size="14.00" fill="#666666">[BASE TABLE]</text>
<polygon fill="none" stroke="#000000" points="247.5,-712.5 247.5,-742.5 476.5,-742.5 476.5,-712.5 247.5,-712.5"/>
<text text-anchor="start" x="254.5" y="-723.9" font-family="Arial" font-size="14.00" fill="#000000">user_id </text>
<text text-anchor="start" x="304.2882" y="-723.9" font-family="Arial" font-size="14.00" fill="#666666">[int unsigned]</text>
<polygon fill="none" stroke="#000000" points="247.5,-682.5 247.5,-712.5 476.5,-712.5 476.5,-682.5 247.5,-682.5"/>
<text text-anchor="start" x="254.5" y="-693.9" font-family="Arial" font-size="14.00" fill="#000000">work_id </text>
<text text-anchor="start" x="306.6122" y="-693.9" font-family="Arial" font-size="14.00" fill="#666666">[int unsigned]</text>
<polygon fill="none" stroke="#000000" points="247.5,-652.5 247.5,-682.5 476.5,-682.5 476.5,-652.5 247.5,-652.5"/>
<text text-anchor="start" x="254.5" y="-663.9" font-family="Arial" font-size="14.00" fill="#000000">created_at </text>
<text text-anchor="start" x="324.528" y="-663.9" font-family="Arial" font-size="14.00" fill="#666666">[timestamp]</text>
<polygon fill="none" stroke="#000000" points="247.5,-622.5 247.5,-652.5 476.5,-652.5 476.5,-622.5 247.5,-622.5"/>
<text text-anchor="start" x="254.5" y="-633.9" font-family="Arial" font-size="14.00" fill="#000000">updated_at </text>
<text text-anchor="start" x="328.4326" y="-633.9" font-family="Arial" font-size="14.00" fill="#666666">[timestamp]</text>
<polygon fill="none" stroke="#000000" stroke-width="3" points="245.5,-621.5 245.5,-779.5 477.5,-779.5 477.5,-621.5 245.5,-621.5"/>
</g>
<!-- users -->
<g id="node2" class="node">
<title>users</title>
<polygon fill="#efefef" stroke="transparent" points="43.5,-462.5 43.5,-497.5 336.5,-497.5 336.5,-462.5 43.5,-462.5"/>
<polygon fill="none" stroke="#000000" points="43.5,-462.5 43.5,-497.5 336.5,-497.5 336.5,-462.5 43.5,-462.5"/>
<text text-anchor="start" x="104.2137" y="-475.3" font-family="Arial Bold" font-size="18.00" fill="#000000">users</text>
<text text-anchor="start" x="148.2183" y="-475.3" font-family="Arial" font-size="14.00" fill="#000000">    </text>
<text text-anchor="start" x="182.4231" y="-475.3" font-family="Arial" font-size="14.00" fill="#666666">[BASE TABLE]</text>
<polygon fill="none" stroke="#000000" points="43.5,-432.5 43.5,-462.5 336.5,-462.5 336.5,-432.5 43.5,-432.5"/>
<text text-anchor="start" x="50.5" y="-443.9" font-family="Arial" font-size="14.00" fill="#000000">id    </text>
<text text-anchor="start" x="95.594" y="-443.9" font-family="Arial" font-size="14.00" fill="#666666">[int unsigned]</text>
<polygon fill="none" stroke="#000000" points="43.5,-402.5 43.5,-432.5 336.5,-432.5 336.5,-402.5 43.5,-402.5"/>
<text text-anchor="start" x="50.5" y="-413.9" font-family="Arial" font-size="14.00" fill="#000000">firebase_uid    </text>
<text text-anchor="start" x="160.9474" y="-413.9" font-family="Arial" font-size="14.00" fill="#666666">[varchar(255)]</text>
<polygon fill="none" stroke="#000000" points="43.5,-372.5 43.5,-402.5 336.5,-402.5 336.5,-372.5 43.5,-372.5"/>
<text text-anchor="start" x="50.5" y="-383.9" font-family="Arial" font-size="14.00" fill="#000000">email    </text>
<text text-anchor="start" x="118.1438" y="-383.9" font-family="Arial" font-size="14.00" fill="#666666">[varchar(255)]</text>
<polygon fill="none" stroke="#000000" points="43.5,-342.5 43.5,-372.5 336.5,-372.5 336.5,-342.5 43.5,-342.5"/>
<text text-anchor="start" x="50.5" y="-353.9" font-family="Arial" font-size="14.00" fill="#000000">username    </text>
<text text-anchor="start" x="146.939" y="-353.9" font-family="Arial" font-size="14.00" fill="#666666">[varchar(50)]</text>
<polygon fill="none" stroke="#000000" points="43.5,-312.5 43.5,-342.5 336.5,-342.5 336.5,-312.5 43.5,-312.5"/>
<text text-anchor="start" x="50.5" y="-323.9" font-family="Arial" font-size="14.00" fill="#000000">affiliation_id    </text>
<text text-anchor="start" x="158.6052" y="-323.9" font-family="Arial" font-size="14.00" fill="#666666">[int unsigned]</text>
<polygon fill="none" stroke="#000000" points="43.5,-282.5 43.5,-312.5 336.5,-312.5 336.5,-282.5 43.5,-282.5"/>
<text text-anchor="start" x="50.5" y="-293.9" font-family="Arial" font-size="14.00" fill="#000000">enrollment_year    </text>
<text text-anchor="start" x="185.0512" y="-293.9" font-family="Arial" font-size="14.00" fill="#666666">[int]</text>
<polygon fill="none" stroke="#000000" points="43.5,-252.5 43.5,-282.5 336.5,-282.5 336.5,-252.5 43.5,-252.5"/>
<text text-anchor="start" x="50.5" y="-263.9" font-family="Arial" font-size="14.00" fill="#000000">graduation_year    </text>
<text text-anchor="start" x="185.8492" y="-263.9" font-family="Arial" font-size="14.00" fill="#666666">[int]</text>
<polygon fill="none" stroke="#000000" points="43.5,-222.5 43.5,-252.5 336.5,-252.5 336.5,-222.5 43.5,-222.5"/>
<text text-anchor="start" x="50.5" y="-233.9" font-family="Arial" font-size="14.00" fill="#000000">is_job_hunt_completed    </text>
<text text-anchor="start" x="228.6402" y="-233.9" font-family="Arial" font-size="14.00" fill="#666666">[tinyint(1)]</text>
<polygon fill="none" stroke="#000000" points="43.5,-192.5 43.5,-222.5 336.5,-222.5 336.5,-192.5 43.5,-192.5"/>
<text text-anchor="start" x="50.5" y="-203.9" font-family="Arial" font-size="14.00" fill="#000000">self_introduction    </text>
<text text-anchor="start" x="186.6178" y="-203.9" font-family="Arial" font-size="14.00" fill="#666666">[text]</text>
<polygon fill="none" stroke="#000000" points="43.5,-162.5 43.5,-192.5 336.5,-192.5 336.5,-162.5 43.5,-162.5"/>
<text text-anchor="start" x="50.5" y="-173.9" font-family="Arial" font-size="14.00" fill="#000000">icon_url    </text>
<text text-anchor="start" x="133.709" y="-173.9" font-family="Arial" font-size="14.00" fill="#666666">[varchar(255)]</text>
<polygon fill="none" stroke="#000000" points="43.5,-132.5 43.5,-162.5 336.5,-162.5 336.5,-132.5 43.5,-132.5"/>
<text text-anchor="start" x="50.3738" y="-143.9" font-family="Arial" font-size="14.00" fill="#000000">show_profile_in_public_event    </text>
<text text-anchor="start" x="268.1816" y="-143.9" font-family="Arial" font-size="14.00" fill="#666666">[tinyint(1)]</text>
<polygon fill="none" stroke="#000000" points="43.5,-102.5 43.5,-132.5 336.5,-132.5 336.5,-102.5 43.5,-102.5"/>
<text text-anchor="start" x="50.5" y="-113.9" font-family="Arial" font-size="14.00" fill="#000000">show_profile_in_shared_url    </text>
<text text-anchor="start" x="255.8492" y="-113.9" font-family="Arial" font-size="14.00" fill="#666666">[tinyint(1)]</text>
<polygon fill="none" stroke="#000000" points="43.5,-72.5 43.5,-102.5 336.5,-102.5 336.5,-72.5 43.5,-72.5"/>
<text text-anchor="start" x="50.5" y="-83.9" font-family="Arial" font-size="14.00" fill="#000000">created_at    </text>
<text text-anchor="start" x="150.8422" y="-83.9" font-family="Arial" font-size="14.00" fill="#666666">[timestamp]</text>
<polygon fill="none" stroke="#000000" points="43.5,-42.5 43.5,-72.5 336.5,-72.5 336.5,-42.5 43.5,-42.5"/>
<text text-anchor="start" x="50.5" y="-53.9" font-family="Arial" font-size="14.00" fill="#000000">updated_at    </text>
<text text-anchor="start" x="154.7468" y="-53.9" font-family="Arial" font-size="14.00" fill="#666666">[timestamp]</text>
</g>
<!-- bookmarks&#45;&gt;users -->
<g id="edge1" class="edge">
<title>bookmarks:user_id&#45;&gt;users:id</title>
<path fill="none" stroke="#000000" d="M237.3764,-726.6693C183.8609,-717.2235 212.1523,-629.4279 247.5,-577 271.3531,-541.621 312.6469,-576.379 336.5,-541 359.7306,-506.5442 378.0556,-447.5 336.5,-447.5"/>
<polygon fill="#000000" stroke="#000000" points="237.5335,-726.6821 247.132,-731.9849 242.5167,-727.0911 247.5,-727.5 247.5,-727.5 247.5,-727.5 242.5167,-727.0911 247.868,-723.0151 237.5335,-726.6821 237.5335,-726.6821"/>
<text text-anchor="start" x="14.445" y="-737.5" font-family="Arial" font-size="10.00" fill="#000000">FOREIGN KEY (user_id) REFERENCES users (id)</text>
</g>
<!-- works -->
<g id="node3" class="node">
<title>works</title>
<polygon fill="#efefef" stroke="transparent" points="440.5,-312.5 440.5,-347.5 630.5,-347.5 630.5,-312.5 440.5,-312.5"/>
<polygon fill="none" stroke="#000000" points="440.5,-312.5 440.5,-347.5 630.5,-347.5 630.5,-312.5 440.5,-312.5"/>
<text text-anchor="start" x="448.2197" y="-325.3" font-family="Arial Bold" font-size="18.00" fill="#000000">works</text>
<text text-anchor="start" x="495.2123" y="-325.3" font-family="Arial" font-size="14.00" fill="#000000">    </text>
<text text-anchor="start" x="529.4171" y="-325.3" font-family="Arial" font-size="14.00" fill="#666666">[BASE TABLE]</text>
<polygon fill="none" stroke="#000000" points="440.5,-282.5 440.5,-312.5 630.5,-312.5 630.5,-282.5 440.5,-282.5"/>
<text text-anchor="start" x="447.5" y="-293.9" font-family="Arial" font-size="14.00" fill="#000000">id    </text>
<text text-anchor="start" x="492.594" y="-293.9" font-family="Arial" font-size="14.00" fill="#666666">[int unsigned]</text>
<polygon fill="none" stroke="#000000" points="440.5,-252.5 440.5,-282.5 630.5,-282.5 630.5,-252.5 440.5,-252.5"/>
<text text-anchor="start" x="447.5" y="-263.9" font-family="Arial" font-size="14.00" fill="#000000">event_id    </text>
<text text-anchor="start" x="534.615" y="-263.9" font-family="Arial" font-size="14.00" fill="#666666">[int unsigned]</text>
<polygon fill="none" stroke="#000000" points="440.5,-222.5 440.5,-252.5 630.5,-252.5 630.5,-222.5 440.5,-222.5"/>
<text text-anchor="start" x="447.5" y="-233.9" font-family="Arial" font-size="14.00" fill="#000000">created_at    </text>
<text text-anchor="start" x="547.8422" y="-233.9" font-family="Arial" font-size="14.00" fill="#666666">[timestamp]</text>
<polygon fill="none" stroke="#000000" points="440.5,-192.5 440.5,-222.5 630.5,-222.5 630.5,-192.5 440.5,-192.5"/>
<text text-anchor="start" x="447.2076" y="-203.9" font-family="Arial" font-size="14.00" fill="#000000">updated_at    </text>
<text text-anchor="start" x="551.4544" y="-203.9" font-family="Arial" font-size="14.00" fill="#666666">[timestamp]</text>
</g>
<!-- bookmarks&#45;&gt;works -->
<g id="edge2" class="edge">
<title>bookmarks:work_id&#45;&gt;works:id</title>
<path fill="none" stroke="#000000" d="M486.7705,-697.0022C639.1178,-681.262 265.6642,-297.5 440.5,-297.5"/>
<polygon fill="#000000" stroke="#000000" points="486.4883,-697.0158 476.2821,-693.0053 481.4941,-697.2579 476.5,-697.5 476.5,-697.5 476.5,-697.5 481.4941,-697.2579 476.7179,-701.9947 486.4883,-697.0158 486.4883,-697.0158"/>
<text text-anchor="start" x="483.785" y="-707.5" font-family="Arial" font-size="10.00" fill="#000000">FOREIGN KEY (work_id) REFERENCES works (id)</text>
</g>
</g>
</svg>
