<?xml version="1.0" encoding="UTF-8" standalone="no"?>
<!DOCTYPE svg PUBLIC "-//W3C//DTD SVG 1.1//EN"
 "http://www.w3.org/Graphics/SVG/1.1/DTD/svg11.dtd">
<!-- Generated by graphviz version 2.40.1 (20161225.0304)
 -->
<!-- Title: events Pages: 1 -->
<svg width="729pt" height="802pt"
 viewBox="0.00 0.00 728.50 802.00" xmlns="http://www.w3.org/2000/svg" xmlns:xlink="http://www.w3.org/1999/xlink">
<g id="graph0" class="graph" transform="scale(1 1) rotate(0) translate(4 798)">
<title>events</title>
<polygon fill="#ffffff" stroke="transparent" points="-4,4 -4,-798 724.5,-798 724.5,4 -4,4"/>
<!-- events -->
<g id="node1" class="node">
<title>events</title>
<polygon fill="#efefef" stroke="transparent" points="277.5,-405.5 277.5,-440.5 492.5,-440.5 492.5,-405.5 277.5,-405.5"/>
<polygon fill="none" stroke="#000000" points="277.5,-405.5 277.5,-440.5 492.5,-440.5 492.5,-405.5 277.5,-405.5"/>
<text text-anchor="start" x="294.7056" y="-418.3" font-family="Arial Bold" font-size="18.00" fill="#000000">events</text>
<text text-anchor="start" x="347.7264" y="-418.3" font-family="Arial" font-size="14.00" fill="#000000">    </text>
<text text-anchor="start" x="381.9312" y="-418.3" font-family="Arial" font-size="14.00" fill="#666666">[BASE TABLE]</text>
<polygon fill="none" stroke="#000000" points="277.5,-375.5 277.5,-405.5 492.5,-405.5 492.5,-375.5 277.5,-375.5"/>
<text text-anchor="start" x="284.5" y="-386.9" font-family="Arial" font-size="14.00" fill="#000000">id </text>
<text text-anchor="start" x="299.2798" y="-386.9" font-family="Arial" font-size="14.00" fill="#666666">[int unsigned]</text>
<polygon fill="none" stroke="#000000" points="277.5,-345.5 277.5,-375.5 492.5,-375.5 492.5,-345.5 277.5,-345.5"/>
<text text-anchor="start" x="284.5" y="-356.9" font-family="Arial" font-size="14.00" fill="#000000">name </text>
<text text-anchor="start" x="323.399" y="-356.9" font-family="Arial" font-size="14.00" fill="#666666">[varchar(50)]</text>
<polygon fill="none" stroke="#000000" points="277.5,-315.5 277.5,-345.5 492.5,-345.5 492.5,-315.5 277.5,-315.5"/>
<text text-anchor="start" x="284.5" y="-326.9" font-family="Arial" font-size="14.00" fill="#000000">password </text>
<text text-anchor="start" x="348.2882" y="-326.9" font-family="Arial" font-size="14.00" fill="#666666">[varchar(255)]</text>
<polygon fill="none" stroke="#000000" points="277.5,-285.5 277.5,-315.5 492.5,-315.5 492.5,-285.5 277.5,-285.5"/>
<text text-anchor="start" x="284.2686" y="-296.9" font-family="Arial" font-size="14.00" fill="#000000">is_requires_password </text>
<text text-anchor="start" x="424.2868" y="-296.9" font-family="Arial" font-size="14.00" fill="#666666">[tinyint(1)]</text>
<polygon fill="none" stroke="#000000" points="277.5,-255.5 277.5,-285.5 492.5,-285.5 492.5,-255.5 277.5,-255.5"/>
<text text-anchor="start" x="284.5" y="-266.9" font-family="Arial" font-size="14.00" fill="#000000">start_at </text>
<text text-anchor="start" x="335.0708" y="-266.9" font-family="Arial" font-size="14.00" fill="#666666">[datetime]</text>
<polygon fill="none" stroke="#000000" points="277.5,-225.5 277.5,-255.5 492.5,-255.5 492.5,-225.5 277.5,-225.5"/>
<text text-anchor="start" x="284.5" y="-236.9" font-family="Arial" font-size="14.00" fill="#000000">end_at </text>
<text text-anchor="start" x="331.1942" y="-236.9" font-family="Arial" font-size="14.00" fill="#666666">[datetime]</text>
<polygon fill="none" stroke="#000000" points="277.5,-195.5 277.5,-225.5 492.5,-225.5 492.5,-195.5 277.5,-195.5"/>
<text text-anchor="start" x="284.5" y="-206.9" font-family="Arial" font-size="14.00" fill="#000000">need_proofreading </text>
<text text-anchor="start" x="405.8828" y="-206.9" font-family="Arial" font-size="14.00" fill="#666666">[tinyint(1)]</text>
<polygon fill="none" stroke="#000000" points="277.5,-165.5 277.5,-195.5 492.5,-195.5 492.5,-165.5 277.5,-165.5"/>
<text text-anchor="start" x="284.5" y="-176.9" font-family="Arial" font-size="14.00" fill="#000000">icon_url </text>
<text text-anchor="start" x="337.3948" y="-176.9" font-family="Arial" font-size="14.00" fill="#666666">[varchar(255)]</text>
<polygon fill="none" stroke="#000000" points="277.5,-135.5 277.5,-165.5 492.5,-165.5 492.5,-135.5 277.5,-135.5"/>
<text text-anchor="start" x="284.5" y="-146.9" font-family="Arial" font-size="14.00" fill="#000000">description </text>
<text text-anchor="start" x="356.068" y="-146.9" font-family="Arial" font-size="14.00" fill="#666666">[text]</text>
<polygon fill="none" stroke="#000000" points="277.5,-105.5 277.5,-135.5 492.5,-135.5 492.5,-105.5 277.5,-105.5"/>
<text text-anchor="start" x="284.5" y="-116.9" font-family="Arial" font-size="14.00" fill="#000000">detail </text>
<text text-anchor="start" x="321.8422" y="-116.9" font-family="Arial" font-size="14.00" fill="#666666">[text]</text>
<polygon fill="none" stroke="#000000" points="277.5,-75.5 277.5,-105.5 492.5,-105.5 492.5,-75.5 277.5,-75.5"/>
<text text-anchor="start" x="284.5" y="-86.9" font-family="Arial" font-size="14.00" fill="#000000">created_at </text>
<text text-anchor="start" x="354.528" y="-86.9" font-family="Arial" font-size="14.00" fill="#666666">[timestamp]</text>
<polygon fill="none" stroke="#000000" points="277.5,-45.5 277.5,-75.5 492.5,-75.5 492.5,-45.5 277.5,-45.5"/>
<text text-anchor="start" x="284.5" y="-56.9" font-family="Arial" font-size="14.00" fill="#000000">updated_at </text>
<text text-anchor="start" x="358.4326" y="-56.9" font-family="Arial" font-size="14.00" fill="#666666">[timestamp]</text>
<polygon fill="none" stroke="#000000" stroke-width="3" points="275.5,-44.5 275.5,-442.5 493.5,-442.5 493.5,-44.5 275.5,-44.5"/>
</g>
<!-- event_user_authorities -->
<g id="node2" class="node">
<title>event_user_authorities</title>
<polygon fill="#efefef" stroke="transparent" points="43.5,-715.5 43.5,-750.5 366.5,-750.5 366.5,-715.5 43.5,-715.5"/>
<polygon fill="none" stroke="#000000" points="43.5,-715.5 43.5,-750.5 366.5,-750.5 366.5,-715.5 43.5,-715.5"/>
<text text-anchor="start" x="50.1891" y="-728.3" font-family="Arial Bold" font-size="18.00" fill="#000000">event_user_authorities</text>
<text text-anchor="start" x="232.2429" y="-728.3" font-family="Arial" font-size="14.00" fill="#000000">    </text>
<text text-anchor="start" x="266.4477" y="-728.3" font-family="Arial" font-size="14.00" fill="#666666">[BASE TABLE]</text>
<polygon fill="none" stroke="#000000" points="43.5,-685.5 43.5,-715.5 366.5,-715.5 366.5,-685.5 43.5,-685.5"/>
<text text-anchor="start" x="50.5" y="-696.9" font-family="Arial" font-size="14.00" fill="#000000">event_id    </text>
<text text-anchor="start" x="137.615" y="-696.9" font-family="Arial" font-size="14.00" fill="#666666">[int unsigned]</text>
<polygon fill="none" stroke="#000000" points="43.5,-655.5 43.5,-685.5 366.5,-685.5 366.5,-655.5 43.5,-655.5"/>
<text text-anchor="start" x="50.5" y="-666.9" font-family="Arial" font-size="14.00" fill="#000000">user_id    </text>
<text text-anchor="start" x="130.6024" y="-666.9" font-family="Arial" font-size="14.00" fill="#666666">[int unsigned]</text>
<polygon fill="none" stroke="#000000" points="43.5,-625.5 43.5,-655.5 366.5,-655.5 366.5,-625.5 43.5,-625.5"/>
<text text-anchor="start" x="50.5" y="-636.9" font-family="Arial" font-size="14.00" fill="#000000">authority_id    </text>
<text text-anchor="start" x="157.0554" y="-636.9" font-family="Arial" font-size="14.00" fill="#666666">[int unsigned]</text>
<polygon fill="none" stroke="#000000" points="43.5,-595.5 43.5,-625.5 366.5,-625.5 366.5,-595.5 43.5,-595.5"/>
<text text-anchor="start" x="50.5" y="-606.9" font-family="Arial" font-size="14.00" fill="#000000">created_at    </text>
<text text-anchor="start" x="150.8422" y="-606.9" font-family="Arial" font-size="14.00" fill="#666666">[timestamp]</text>
<polygon fill="none" stroke="#000000" points="43.5,-565.5 43.5,-595.5 366.5,-595.5 366.5,-565.5 43.5,-565.5"/>
<text text-anchor="start" x="50.5" y="-576.9" font-family="Arial" font-size="14.00" fill="#000000">updated_at    </text>
<text text-anchor="start" x="154.7468" y="-576.9" font-family="Arial" font-size="14.00" fill="#666666">[timestamp]</text>
</g>
<!-- event_user_authorities&#45;&gt;events -->
<g id="edge1" class="edge">
<title>event_user_authorities:event_id&#45;&gt;events:id</title>
<path fill="none" stroke="#000000" d="M376.8552,-699.7775C442.1071,-690.0942 408.5337,-585.3446 366.5,-523 342.6469,-487.621 301.3531,-522.379 277.5,-487 253.524,-451.4387 234.6111,-390.5 277.5,-390.5"/>
<polygon fill="#000000" stroke="#000000" points="376.4757,-699.8039 366.1867,-696.0109 371.4879,-700.1519 366.5,-700.5 366.5,-700.5 366.5,-700.5 371.4879,-700.1519 366.8133,-704.9891 376.4757,-699.8039 376.4757,-699.8039"/>
<text text-anchor="start" x="373.436" y="-710.5" font-family="Arial" font-size="10.00" fill="#000000">FOREIGN KEY (event_id) REFERENCES events (id)</text>
</g>
<!-- works -->
<g id="node3" class="node">
<title>works</title>
<polygon fill="#efefef" stroke="transparent" points="470.5,-700.5 470.5,-735.5 660.5,-735.5 660.5,-700.5 470.5,-700.5"/>
<polygon fill="none" stroke="#000000" points="470.5,-700.5 470.5,-735.5 660.5,-735.5 660.5,-700.5 470.5,-700.5"/>
<text text-anchor="start" x="478.2197" y="-713.3" font-family="Arial Bold" font-size="18.00" fill="#000000">works</text>
<text text-anchor="start" x="525.2123" y="-713.3" font-family="Arial" font-size="14.00" fill="#000000">    </text>
<text text-anchor="start" x="559.4171" y="-713.3" font-family="Arial" font-size="14.00" fill="#666666">[BASE TABLE]</text>
<polygon fill="none" stroke="#000000" points="470.5,-670.5 470.5,-700.5 660.5,-700.5 660.5,-670.5 470.5,-670.5"/>
<text text-anchor="start" x="477.5" y="-681.9" font-family="Arial" font-size="14.00" fill="#000000">id    </text>
<text text-anchor="start" x="522.594" y="-681.9" font-family="Arial" font-size="14.00" fill="#666666">[int unsigned]</text>
<polygon fill="none" stroke="#000000" points="470.5,-640.5 470.5,-670.5 660.5,-670.5 660.5,-640.5 470.5,-640.5"/>
<text text-anchor="start" x="477.5" y="-651.9" font-family="Arial" font-size="14.00" fill="#000000">event_id    </text>
<text text-anchor="start" x="564.615" y="-651.9" font-family="Arial" font-size="14.00" fill="#666666">[int unsigned]</text>
<polygon fill="none" stroke="#000000" points="470.5,-610.5 470.5,-640.5 660.5,-640.5 660.5,-610.5 470.5,-610.5"/>
<text text-anchor="start" x="477.5" y="-621.9" font-family="Arial" font-size="14.00" fill="#000000">created_at    </text>
<text text-anchor="start" x="577.8422" y="-621.9" font-family="Arial" font-size="14.00" fill="#666666">[timestamp]</text>
<polygon fill="none" stroke="#000000" points="470.5,-580.5 470.5,-610.5 660.5,-610.5 660.5,-580.5 470.5,-580.5"/>
<text text-anchor="start" x="477.2076" y="-591.9" font-family="Arial" font-size="14.00" fill="#000000">updated_at    </text>
<text text-anchor="start" x="581.4544" y="-591.9" font-family="Arial" font-size="14.00" fill="#666666">[timestamp]</text>
</g>
<!-- works&#45;&gt;events -->
<g id="edge2" class="edge">
<title>works:event_id&#45;&gt;events:id</title>
<path fill="none" stroke="#000000" d="M460.3728,-654.4368C424.2906,-645.734 460.7232,-585.3475 470.5,-538 475.492,-513.8243 487.508,-511.1757 492.5,-487 501.1731,-444.9972 535.3889,-390.5 492.5,-390.5"/>
<polygon fill="#000000" stroke="#000000" points="460.5547,-654.4558 470.0301,-659.9754 465.5273,-654.9779 470.5,-655.5 470.5,-655.5 470.5,-655.5 465.5273,-654.9779 470.9699,-651.0246 460.5547,-654.4558 460.5547,-654.4558"/>
<text text-anchor="start" x="477.436" y="-665.5" font-family="Arial" font-size="10.00" fill="#000000">FOREIGN KEY (event_id) REFERENCES events (id)</text>
</g>
</g>
</svg>
