<?xml version="1.0" encoding="UTF-8" standalone="no"?>
<!DOCTYPE svg PUBLIC "-//W3C//DTD SVG 1.1//EN"
 "http://www.w3.org/Graphics/SVG/1.1/DTD/svg11.dtd">
<!-- Generated by graphviz version 2.40.1 (20161225.0304)
 -->
<!-- Title: event_user_authorities Pages: 1 -->
<svg width="1065pt" height="862pt"
 viewBox="0.00 0.00 1064.50 862.00" xmlns="http://www.w3.org/2000/svg" xmlns:xlink="http://www.w3.org/1999/xlink">
<g id="graph0" class="graph" transform="scale(1 1) rotate(0) translate(4 858)">
<title>event_user_authorities</title>
<polygon fill="#ffffff" stroke="transparent" points="-4,4 -4,-858 1060.5,-858 1060.5,4 -4,4"/>
<!-- event_user_authorities -->
<g id="node1" class="node">
<title>event_user_authorities</title>
<polygon fill="#efefef" stroke="transparent" points="377.5,-772.5 377.5,-807.5 700.5,-807.5 700.5,-772.5 377.5,-772.5"/>
<polygon fill="none" stroke="#000000" points="377.5,-772.5 377.5,-807.5 700.5,-807.5 700.5,-772.5 377.5,-772.5"/>
<text text-anchor="start" x="384.1891" y="-785.3" font-family="Arial Bold" font-size="18.00" fill="#000000">event_user_authorities</text>
<text text-anchor="start" x="566.2429" y="-785.3" font-family="Arial" font-size="14.00" fill="#000000">    </text>
<text text-anchor="start" x="600.4477" y="-785.3" font-family="Arial" font-size="14.00" fill="#666666">[BASE TABLE]</text>
<polygon fill="none" stroke="#000000" points="377.5,-742.5 377.5,-772.5 700.5,-772.5 700.5,-742.5 377.5,-742.5"/>
<text text-anchor="start" x="384.5" y="-753.9" font-family="Arial" font-size="14.00" fill="#000000">event_id </text>
<text text-anchor="start" x="441.3008" y="-753.9" font-family="Arial" font-size="14.00" fill="#666666">[int unsigned]</text>
<polygon fill="none" stroke="#000000" points="377.5,-712.5 377.5,-742.5 700.5,-742.5 700.5,-712.5 377.5,-712.5"/>
<text text-anchor="start" x="384.5" y="-723.9" font-family="Arial" font-size="14.00" fill="#000000">user_id </text>
<text text-anchor="start" x="434.2882" y="-723.9" font-family="Arial" font-size="14.00" fill="#666666">[int unsigned]</text>
<polygon fill="none" stroke="#000000" points="377.5,-682.5 377.5,-712.5 700.5,-712.5 700.5,-682.5 377.5,-682.5"/>
<text text-anchor="start" x="384.5" y="-693.9" font-family="Arial" font-size="14.00" fill="#000000">authority_id </text>
<text text-anchor="start" x="460.7412" y="-693.9" font-family="Arial" font-size="14.00" fill="#666666">[int unsigned]</text>
<polygon fill="none" stroke="#000000" points="377.5,-652.5 377.5,-682.5 700.5,-682.5 700.5,-652.5 377.5,-652.5"/>
<text text-anchor="start" x="384.5" y="-663.9" font-family="Arial" font-size="14.00" fill="#000000">created_at </text>
<text text-anchor="start" x="454.528" y="-663.9" font-family="Arial" font-size="14.00" fill="#666666">[timestamp]</text>
<polygon fill="none" stroke="#000000" points="377.5,-622.5 377.5,-652.5 700.5,-652.5 700.5,-622.5 377.5,-622.5"/>
<text text-anchor="start" x="384.5" y="-633.9" font-family="Arial" font-size="14.00" fill="#000000">updated_at </text>
<text text-anchor="start" x="458.4326" y="-633.9" font-family="Arial" font-size="14.00" fill="#666666">[timestamp]</text>
<polygon fill="none" stroke="#000000" stroke-width="3" points="375.5,-621.5 375.5,-809.5 701.5,-809.5 701.5,-621.5 375.5,-621.5"/>
</g>
<!-- events -->
<g id="node2" class="node">
<title>events</title>
<polygon fill="#efefef" stroke="transparent" points="43.5,-432.5 43.5,-467.5 288.5,-467.5 288.5,-432.5 43.5,-432.5"/>
<polygon fill="none" stroke="#000000" points="43.5,-432.5 43.5,-467.5 288.5,-467.5 288.5,-432.5 43.5,-432.5"/>
<text text-anchor="start" x="75.7056" y="-445.3" font-family="Arial Bold" font-size="18.00" fill="#000000">events</text>
<text text-anchor="start" x="128.7264" y="-445.3" font-family="Arial" font-size="14.00" fill="#000000">    </text>
<text text-anchor="start" x="162.9312" y="-445.3" font-family="Arial" font-size="14.00" fill="#666666">[BASE TABLE]</text>
<polygon fill="none" stroke="#000000" points="43.5,-402.5 43.5,-432.5 288.5,-432.5 288.5,-402.5 43.5,-402.5"/>
<text text-anchor="start" x="50.5" y="-413.9" font-family="Arial" font-size="14.00" fill="#000000">id    </text>
<text text-anchor="start" x="95.594" y="-413.9" font-family="Arial" font-size="14.00" fill="#666666">[int unsigned]</text>
<polygon fill="none" stroke="#000000" points="43.5,-372.5 43.5,-402.5 288.5,-402.5 288.5,-372.5 43.5,-372.5"/>
<text text-anchor="start" x="50.5" y="-383.9" font-family="Arial" font-size="14.00" fill="#000000">name    </text>
<text text-anchor="start" x="119.7132" y="-383.9" font-family="Arial" font-size="14.00" fill="#666666">[varchar(50)]</text>
<polygon fill="none" stroke="#000000" points="43.5,-342.5 43.5,-372.5 288.5,-372.5 288.5,-342.5 43.5,-342.5"/>
<text text-anchor="start" x="50.5" y="-353.9" font-family="Arial" font-size="14.00" fill="#000000">password    </text>
<text text-anchor="start" x="144.6024" y="-353.9" font-family="Arial" font-size="14.00" fill="#666666">[varchar(255)]</text>
<polygon fill="none" stroke="#000000" points="43.5,-312.5 43.5,-342.5 288.5,-342.5 288.5,-312.5 43.5,-312.5"/>
<text text-anchor="start" x="50.1115" y="-323.9" font-family="Arial" font-size="14.00" fill="#000000">is_requires_password    </text>
<text text-anchor="start" x="220.4439" y="-323.9" font-family="Arial" font-size="14.00" fill="#666666">[tinyint(1)]</text>
<polygon fill="none" stroke="#000000" points="43.5,-282.5 43.5,-312.5 288.5,-312.5 288.5,-282.5 43.5,-282.5"/>
<text text-anchor="start" x="50.5" y="-293.9" font-family="Arial" font-size="14.00" fill="#000000">start_at    </text>
<text text-anchor="start" x="131.385" y="-293.9" font-family="Arial" font-size="14.00" fill="#666666">[datetime]</text>
<polygon fill="none" stroke="#000000" points="43.5,-252.5 43.5,-282.5 288.5,-282.5 288.5,-252.5 43.5,-252.5"/>
<text text-anchor="start" x="50.5" y="-263.9" font-family="Arial" font-size="14.00" fill="#000000">end_at    </text>
<text text-anchor="start" x="127.5084" y="-263.9" font-family="Arial" font-size="14.00" fill="#666666">[datetime]</text>
<polygon fill="none" stroke="#000000" points="43.5,-222.5 43.5,-252.5 288.5,-252.5 288.5,-222.5 43.5,-222.5"/>
<text text-anchor="start" x="50.5" y="-233.9" font-family="Arial" font-size="14.00" fill="#000000">need_proofreading    </text>
<text text-anchor="start" x="202.197" y="-233.9" font-family="Arial" font-size="14.00" fill="#666666">[tinyint(1)]</text>
<polygon fill="none" stroke="#000000" points="43.5,-192.5 43.5,-222.5 288.5,-222.5 288.5,-192.5 43.5,-192.5"/>
<text text-anchor="start" x="50.5" y="-203.9" font-family="Arial" font-size="14.00" fill="#000000">icon_url    </text>
<text text-anchor="start" x="133.709" y="-203.9" font-family="Arial" font-size="14.00" fill="#666666">[varchar(255)]</text>
<polygon fill="none" stroke="#000000" points="43.5,-162.5 43.5,-192.5 288.5,-192.5 288.5,-162.5 43.5,-162.5"/>
<text text-anchor="start" x="50.5" y="-173.9" font-family="Arial" font-size="14.00" fill="#000000">description    </text>
<text text-anchor="start" x="152.3822" y="-173.9" font-family="Arial" font-size="14.00" fill="#666666">[text]</text>
<polygon fill="none" stroke="#000000" points="43.5,-132.5 43.5,-162.5 288.5,-162.5 288.5,-132.5 43.5,-132.5"/>
<text text-anchor="start" x="50.5" y="-143.9" font-family="Arial" font-size="14.00" fill="#000000">detail    </text>
<text text-anchor="start" x="118.1564" y="-143.9" font-family="Arial" font-size="14.00" fill="#666666">[text]</text>
<polygon fill="none" stroke="#000000" points="43.5,-102.5 43.5,-132.5 288.5,-132.5 288.5,-102.5 43.5,-102.5"/>
<text text-anchor="start" x="50.5" y="-113.9" font-family="Arial" font-size="14.00" fill="#000000">created_at    </text>
<text text-anchor="start" x="150.8422" y="-113.9" font-family="Arial" font-size="14.00" fill="#666666">[timestamp]</text>
<polygon fill="none" stroke="#000000" points="43.5,-72.5 43.5,-102.5 288.5,-102.5 288.5,-72.5 43.5,-72.5"/>
<text text-anchor="start" x="50.5" y="-83.9" font-family="Arial" font-size="14.00" fill="#000000">updated_at    </text>
<text text-anchor="start" x="154.7468" y="-83.9" font-family="Arial" font-size="14.00" fill="#666666">[timestamp]</text>
</g>
<!-- event_user_authorities&#45;&gt;events -->
<g id="edge1" class="edge">
<title>event_user_authorities:event_id&#45;&gt;events:id</title>
<path fill="none" stroke="#000000" d="M367.4449,-755.3288C305.3797,-726.3721 362.9402,-417.5 288.5,-417.5"/>
<polygon fill="#000000" stroke="#000000" points="367.7253,-755.3893 376.5502,-761.8986 372.6126,-756.4446 377.5,-757.5 377.5,-757.5 377.5,-757.5 372.6126,-756.4446 378.4498,-753.1014 367.7253,-755.3893 367.7253,-755.3893"/>
<text text-anchor="start" x="134.436" y="-767.5" font-family="Arial" font-size="10.00" fill="#000000">FOREIGN KEY (event_id) REFERENCES events (id)</text>
</g>
<!-- users -->
<g id="node3" class="node">
<title>users</title>
<polygon fill="#efefef" stroke="transparent" points="392.5,-462.5 392.5,-497.5 685.5,-497.5 685.5,-462.5 392.5,-462.5"/>
<polygon fill="none" stroke="#000000" points="392.5,-462.5 392.5,-497.5 685.5,-497.5 685.5,-462.5 392.5,-462.5"/>
<text text-anchor="start" x="453.2137" y="-475.3" font-family="Arial Bold" font-size="18.00" fill="#000000">users</text>
<text text-anchor="start" x="497.2183" y="-475.3" font-family="Arial" font-size="14.00" fill="#000000">    </text>
<text text-anchor="start" x="531.4231" y="-475.3" font-family="Arial" font-size="14.00" fill="#666666">[BASE TABLE]</text>
<polygon fill="none" stroke="#000000" points="392.5,-432.5 392.5,-462.5 685.5,-462.5 685.5,-432.5 392.5,-432.5"/>
<text text-anchor="start" x="399.5" y="-443.9" font-family="Arial" font-size="14.00" fill="#000000">id    </text>
<text text-anchor="start" x="444.594" y="-443.9" font-family="Arial" font-size="14.00" fill="#666666">[int unsigned]</text>
<polygon fill="none" stroke="#000000" points="392.5,-402.5 392.5,-432.5 685.5,-432.5 685.5,-402.5 392.5,-402.5"/>
<text text-anchor="start" x="399.5" y="-413.9" font-family="Arial" font-size="14.00" fill="#000000">firebase_uid    </text>
<text text-anchor="start" x="509.9474" y="-413.9" font-family="Arial" font-size="14.00" fill="#666666">[varchar(255)]</text>
<polygon fill="none" stroke="#000000" points="392.5,-372.5 392.5,-402.5 685.5,-402.5 685.5,-372.5 392.5,-372.5"/>
<text text-anchor="start" x="399.5" y="-383.9" font-family="Arial" font-size="14.00" fill="#000000">email    </text>
<text text-anchor="start" x="467.1438" y="-383.9" font-family="Arial" font-size="14.00" fill="#666666">[varchar(255)]</text>
<polygon fill="none" stroke="#000000" points="392.5,-342.5 392.5,-372.5 685.5,-372.5 685.5,-342.5 392.5,-342.5"/>
<text text-anchor="start" x="399.5" y="-353.9" font-family="Arial" font-size="14.00" fill="#000000">username    </text>
<text text-anchor="start" x="495.939" y="-353.9" font-family="Arial" font-size="14.00" fill="#666666">[varchar(50)]</text>
<polygon fill="none" stroke="#000000" points="392.5,-312.5 392.5,-342.5 685.5,-342.5 685.5,-312.5 392.5,-312.5"/>
<text text-anchor="start" x="399.5" y="-323.9" font-family="Arial" font-size="14.00" fill="#000000">affiliation_id    </text>
<text text-anchor="start" x="507.6052" y="-323.9" font-family="Arial" font-size="14.00" fill="#666666">[int unsigned]</text>
<polygon fill="none" stroke="#000000" points="392.5,-282.5 392.5,-312.5 685.5,-312.5 685.5,-282.5 392.5,-282.5"/>
<text text-anchor="start" x="399.5" y="-293.9" font-family="Arial" font-size="14.00" fill="#000000">enrollment_year    </text>
<text text-anchor="start" x="534.0512" y="-293.9" font-family="Arial" font-size="14.00" fill="#666666">[int]</text>
<polygon fill="none" stroke="#000000" points="392.5,-252.5 392.5,-282.5 685.5,-282.5 685.5,-252.5 392.5,-252.5"/>
<text text-anchor="start" x="399.5" y="-263.9" font-family="Arial" font-size="14.00" fill="#000000">graduation_year    </text>
<text text-anchor="start" x="534.8492" y="-263.9" font-family="Arial" font-size="14.00" fill="#666666">[int]</text>
<polygon fill="none" stroke="#000000" points="392.5,-222.5 392.5,-252.5 685.5,-252.5 685.5,-222.5 392.5,-222.5"/>
<text text-anchor="start" x="399.5" y="-233.9" font-family="Arial" font-size="14.00" fill="#000000">is_job_hunt_completed    </text>
<text text-anchor="start" x="577.6402" y="-233.9" font-family="Arial" font-size="14.00" fill="#666666">[tinyint(1)]</text>
<polygon fill="none" stroke="#000000" points="392.5,-192.5 392.5,-222.5 685.5,-222.5 685.5,-192.5 392.5,-192.5"/>
<text text-anchor="start" x="399.5" y="-203.9" font-family="Arial" font-size="14.00" fill="#000000">self_introduction    </text>
<text text-anchor="start" x="535.6178" y="-203.9" font-family="Arial" font-size="14.00" fill="#666666">[text]</text>
<polygon fill="none" stroke="#000000" points="392.5,-162.5 392.5,-192.5 685.5,-192.5 685.5,-162.5 392.5,-162.5"/>
<text text-anchor="start" x="399.5" y="-173.9" font-family="Arial" font-size="14.00" fill="#000000">icon_url    </text>
<text text-anchor="start" x="482.709" y="-173.9" font-family="Arial" font-size="14.00" fill="#666666">[varchar(255)]</text>
<polygon fill="none" stroke="#000000" points="392.5,-132.5 392.5,-162.5 685.5,-162.5 685.5,-132.5 392.5,-132.5"/>
<text text-anchor="start" x="399.3738" y="-143.9" font-family="Arial" font-size="14.00" fill="#000000">show_profile_in_public_event    </text>
<text text-anchor="start" x="617.1816" y="-143.9" font-family="Arial" font-size="14.00" fill="#666666">[tinyint(1)]</text>
<polygon fill="none" stroke="#000000" points="392.5,-102.5 392.5,-132.5 685.5,-132.5 685.5,-102.5 392.5,-102.5"/>
<text text-anchor="start" x="399.5" y="-113.9" font-family="Arial" font-size="14.00" fill="#000000">show_profile_in_shared_url    </text>
<text text-anchor="start" x="604.8492" y="-113.9" font-family="Arial" font-size="14.00" fill="#666666">[tinyint(1)]</text>
<polygon fill="none" stroke="#000000" points="392.5,-72.5 392.5,-102.5 685.5,-102.5 685.5,-72.5 392.5,-72.5"/>
<text text-anchor="start" x="399.5" y="-83.9" font-family="Arial" font-size="14.00" fill="#000000">created_at    </text>
<text text-anchor="start" x="499.8422" y="-83.9" font-family="Arial" font-size="14.00" fill="#666666">[timestamp]</text>
<polygon fill="none" stroke="#000000" points="392.5,-42.5 392.5,-72.5 685.5,-72.5 685.5,-42.5 392.5,-42.5"/>
<text text-anchor="start" x="399.5" y="-53.9" font-family="Arial" font-size="14.00" fill="#000000">updated_at    </text>
<text text-anchor="start" x="503.7468" y="-53.9" font-family="Arial" font-size="14.00" fill="#666666">[timestamp]</text>
</g>
<!-- event_user_authorities&#45;&gt;users -->
<g id="edge2" class="edge">
<title>event_user_authorities:user_id&#45;&gt;users:id</title>
<path fill="none" stroke="#000000" d="M367.6506,-724.9069C317.0396,-696.6795 333.7179,-447.5 392.5,-447.5"/>
<polygon fill="#000000" stroke="#000000" points="367.8295,-724.954 376.3543,-731.8517 372.6648,-726.227 377.5,-727.5 377.5,-727.5 377.5,-727.5 372.6648,-726.227 378.6457,-723.1483 367.8295,-724.954 367.8295,-724.954"/>
<text text-anchor="start" x="144.445" y="-737.5" font-family="Arial" font-size="10.00" fill="#000000">FOREIGN KEY (user_id) REFERENCES users (id)</text>
</g>
<!-- authorities -->
<g id="node4" class="node">
<title>authorities</title>
<polygon fill="#efefef" stroke="transparent" points="789.5,-312.5 789.5,-347.5 1013.5,-347.5 1013.5,-312.5 789.5,-312.5"/>
<polygon fill="none" stroke="#000000" points="789.5,-312.5 789.5,-347.5 1013.5,-347.5 1013.5,-312.5 789.5,-312.5"/>
<text text-anchor="start" x="796.208" y="-325.3" font-family="Arial Bold" font-size="18.00" fill="#000000">authorities</text>
<text text-anchor="start" x="879.224" y="-325.3" font-family="Arial" font-size="14.00" fill="#000000">    </text>
<text text-anchor="start" x="913.4288" y="-325.3" font-family="Arial" font-size="14.00" fill="#666666">[BASE TABLE]</text>
<polygon fill="none" stroke="#000000" points="789.5,-282.5 789.5,-312.5 1013.5,-312.5 1013.5,-282.5 789.5,-282.5"/>
<text text-anchor="start" x="796.5" y="-293.9" font-family="Arial" font-size="14.00" fill="#000000">id    </text>
<text text-anchor="start" x="841.594" y="-293.9" font-family="Arial" font-size="14.00" fill="#666666">[int unsigned]</text>
<polygon fill="none" stroke="#000000" points="789.5,-252.5 789.5,-282.5 1013.5,-282.5 1013.5,-252.5 789.5,-252.5"/>
<text text-anchor="start" x="796.5" y="-263.9" font-family="Arial" font-size="14.00" fill="#000000">name    </text>
<text text-anchor="start" x="865.7132" y="-263.9" font-family="Arial" font-size="14.00" fill="#666666">[varchar(30)]</text>
<polygon fill="none" stroke="#000000" points="789.5,-222.5 789.5,-252.5 1013.5,-252.5 1013.5,-222.5 789.5,-222.5"/>
<text text-anchor="start" x="796.5" y="-233.9" font-family="Arial" font-size="14.00" fill="#000000">created_at    </text>
<text text-anchor="start" x="896.8422" y="-233.9" font-family="Arial" font-size="14.00" fill="#666666">[timestamp]</text>
<polygon fill="none" stroke="#000000" points="789.5,-192.5 789.5,-222.5 1013.5,-222.5 1013.5,-192.5 789.5,-192.5"/>
<text text-anchor="start" x="796.5" y="-203.9" font-family="Arial" font-size="14.00" fill="#000000">updated_at    </text>
<text text-anchor="start" x="900.7468" y="-203.9" font-family="Arial" font-size="14.00" fill="#666666">[timestamp]</text>
</g>
<!-- event_user_authorities&#45;&gt;authorities -->
<g id="edge3" class="edge">
<title>event_user_authorities:authority_id&#45;&gt;authorities:id</title>
<path fill="none" stroke="#000000" d="M710.3502,-695.7166C784.5682,-666.8604 701.9945,-297.5 789.5,-297.5"/>
<polygon fill="#000000" stroke="#000000" points="710.34,-695.7184 699.6983,-693.072 705.42,-696.6092 700.5,-697.5 700.5,-697.5 700.5,-697.5 705.42,-696.6092 701.3017,-701.928 710.34,-695.7184 710.34,-695.7184"/>
<text text-anchor="start" x="707.161" y="-707.5" font-family="Arial" font-size="10.00" fill="#000000">FOREIGN KEY (authority_id) REFERENCES authorities (id)</text>
</g>
</g>
</svg>
