<?xml version="1.0" encoding="UTF-8" standalone="no"?>
<!DOCTYPE svg PUBLIC "-//W3C//DTD SVG 1.1//EN"
 "http://www.w3.org/Graphics/SVG/1.1/DTD/svg11.dtd">
<!-- Generated by graphviz version 2.40.1 (20161225.0304)
 -->
<!-- Title: genres Pages: 1 -->
<svg width="593pt" height="532pt"
 viewBox="0.00 0.00 592.50 532.00" xmlns="http://www.w3.org/2000/svg" xmlns:xlink="http://www.w3.org/1999/xlink">
<g id="graph0" class="graph" transform="scale(1 1) rotate(0) translate(4 528)">
<title>genres</title>
<polygon fill="#ffffff" stroke="transparent" points="-4,4 -4,-528 588.5,-528 588.5,4 -4,4"/>
<!-- genres -->
<g id="node1" class="node">
<title>genres</title>
<polygon fill="#efefef" stroke="transparent" points="90.5,-165.5 90.5,-200.5 286.5,-200.5 286.5,-165.5 90.5,-165.5"/>
<polygon fill="none" stroke="#000000" points="90.5,-165.5 90.5,-200.5 286.5,-200.5 286.5,-165.5 90.5,-165.5"/>
<text text-anchor="start" x="97.2075" y="-178.3" font-family="Arial Bold" font-size="18.00" fill="#000000">genres</text>
<text text-anchor="start" x="152.2245" y="-178.3" font-family="Arial" font-size="14.00" fill="#000000">    </text>
<text text-anchor="start" x="186.4293" y="-178.3" font-family="Arial" font-size="14.00" fill="#666666">[BASE TABLE]</text>
<polygon fill="none" stroke="#000000" points="90.5,-135.5 90.5,-165.5 286.5,-165.5 286.5,-135.5 90.5,-135.5"/>
<text text-anchor="start" x="97.5" y="-146.9" font-family="Arial" font-size="14.00" fill="#000000">id </text>
<text text-anchor="start" x="112.2798" y="-146.9" font-family="Arial" font-size="14.00" fill="#666666">[int unsigned]</text>
<polygon fill="none" stroke="#000000" points="90.5,-105.5 90.5,-135.5 286.5,-135.5 286.5,-105.5 90.5,-105.5"/>
<text text-anchor="start" x="97.5" y="-116.9" font-family="Arial" font-size="14.00" fill="#000000">name </text>
<text text-anchor="start" x="136.399" y="-116.9" font-family="Arial" font-size="14.00" fill="#666666">[varchar(30)]</text>
<polygon fill="none" stroke="#000000" points="90.5,-75.5 90.5,-105.5 286.5,-105.5 286.5,-75.5 90.5,-75.5"/>
<text text-anchor="start" x="97.5" y="-86.9" font-family="Arial" font-size="14.00" fill="#000000">created_at </text>
<text text-anchor="start" x="167.528" y="-86.9" font-family="Arial" font-size="14.00" fill="#666666">[timestamp]</text>
<polygon fill="none" stroke="#000000" points="90.5,-45.5 90.5,-75.5 286.5,-75.5 286.5,-45.5 90.5,-45.5"/>
<text text-anchor="start" x="97.5" y="-56.9" font-family="Arial" font-size="14.00" fill="#000000">updated_at </text>
<text text-anchor="start" x="171.4326" y="-56.9" font-family="Arial" font-size="14.00" fill="#666666">[timestamp]</text>
<polygon fill="none" stroke="#000000" stroke-width="3" points="89,-44.5 89,-202.5 288,-202.5 288,-44.5 89,-44.5"/>
</g>
<!-- work_data_genres -->
<g id="node2" class="node">
<title>work_data_genres</title>
<polygon fill="#efefef" stroke="transparent" points="43.5,-445.5 43.5,-480.5 332.5,-480.5 332.5,-445.5 43.5,-445.5"/>
<polygon fill="none" stroke="#000000" points="43.5,-445.5 43.5,-480.5 332.5,-480.5 332.5,-445.5 43.5,-445.5"/>
<text text-anchor="start" x="50.1946" y="-458.3" font-family="Arial Bold" font-size="18.00" fill="#000000">work_data_genres</text>
<text text-anchor="start" x="198.2374" y="-458.3" font-family="Arial" font-size="14.00" fill="#000000">    </text>
<text text-anchor="start" x="232.4422" y="-458.3" font-family="Arial" font-size="14.00" fill="#666666">[BASE TABLE]</text>
<polygon fill="none" stroke="#000000" points="43.5,-415.5 43.5,-445.5 332.5,-445.5 332.5,-415.5 43.5,-415.5"/>
<text text-anchor="start" x="50.5" y="-426.9" font-family="Arial" font-size="14.00" fill="#000000">work_data_id    </text>
<text text-anchor="start" x="167.9474" y="-426.9" font-family="Arial" font-size="14.00" fill="#666666">[int unsigned]</text>
<polygon fill="none" stroke="#000000" points="43.5,-385.5 43.5,-415.5 332.5,-415.5 332.5,-385.5 43.5,-385.5"/>
<text text-anchor="start" x="50.5" y="-396.9" font-family="Arial" font-size="14.00" fill="#000000">genre_id    </text>
<text text-anchor="start" x="139.1676" y="-396.9" font-family="Arial" font-size="14.00" fill="#666666">[int unsigned]</text>
<polygon fill="none" stroke="#000000" points="43.5,-355.5 43.5,-385.5 332.5,-385.5 332.5,-355.5 43.5,-355.5"/>
<text text-anchor="start" x="50.5" y="-366.9" font-family="Arial" font-size="14.00" fill="#000000">created_at    </text>
<text text-anchor="start" x="150.8422" y="-366.9" font-family="Arial" font-size="14.00" fill="#666666">[timestamp]</text>
<polygon fill="none" stroke="#000000" points="43.5,-325.5 43.5,-355.5 332.5,-355.5 332.5,-325.5 43.5,-325.5"/>
<text text-anchor="start" x="50.5" y="-336.9" font-family="Arial" font-size="14.00" fill="#000000">updated_at    </text>
<text text-anchor="start" x="154.7468" y="-336.9" font-family="Arial" font-size="14.00" fill="#666666">[timestamp]</text>
</g>
<!-- work_data_genres&#45;&gt;genres -->
<g id="edge1" class="edge">
<title>work_data_genres:genre_id&#45;&gt;genres:id</title>
<path fill="none" stroke="#000000" d="M342.4912,-399.3843C382.095,-389.7282 364.2041,-319.7693 332.5,-283 261.4917,-200.647 161.5083,-329.353 90.5,-247 62.4929,-214.5183 47.6111,-150.5 90.5,-150.5"/>
<polygon fill="#000000" stroke="#000000" points="342.4382,-399.3902 332.0006,-396.0278 337.4691,-399.9451 332.5,-400.5 332.5,-400.5 332.5,-400.5 337.4691,-399.9451 332.9994,-404.9722 342.4382,-399.3902 342.4382,-399.3902"/>
<text text-anchor="start" x="339.327" y="-410.5" font-family="Arial" font-size="10.00" fill="#000000">FOREIGN KEY (genre_id) REFERENCES genres (id)</text>
</g>
</g>
</svg>
