<?xml version="1.0" encoding="UTF-8" standalone="no"?>
<!DOCTYPE svg PUBLIC "-//W3C//DTD SVG 1.1//EN"
 "http://www.w3.org/Graphics/SVG/1.1/DTD/svg11.dtd">
<!-- Generated by graphviz version 2.40.1 (20161225.0304)
 -->
<!-- Title: occupations Pages: 1 -->
<svg width="630pt" height="532pt"
 viewBox="0.00 0.00 630.00 532.00" xmlns="http://www.w3.org/2000/svg" xmlns:xlink="http://www.w3.org/1999/xlink">
<g id="graph0" class="graph" transform="scale(1 1) rotate(0) translate(4 528)">
<title>occupations</title>
<polygon fill="#ffffff" stroke="transparent" points="-4,4 -4,-528 626,-528 626,4 -4,4"/>
<!-- occupations -->
<g id="node1" class="node">
<title>occupations</title>
<polygon fill="#efefef" stroke="transparent" points="319,-165.5 319,-200.5 556,-200.5 556,-165.5 319,-165.5"/>
<polygon fill="none" stroke="#000000" points="319,-165.5 319,-200.5 556,-200.5 556,-165.5 319,-165.5"/>
<text text-anchor="start" x="325.6992" y="-178.3" font-family="Arial Bold" font-size="18.00" fill="#000000">occupations</text>
<text text-anchor="start" x="421.7328" y="-178.3" font-family="Arial" font-size="14.00" fill="#000000">    </text>
<text text-anchor="start" x="455.9376" y="-178.3" font-family="Arial" font-size="14.00" fill="#666666">[BASE TABLE]</text>
<polygon fill="none" stroke="#000000" points="319,-135.5 319,-165.5 556,-165.5 556,-135.5 319,-135.5"/>
<text text-anchor="start" x="326" y="-146.9" font-family="Arial" font-size="14.00" fill="#000000">id </text>
<text text-anchor="start" x="340.7798" y="-146.9" font-family="Arial" font-size="14.00" fill="#666666">[int unsigned]</text>
<polygon fill="none" stroke="#000000" points="319,-105.5 319,-135.5 556,-135.5 556,-105.5 319,-105.5"/>
<text text-anchor="start" x="326" y="-116.9" font-family="Arial" font-size="14.00" fill="#000000">name </text>
<text text-anchor="start" x="364.899" y="-116.9" font-family="Arial" font-size="14.00" fill="#666666">[varchar(30)]</text>
<polygon fill="none" stroke="#000000" points="319,-75.5 319,-105.5 556,-105.5 556,-75.5 319,-75.5"/>
<text text-anchor="start" x="326" y="-86.9" font-family="Arial" font-size="14.00" fill="#000000">created_at </text>
<text text-anchor="start" x="396.028" y="-86.9" font-family="Arial" font-size="14.00" fill="#666666">[timestamp]</text>
<polygon fill="none" stroke="#000000" points="319,-45.5 319,-75.5 556,-75.5 556,-45.5 319,-45.5"/>
<text text-anchor="start" x="326" y="-56.9" font-family="Arial" font-size="14.00" fill="#000000">updated_at </text>
<text text-anchor="start" x="399.9326" y="-56.9" font-family="Arial" font-size="14.00" fill="#666666">[timestamp]</text>
<polygon fill="none" stroke="#000000" stroke-width="3" points="317,-44.5 317,-202.5 557,-202.5 557,-44.5 317,-44.5"/>
</g>
<!-- user_occupations -->
<g id="node2" class="node">
<title>user_occupations</title>
<polygon fill="#efefef" stroke="transparent" points="297,-445.5 297,-480.5 579,-480.5 579,-445.5 297,-445.5"/>
<polygon fill="none" stroke="#000000" points="297,-445.5 297,-480.5 579,-480.5 579,-445.5 297,-445.5"/>
<text text-anchor="start" x="303.6938" y="-458.3" font-family="Arial Bold" font-size="18.00" fill="#000000">user_occupations</text>
<text text-anchor="start" x="444.7382" y="-458.3" font-family="Arial" font-size="14.00" fill="#000000">    </text>
<text text-anchor="start" x="478.943" y="-458.3" font-family="Arial" font-size="14.00" fill="#666666">[BASE TABLE]</text>
<polygon fill="none" stroke="#000000" points="297,-415.5 297,-445.5 579,-445.5 579,-415.5 297,-415.5"/>
<text text-anchor="start" x="304" y="-426.9" font-family="Arial" font-size="14.00" fill="#000000">user_id    </text>
<text text-anchor="start" x="384.1024" y="-426.9" font-family="Arial" font-size="14.00" fill="#666666">[int unsigned]</text>
<polygon fill="none" stroke="#000000" points="297,-385.5 297,-415.5 579,-415.5 579,-385.5 297,-385.5"/>
<text text-anchor="start" x="304" y="-396.9" font-family="Arial" font-size="14.00" fill="#000000">occupation_id    </text>
<text text-anchor="start" x="424.5694" y="-396.9" font-family="Arial" font-size="14.00" fill="#666666">[int unsigned]</text>
<polygon fill="none" stroke="#000000" points="297,-355.5 297,-385.5 579,-385.5 579,-355.5 297,-355.5"/>
<text text-anchor="start" x="304" y="-366.9" font-family="Arial" font-size="14.00" fill="#000000">created_at    </text>
<text text-anchor="start" x="404.3422" y="-366.9" font-family="Arial" font-size="14.00" fill="#666666">[timestamp]</text>
<polygon fill="none" stroke="#000000" points="297,-325.5 297,-355.5 579,-355.5 579,-325.5 297,-325.5"/>
<text text-anchor="start" x="304" y="-336.9" font-family="Arial" font-size="14.00" fill="#000000">updated_at    </text>
<text text-anchor="start" x="408.2468" y="-336.9" font-family="Arial" font-size="14.00" fill="#666666">[timestamp]</text>
</g>
<!-- user_occupations&#45;&gt;occupations -->
<g id="edge1" class="edge">
<title>user_occupations:occupation_id&#45;&gt;occupations:id</title>
<path fill="none" stroke="#000000" d="M287.0062,-399.3821C247.3803,-389.7068 265.1204,-319.6173 297,-283 373.3121,-195.3471 479.6879,-334.6529 556,-247 584.1622,-214.6527 598.8889,-150.5 556,-150.5"/>
<polygon fill="#000000" stroke="#000000" points="287.062,-399.3882 296.4997,-404.9721 292.031,-399.9441 297,-400.5 297,-400.5 297,-400.5 292.031,-399.9441 297.5003,-396.0279 287.062,-399.3882 287.062,-399.3882"/>
<text text-anchor="start" x="7.04" y="-410.5" font-family="Arial" font-size="10.00" fill="#000000">FOREIGN KEY (occupation_id) REFERENCES occupations (id)</text>
</g>
</g>
</svg>
