<?xml version="1.0" encoding="UTF-8" standalone="no"?>
<!DOCTYPE svg PUBLIC "-//W3C//DTD SVG 1.1//EN"
 "http://www.w3.org/Graphics/SVG/1.1/DTD/svg11.dtd">
<!-- Generated by graphviz version 2.40.1 (20161225.0304)
 -->
<!-- Title: technologies Pages: 1 -->
<svg width="687pt" height="532pt"
 viewBox="0.00 0.00 686.50 532.00" xmlns="http://www.w3.org/2000/svg" xmlns:xlink="http://www.w3.org/1999/xlink">
<g id="graph0" class="graph" transform="scale(1 1) rotate(0) translate(4 528)">
<title>technologies</title>
<polygon fill="#ffffff" stroke="transparent" points="-4,4 -4,-528 682.5,-528 682.5,4 -4,4"/>
<!-- technologies -->
<g id="node1" class="node">
<title>technologies</title>
<polygon fill="#efefef" stroke="transparent" points="90.5,-165.5 90.5,-200.5 332.5,-200.5 332.5,-165.5 90.5,-165.5"/>
<polygon fill="none" stroke="#000000" points="90.5,-165.5 90.5,-200.5 332.5,-200.5 332.5,-165.5 90.5,-165.5"/>
<text text-anchor="start" x="97.199" y="-178.3" font-family="Arial Bold" font-size="18.00" fill="#000000">technologies</text>
<text text-anchor="start" x="198.233" y="-178.3" font-family="Arial" font-size="14.00" fill="#000000">    </text>
<text text-anchor="start" x="232.4378" y="-178.3" font-family="Arial" font-size="14.00" fill="#666666">[BASE TABLE]</text>
<polygon fill="none" stroke="#000000" points="90.5,-135.5 90.5,-165.5 332.5,-165.5 332.5,-135.5 90.5,-135.5"/>
<text text-anchor="start" x="97.5" y="-146.9" font-family="Arial" font-size="14.00" fill="#000000">id </text>
<text text-anchor="start" x="112.2798" y="-146.9" font-family="Arial" font-size="14.00" fill="#666666">[int unsigned]</text>
<polygon fill="none" stroke="#000000" points="90.5,-105.5 90.5,-135.5 332.5,-135.5 332.5,-105.5 90.5,-105.5"/>
<text text-anchor="start" x="97.5" y="-116.9" font-family="Arial" font-size="14.00" fill="#000000">name </text>
<text text-anchor="start" x="136.399" y="-116.9" font-family="Arial" font-size="14.00" fill="#666666">[varchar(30)]</text>
<polygon fill="none" stroke="#000000" points="90.5,-75.5 90.5,-105.5 332.5,-105.5 332.5,-75.5 90.5,-75.5"/>
<text text-anchor="start" x="97.5" y="-86.9" font-family="Arial" font-size="14.00" fill="#000000">created_at </text>
<text text-anchor="start" x="167.528" y="-86.9" font-family="Arial" font-size="14.00" fill="#666666">[timestamp]</text>
<polygon fill="none" stroke="#000000" points="90.5,-45.5 90.5,-75.5 332.5,-75.5 332.5,-45.5 90.5,-45.5"/>
<text text-anchor="start" x="97.5" y="-56.9" font-family="Arial" font-size="14.00" fill="#000000">updated_at </text>
<text text-anchor="start" x="171.4326" y="-56.9" font-family="Arial" font-size="14.00" fill="#666666">[timestamp]</text>
<polygon fill="none" stroke="#000000" stroke-width="3" points="89,-44.5 89,-202.5 334,-202.5 334,-44.5 89,-44.5"/>
</g>
<!-- work_data_technologies -->
<g id="node2" class="node">
<title>work_data_technologies</title>
<polygon fill="#efefef" stroke="transparent" points="43.5,-445.5 43.5,-480.5 378.5,-480.5 378.5,-445.5 43.5,-445.5"/>
<polygon fill="none" stroke="#000000" points="43.5,-445.5 43.5,-480.5 378.5,-480.5 378.5,-445.5 43.5,-445.5"/>
<text text-anchor="start" x="50.1861" y="-458.3" font-family="Arial Bold" font-size="18.00" fill="#000000">work_data_technologies</text>
<text text-anchor="start" x="244.2459" y="-458.3" font-family="Arial" font-size="14.00" fill="#000000">    </text>
<text text-anchor="start" x="278.4507" y="-458.3" font-family="Arial" font-size="14.00" fill="#666666">[BASE TABLE]</text>
<polygon fill="none" stroke="#000000" points="43.5,-415.5 43.5,-445.5 378.5,-445.5 378.5,-415.5 43.5,-415.5"/>
<text text-anchor="start" x="50.5" y="-426.9" font-family="Arial" font-size="14.00" fill="#000000">work_data_id    </text>
<text text-anchor="start" x="167.9474" y="-426.9" font-family="Arial" font-size="14.00" fill="#666666">[int unsigned]</text>
<polygon fill="none" stroke="#000000" points="43.5,-385.5 43.5,-415.5 378.5,-415.5 378.5,-385.5 43.5,-385.5"/>
<text text-anchor="start" x="50.5" y="-396.9" font-family="Arial" font-size="14.00" fill="#000000">technology_id    </text>
<text text-anchor="start" x="171.0694" y="-396.9" font-family="Arial" font-size="14.00" fill="#666666">[int unsigned]</text>
<polygon fill="none" stroke="#000000" points="43.5,-355.5 43.5,-385.5 378.5,-385.5 378.5,-355.5 43.5,-355.5"/>
<text text-anchor="start" x="50.5" y="-366.9" font-family="Arial" font-size="14.00" fill="#000000">created_at    </text>
<text text-anchor="start" x="150.8422" y="-366.9" font-family="Arial" font-size="14.00" fill="#666666">[timestamp]</text>
<polygon fill="none" stroke="#000000" points="43.5,-325.5 43.5,-355.5 378.5,-355.5 378.5,-325.5 43.5,-325.5"/>
<text text-anchor="start" x="50.5" y="-336.9" font-family="Arial" font-size="14.00" fill="#000000">updated_at    </text>
<text text-anchor="start" x="154.7468" y="-336.9" font-family="Arial" font-size="14.00" fill="#666666">[timestamp]</text>
</g>
<!-- work_data_technologies&#45;&gt;technologies -->
<g id="edge1" class="edge">
<title>work_data_technologies:technology_id&#45;&gt;technologies:id</title>
<path fill="none" stroke="#000000" d="M388.4976,-399.3788C428.155,-389.6758 410.6307,-319.3971 378.5,-283 293.13,-186.2944 175.87,-343.7056 90.5,-247 62.116,-214.8471 47.6111,-150.5 90.5,-150.5"/>
<polygon fill="#000000" stroke="#000000" points="388.4377,-399.3854 377.9984,-396.028 383.4689,-399.9427 378.5,-400.5 378.5,-400.5 378.5,-400.5 383.4689,-399.9427 379.0016,-404.972 388.4377,-399.3854 388.4377,-399.3854"/>
<text text-anchor="start" x="385.151" y="-410.5" font-family="Arial" font-size="10.00" fill="#000000">FOREIGN KEY (technology_id) REFERENCES technologies (id)</text>
</g>
</g>
</svg>
