<?xml version="1.0" encoding="UTF-8" standalone="no"?>
<!DOCTYPE svg PUBLIC "-//W3C//DTD SVG 1.1//EN"
 "http://www.w3.org/Graphics/SVG/1.1/DTD/svg11.dtd">
<!-- Generated by graphviz version 2.40.1 (20161225.0304)
 -->
<!-- Title: tools Pages: 1 -->
<svg width="556pt" height="532pt"
 viewBox="0.00 0.00 556.00 532.00" xmlns="http://www.w3.org/2000/svg" xmlns:xlink="http://www.w3.org/1999/xlink">
<g id="graph0" class="graph" transform="scale(1 1) rotate(0) translate(4 528)">
<title>tools</title>
<polygon fill="#ffffff" stroke="transparent" points="-4,4 -4,-528 552,-528 552,4 -4,4"/>
<!-- tools -->
<g id="node1" class="node">
<title>tools</title>
<polygon fill="#efefef" stroke="transparent" points="279,-165.5 279,-200.5 458,-200.5 458,-165.5 279,-165.5"/>
<polygon fill="none" stroke="#000000" points="279,-165.5 279,-200.5 458,-200.5 458,-165.5 279,-165.5"/>
<text text-anchor="start" x="285.7116" y="-178.3" font-family="Arial Bold" font-size="18.00" fill="#000000">tools</text>
<text text-anchor="start" x="323.7204" y="-178.3" font-family="Arial" font-size="14.00" fill="#000000">    </text>
<text text-anchor="start" x="357.9252" y="-178.3" font-family="Arial" font-size="14.00" fill="#666666">[BASE TABLE]</text>
<polygon fill="none" stroke="#000000" points="279,-135.5 279,-165.5 458,-165.5 458,-135.5 279,-135.5"/>
<text text-anchor="start" x="286" y="-146.9" font-family="Arial" font-size="14.00" fill="#000000">id </text>
<text text-anchor="start" x="300.7798" y="-146.9" font-family="Arial" font-size="14.00" fill="#666666">[int unsigned]</text>
<polygon fill="none" stroke="#000000" points="279,-105.5 279,-135.5 458,-135.5 458,-105.5 279,-105.5"/>
<text text-anchor="start" x="286" y="-116.9" font-family="Arial" font-size="14.00" fill="#000000">name </text>
<text text-anchor="start" x="324.899" y="-116.9" font-family="Arial" font-size="14.00" fill="#666666">[varchar(30)]</text>
<polygon fill="none" stroke="#000000" points="279,-75.5 279,-105.5 458,-105.5 458,-75.5 279,-75.5"/>
<text text-anchor="start" x="286" y="-86.9" font-family="Arial" font-size="14.00" fill="#000000">created_at </text>
<text text-anchor="start" x="356.028" y="-86.9" font-family="Arial" font-size="14.00" fill="#666666">[timestamp]</text>
<polygon fill="none" stroke="#000000" points="279,-45.5 279,-75.5 458,-75.5 458,-45.5 279,-45.5"/>
<text text-anchor="start" x="286" y="-56.9" font-family="Arial" font-size="14.00" fill="#000000">updated_at </text>
<text text-anchor="start" x="359.9326" y="-56.9" font-family="Arial" font-size="14.00" fill="#666666">[timestamp]</text>
<polygon fill="none" stroke="#000000" stroke-width="3" points="277,-44.5 277,-202.5 459,-202.5 459,-44.5 277,-44.5"/>
</g>
<!-- work_data_tools -->
<g id="node2" class="node">
<title>work_data_tools</title>
<polygon fill="#efefef" stroke="transparent" points="233,-445.5 233,-480.5 505,-480.5 505,-445.5 233,-445.5"/>
<polygon fill="none" stroke="#000000" points="233,-445.5 233,-480.5 505,-480.5 505,-445.5 233,-445.5"/>
<text text-anchor="start" x="239.6987" y="-458.3" font-family="Arial Bold" font-size="18.00" fill="#000000">work_data_tools</text>
<text text-anchor="start" x="370.7333" y="-458.3" font-family="Arial" font-size="14.00" fill="#000000">    </text>
<text text-anchor="start" x="404.9381" y="-458.3" font-family="Arial" font-size="14.00" fill="#666666">[BASE TABLE]</text>
<polygon fill="none" stroke="#000000" points="233,-415.5 233,-445.5 505,-445.5 505,-415.5 233,-415.5"/>
<text text-anchor="start" x="240" y="-426.9" font-family="Arial" font-size="14.00" fill="#000000">work_data_id    </text>
<text text-anchor="start" x="357.4474" y="-426.9" font-family="Arial" font-size="14.00" fill="#666666">[int unsigned]</text>
<polygon fill="none" stroke="#000000" points="233,-385.5 233,-415.5 505,-415.5 505,-385.5 233,-385.5"/>
<text text-anchor="start" x="240" y="-396.9" font-family="Arial" font-size="14.00" fill="#000000">tool_id    </text>
<text text-anchor="start" x="315.439" y="-396.9" font-family="Arial" font-size="14.00" fill="#666666">[int unsigned]</text>
<polygon fill="none" stroke="#000000" points="233,-355.5 233,-385.5 505,-385.5 505,-355.5 233,-355.5"/>
<text text-anchor="start" x="240" y="-366.9" font-family="Arial" font-size="14.00" fill="#000000">created_at    </text>
<text text-anchor="start" x="340.3422" y="-366.9" font-family="Arial" font-size="14.00" fill="#666666">[timestamp]</text>
<polygon fill="none" stroke="#000000" points="233,-325.5 233,-355.5 505,-355.5 505,-325.5 233,-325.5"/>
<text text-anchor="start" x="240" y="-336.9" font-family="Arial" font-size="14.00" fill="#000000">updated_at    </text>
<text text-anchor="start" x="344.2468" y="-336.9" font-family="Arial" font-size="14.00" fill="#666666">[timestamp]</text>
</g>
<!-- work_data_tools&#45;&gt;tools -->
<g id="edge1" class="edge">
<title>work_data_tools:tool_id&#45;&gt;tools:id</title>
<path fill="none" stroke="#000000" d="M223.0118,-399.3869C183.4334,-389.7525 201.4982,-319.9428 233,-283 298.7102,-205.9404 392.2898,-324.0596 458,-247 485.8284,-214.3651 500.8889,-150.5 458,-150.5"/>
<polygon fill="#000000" stroke="#000000" points="223.0615,-399.3924 232.5016,-404.9723 228.0308,-399.9462 233,-400.5 233,-400.5 233,-400.5 228.0308,-399.9462 233.4984,-396.0277 223.0615,-399.3924 223.0615,-399.3924"/>
<text text-anchor="start" x="7.276" y="-410.5" font-family="Arial" font-size="10.00" fill="#000000">FOREIGN KEY (tool_id) REFERENCES tools (id)</text>
</g>
</g>
</svg>
