<?xml version="1.0" encoding="UTF-8" standalone="no"?>
<!DOCTYPE svg PUBLIC "-//W3C//DTD SVG 1.1//EN"
 "http://www.w3.org/Graphics/SVG/1.1/DTD/svg11.dtd">
<!-- Generated by graphviz version 2.40.1 (20161225.0304)
 -->
<!-- Title: user_urls Pages: 1 -->
<svg width="545pt" height="892pt"
 viewBox="0.00 0.00 544.50 892.00" xmlns="http://www.w3.org/2000/svg" xmlns:xlink="http://www.w3.org/1999/xlink">
<g id="graph0" class="graph" transform="scale(1 1) rotate(0) translate(4 888)">
<title>user_urls</title>
<polygon fill="#ffffff" stroke="transparent" points="-4,4 -4,-888 540.5,-888 540.5,4 -4,4"/>
<!-- user_urls -->
<g id="node1" class="node">
<title>user_urls</title>
<polygon fill="#efefef" stroke="transparent" points="240,-802.5 240,-837.5 455,-837.5 455,-802.5 240,-802.5"/>
<polygon fill="none" stroke="#000000" points="240,-802.5 240,-837.5 455,-837.5 455,-802.5 240,-802.5"/>
<text text-anchor="start" x="246.7143" y="-815.3" font-family="Arial Bold" font-size="18.00" fill="#000000">user_urls</text>
<text text-anchor="start" x="320.7177" y="-815.3" font-family="Arial" font-size="14.00" fill="#000000">    </text>
<text text-anchor="start" x="354.9225" y="-815.3" font-family="Arial" font-size="14.00" fill="#666666">[BASE TABLE]</text>
<polygon fill="none" stroke="#000000" points="240,-772.5 240,-802.5 455,-802.5 455,-772.5 240,-772.5"/>
<text text-anchor="start" x="247" y="-783.9" font-family="Arial" font-size="14.00" fill="#000000">id </text>
<text text-anchor="start" x="261.7798" y="-783.9" font-family="Arial" font-size="14.00" fill="#666666">[int unsigned]</text>
<polygon fill="none" stroke="#000000" points="240,-742.5 240,-772.5 455,-772.5 455,-742.5 240,-742.5"/>
<text text-anchor="start" x="247" y="-753.9" font-family="Arial" font-size="14.00" fill="#000000">user_id </text>
<text text-anchor="start" x="296.7882" y="-753.9" font-family="Arial" font-size="14.00" fill="#666666">[int unsigned]</text>
<polygon fill="none" stroke="#000000" points="240,-712.5 240,-742.5 455,-742.5 455,-712.5 240,-712.5"/>
<text text-anchor="start" x="247" y="-723.9" font-family="Arial" font-size="14.00" fill="#000000">url_name </text>
<text text-anchor="start" x="309.2314" y="-723.9" font-family="Arial" font-size="14.00" fill="#666666">[varchar(30)]</text>
<polygon fill="none" stroke="#000000" points="240,-682.5 240,-712.5 455,-712.5 455,-682.5 240,-682.5"/>
<text text-anchor="start" x="247" y="-693.9" font-family="Arial" font-size="14.00" fill="#000000">url </text>
<text text-anchor="start" x="266.4404" y="-693.9" font-family="Arial" font-size="14.00" fill="#666666">[varchar(255)]</text>
<polygon fill="none" stroke="#000000" points="240,-652.5 240,-682.5 455,-682.5 455,-652.5 240,-652.5"/>
<text text-anchor="start" x="247" y="-663.9" font-family="Arial" font-size="14.00" fill="#000000">created_at </text>
<text text-anchor="start" x="317.028" y="-663.9" font-family="Arial" font-size="14.00" fill="#666666">[timestamp]</text>
<polygon fill="none" stroke="#000000" points="240,-622.5 240,-652.5 455,-652.5 455,-622.5 240,-622.5"/>
<text text-anchor="start" x="247" y="-633.9" font-family="Arial" font-size="14.00" fill="#000000">updated_at </text>
<text text-anchor="start" x="320.9326" y="-633.9" font-family="Arial" font-size="14.00" fill="#666666">[timestamp]</text>
<polygon fill="none" stroke="#000000" stroke-width="3" points="238,-621.5 238,-839.5 456,-839.5 456,-621.5 238,-621.5"/>
</g>
<!-- users -->
<g id="node2" class="node">
<title>users</title>
<polygon fill="#efefef" stroke="transparent" points="201,-462.5 201,-497.5 494,-497.5 494,-462.5 201,-462.5"/>
<polygon fill="none" stroke="#000000" points="201,-462.5 201,-497.5 494,-497.5 494,-462.5 201,-462.5"/>
<text text-anchor="start" x="261.7137" y="-475.3" font-family="Arial Bold" font-size="18.00" fill="#000000">users</text>
<text text-anchor="start" x="305.7183" y="-475.3" font-family="Arial" font-size="14.00" fill="#000000">    </text>
<text text-anchor="start" x="339.9231" y="-475.3" font-family="Arial" font-size="14.00" fill="#666666">[BASE TABLE]</text>
<polygon fill="none" stroke="#000000" points="201,-432.5 201,-462.5 494,-462.5 494,-432.5 201,-432.5"/>
<text text-anchor="start" x="208" y="-443.9" font-family="Arial" font-size="14.00" fill="#000000">id    </text>
<text text-anchor="start" x="253.094" y="-443.9" font-family="Arial" font-size="14.00" fill="#666666">[int unsigned]</text>
<polygon fill="none" stroke="#000000" points="201,-402.5 201,-432.5 494,-432.5 494,-402.5 201,-402.5"/>
<text text-anchor="start" x="208" y="-413.9" font-family="Arial" font-size="14.00" fill="#000000">firebase_uid    </text>
<text text-anchor="start" x="318.4474" y="-413.9" font-family="Arial" font-size="14.00" fill="#666666">[varchar(255)]</text>
<polygon fill="none" stroke="#000000" points="201,-372.5 201,-402.5 494,-402.5 494,-372.5 201,-372.5"/>
<text text-anchor="start" x="208" y="-383.9" font-family="Arial" font-size="14.00" fill="#000000">email    </text>
<text text-anchor="start" x="275.6438" y="-383.9" font-family="Arial" font-size="14.00" fill="#666666">[varchar(255)]</text>
<polygon fill="none" stroke="#000000" points="201,-342.5 201,-372.5 494,-372.5 494,-342.5 201,-342.5"/>
<text text-anchor="start" x="208" y="-353.9" font-family="Arial" font-size="14.00" fill="#000000">username    </text>
<text text-anchor="start" x="304.439" y="-353.9" font-family="Arial" font-size="14.00" fill="#666666">[varchar(50)]</text>
<polygon fill="none" stroke="#000000" points="201,-312.5 201,-342.5 494,-342.5 494,-312.5 201,-312.5"/>
<text text-anchor="start" x="208" y="-323.9" font-family="Arial" font-size="14.00" fill="#000000">affiliation_id    </text>
<text text-anchor="start" x="316.1052" y="-323.9" font-family="Arial" font-size="14.00" fill="#666666">[int unsigned]</text>
<polygon fill="none" stroke="#000000" points="201,-282.5 201,-312.5 494,-312.5 494,-282.5 201,-282.5"/>
<text text-anchor="start" x="208" y="-293.9" font-family="Arial" font-size="14.00" fill="#000000">enrollment_year    </text>
<text text-anchor="start" x="342.5512" y="-293.9" font-family="Arial" font-size="14.00" fill="#666666">[int]</text>
<polygon fill="none" stroke="#000000" points="201,-252.5 201,-282.5 494,-282.5 494,-252.5 201,-252.5"/>
<text text-anchor="start" x="208" y="-263.9" font-family="Arial" font-size="14.00" fill="#000000">graduation_year    </text>
<text text-anchor="start" x="343.3492" y="-263.9" font-family="Arial" font-size="14.00" fill="#666666">[int]</text>
<polygon fill="none" stroke="#000000" points="201,-222.5 201,-252.5 494,-252.5 494,-222.5 201,-222.5"/>
<text text-anchor="start" x="208" y="-233.9" font-family="Arial" font-size="14.00" fill="#000000">is_job_hunt_completed    </text>
<text text-anchor="start" x="386.1402" y="-233.9" font-family="Arial" font-size="14.00" fill="#666666">[tinyint(1)]</text>
<polygon fill="none" stroke="#000000" points="201,-192.5 201,-222.5 494,-222.5 494,-192.5 201,-192.5"/>
<text text-anchor="start" x="208" y="-203.9" font-family="Arial" font-size="14.00" fill="#000000">self_introduction    </text>
<text text-anchor="start" x="344.1178" y="-203.9" font-family="Arial" font-size="14.00" fill="#666666">[text]</text>
<polygon fill="none" stroke="#000000" points="201,-162.5 201,-192.5 494,-192.5 494,-162.5 201,-162.5"/>
<text text-anchor="start" x="208" y="-173.9" font-family="Arial" font-size="14.00" fill="#000000">icon_url    </text>
<text text-anchor="start" x="291.209" y="-173.9" font-family="Arial" font-size="14.00" fill="#666666">[varchar(255)]</text>
<polygon fill="none" stroke="#000000" points="201,-132.5 201,-162.5 494,-162.5 494,-132.5 201,-132.5"/>
<text text-anchor="start" x="207.8738" y="-143.9" font-family="Arial" font-size="14.00" fill="#000000">show_profile_in_public_event    </text>
<text text-anchor="start" x="425.6816" y="-143.9" font-family="Arial" font-size="14.00" fill="#666666">[tinyint(1)]</text>
<polygon fill="none" stroke="#000000" points="201,-102.5 201,-132.5 494,-132.5 494,-102.5 201,-102.5"/>
<text text-anchor="start" x="208" y="-113.9" font-family="Arial" font-size="14.00" fill="#000000">show_profile_in_shared_url    </text>
<text text-anchor="start" x="413.3492" y="-113.9" font-family="Arial" font-size="14.00" fill="#666666">[tinyint(1)]</text>
<polygon fill="none" stroke="#000000" points="201,-72.5 201,-102.5 494,-102.5 494,-72.5 201,-72.5"/>
<text text-anchor="start" x="208" y="-83.9" font-family="Arial" font-size="14.00" fill="#000000">created_at    </text>
<text text-anchor="start" x="308.3422" y="-83.9" font-family="Arial" font-size="14.00" fill="#666666">[timestamp]</text>
<polygon fill="none" stroke="#000000" points="201,-42.5 201,-72.5 494,-72.5 494,-42.5 201,-42.5"/>
<text text-anchor="start" x="208" y="-53.9" font-family="Arial" font-size="14.00" fill="#000000">updated_at    </text>
<text text-anchor="start" x="312.2468" y="-53.9" font-family="Arial" font-size="14.00" fill="#666666">[timestamp]</text>
</g>
<!-- user_urls&#45;&gt;users -->
<g id="edge1" class="edge">
<title>user_urls:user_id&#45;&gt;users:id</title>
<path fill="none" stroke="#000000" d="M230.0561,-755.3549C167.018,-727.9657 134.9583,-447.5 201,-447.5"/>
<polygon fill="#000000" stroke="#000000" points="230.2249,-755.3912 239.051,-761.8988 235.1124,-756.4456 240,-757.5 240,-757.5 240,-757.5 235.1124,-756.4456 240.949,-753.1012 230.2249,-755.3912 230.2249,-755.3912"/>
<text text-anchor="start" x="6.945" y="-767.5" font-family="Arial" font-size="10.00" fill="#000000">FOREIGN KEY (user_id) REFERENCES users (id)</text>
</g>
</g>
</svg>
