<?xml version="1.0" encoding="UTF-8" standalone="no"?>
<!DOCTYPE svg PUBLIC "-//W3C//DTD SVG 1.1//EN"
 "http://www.w3.org/Graphics/SVG/1.1/DTD/svg11.dtd">
<!-- Generated by graphviz version 2.40.1 (20161225.0304)
 -->
<!-- Title: user_occupations Pages: 1 -->
<svg width="827pt" height="832pt"
 viewBox="0.00 0.00 827.00 832.00" xmlns="http://www.w3.org/2000/svg" xmlns:xlink="http://www.w3.org/1999/xlink">
<g id="graph0" class="graph" transform="scale(1 1) rotate(0) translate(4 828)">
<title>user_occupations</title>
<polygon fill="#ffffff" stroke="transparent" points="-4,4 -4,-828 823,-828 823,4 -4,4"/>
<!-- user_occupations -->
<g id="node1" class="node">
<title>user_occupations</title>
<polygon fill="#efefef" stroke="transparent" points="240,-742.5 240,-777.5 522,-777.5 522,-742.5 240,-742.5"/>
<polygon fill="none" stroke="#000000" points="240,-742.5 240,-777.5 522,-777.5 522,-742.5 240,-742.5"/>
<text text-anchor="start" x="246.6938" y="-755.3" font-family="Arial Bold" font-size="18.00" fill="#000000">user_occupations</text>
<text text-anchor="start" x="387.7382" y="-755.3" font-family="Arial" font-size="14.00" fill="#000000">    </text>
<text text-anchor="start" x="421.943" y="-755.3" font-family="Arial" font-size="14.00" fill="#666666">[BASE TABLE]</text>
<polygon fill="none" stroke="#000000" points="240,-712.5 240,-742.5 522,-742.5 522,-712.5 240,-712.5"/>
<text text-anchor="start" x="247" y="-723.9" font-family="Arial" font-size="14.00" fill="#000000">user_id </text>
<text text-anchor="start" x="296.7882" y="-723.9" font-family="Arial" font-size="14.00" fill="#666666">[int unsigned]</text>
<polygon fill="none" stroke="#000000" points="240,-682.5 240,-712.5 522,-712.5 522,-682.5 240,-682.5"/>
<text text-anchor="start" x="247" y="-693.9" font-family="Arial" font-size="14.00" fill="#000000">occupation_id </text>
<text text-anchor="start" x="337.2552" y="-693.9" font-family="Arial" font-size="14.00" fill="#666666">[int unsigned]</text>
<polygon fill="none" stroke="#000000" points="240,-652.5 240,-682.5 522,-682.5 522,-652.5 240,-652.5"/>
<text text-anchor="start" x="247" y="-663.9" font-family="Arial" font-size="14.00" fill="#000000">created_at </text>
<text text-anchor="start" x="317.028" y="-663.9" font-family="Arial" font-size="14.00" fill="#666666">[timestamp]</text>
<polygon fill="none" stroke="#000000" points="240,-622.5 240,-652.5 522,-652.5 522,-622.5 240,-622.5"/>
<text text-anchor="start" x="247" y="-633.9" font-family="Arial" font-size="14.00" fill="#000000">updated_at </text>
<text text-anchor="start" x="320.9326" y="-633.9" font-family="Arial" font-size="14.00" fill="#666666">[timestamp]</text>
<polygon fill="none" stroke="#000000" stroke-width="3" points="238.5,-621.5 238.5,-779.5 523.5,-779.5 523.5,-621.5 238.5,-621.5"/>
</g>
<!-- users -->
<g id="node2" class="node">
<title>users</title>
<polygon fill="#efefef" stroke="transparent" points="50,-462.5 50,-497.5 343,-497.5 343,-462.5 50,-462.5"/>
<polygon fill="none" stroke="#000000" points="50,-462.5 50,-497.5 343,-497.5 343,-462.5 50,-462.5"/>
<text text-anchor="start" x="110.7137" y="-475.3" font-family="Arial Bold" font-size="18.00" fill="#000000">users</text>
<text text-anchor="start" x="154.7183" y="-475.3" font-family="Arial" font-size="14.00" fill="#000000">    </text>
<text text-anchor="start" x="188.9231" y="-475.3" font-family="Arial" font-size="14.00" fill="#666666">[BASE TABLE]</text>
<polygon fill="none" stroke="#000000" points="50,-432.5 50,-462.5 343,-462.5 343,-432.5 50,-432.5"/>
<text text-anchor="start" x="57" y="-443.9" font-family="Arial" font-size="14.00" fill="#000000">id    </text>
<text text-anchor="start" x="102.094" y="-443.9" font-family="Arial" font-size="14.00" fill="#666666">[int unsigned]</text>
<polygon fill="none" stroke="#000000" points="50,-402.5 50,-432.5 343,-432.5 343,-402.5 50,-402.5"/>
<text text-anchor="start" x="57" y="-413.9" font-family="Arial" font-size="14.00" fill="#000000">firebase_uid    </text>
<text text-anchor="start" x="167.4474" y="-413.9" font-family="Arial" font-size="14.00" fill="#666666">[varchar(255)]</text>
<polygon fill="none" stroke="#000000" points="50,-372.5 50,-402.5 343,-402.5 343,-372.5 50,-372.5"/>
<text text-anchor="start" x="57" y="-383.9" font-family="Arial" font-size="14.00" fill="#000000">email    </text>
<text text-anchor="start" x="124.6438" y="-383.9" font-family="Arial" font-size="14.00" fill="#666666">[varchar(255)]</text>
<polygon fill="none" stroke="#000000" points="50,-342.5 50,-372.5 343,-372.5 343,-342.5 50,-342.5"/>
<text text-anchor="start" x="57" y="-353.9" font-family="Arial" font-size="14.00" fill="#000000">username    </text>
<text text-anchor="start" x="153.439" y="-353.9" font-family="Arial" font-size="14.00" fill="#666666">[varchar(50)]</text>
<polygon fill="none" stroke="#000000" points="50,-312.5 50,-342.5 343,-342.5 343,-312.5 50,-312.5"/>
<text text-anchor="start" x="57" y="-323.9" font-family="Arial" font-size="14.00" fill="#000000">affiliation_id    </text>
<text text-anchor="start" x="165.1052" y="-323.9" font-family="Arial" font-size="14.00" fill="#666666">[int unsigned]</text>
<polygon fill="none" stroke="#000000" points="50,-282.5 50,-312.5 343,-312.5 343,-282.5 50,-282.5"/>
<text text-anchor="start" x="57" y="-293.9" font-family="Arial" font-size="14.00" fill="#000000">enrollment_year    </text>
<text text-anchor="start" x="191.5512" y="-293.9" font-family="Arial" font-size="14.00" fill="#666666">[int]</text>
<polygon fill="none" stroke="#000000" points="50,-252.5 50,-282.5 343,-282.5 343,-252.5 50,-252.5"/>
<text text-anchor="start" x="57" y="-263.9" font-family="Arial" font-size="14.00" fill="#000000">graduation_year    </text>
<text text-anchor="start" x="192.3492" y="-263.9" font-family="Arial" font-size="14.00" fill="#666666">[int]</text>
<polygon fill="none" stroke="#000000" points="50,-222.5 50,-252.5 343,-252.5 343,-222.5 50,-222.5"/>
<text text-anchor="start" x="57" y="-233.9" font-family="Arial" font-size="14.00" fill="#000000">is_job_hunt_completed    </text>
<text text-anchor="start" x="235.1402" y="-233.9" font-family="Arial" font-size="14.00" fill="#666666">[tinyint(1)]</text>
<polygon fill="none" stroke="#000000" points="50,-192.5 50,-222.5 343,-222.5 343,-192.5 50,-192.5"/>
<text text-anchor="start" x="57" y="-203.9" font-family="Arial" font-size="14.00" fill="#000000">self_introduction    </text>
<text text-anchor="start" x="193.1178" y="-203.9" font-family="Arial" font-size="14.00" fill="#666666">[text]</text>
<polygon fill="none" stroke="#000000" points="50,-162.5 50,-192.5 343,-192.5 343,-162.5 50,-162.5"/>
<text text-anchor="start" x="57" y="-173.9" font-family="Arial" font-size="14.00" fill="#000000">icon_url    </text>
<text text-anchor="start" x="140.209" y="-173.9" font-family="Arial" font-size="14.00" fill="#666666">[varchar(255)]</text>
<polygon fill="none" stroke="#000000" points="50,-132.5 50,-162.5 343,-162.5 343,-132.5 50,-132.5"/>
<text text-anchor="start" x="56.8738" y="-143.9" font-family="Arial" font-size="14.00" fill="#000000">show_profile_in_public_event    </text>
<text text-anchor="start" x="274.6816" y="-143.9" font-family="Arial" font-size="14.00" fill="#666666">[tinyint(1)]</text>
<polygon fill="none" stroke="#000000" points="50,-102.5 50,-132.5 343,-132.5 343,-102.5 50,-102.5"/>
<text text-anchor="start" x="57" y="-113.9" font-family="Arial" font-size="14.00" fill="#000000">show_profile_in_shared_url    </text>
<text text-anchor="start" x="262.3492" y="-113.9" font-family="Arial" font-size="14.00" fill="#666666">[tinyint(1)]</text>
<polygon fill="none" stroke="#000000" points="50,-72.5 50,-102.5 343,-102.5 343,-72.5 50,-72.5"/>
<text text-anchor="start" x="57" y="-83.9" font-family="Arial" font-size="14.00" fill="#000000">created_at    </text>
<text text-anchor="start" x="157.3422" y="-83.9" font-family="Arial" font-size="14.00" fill="#666666">[timestamp]</text>
<polygon fill="none" stroke="#000000" points="50,-42.5 50,-72.5 343,-72.5 343,-42.5 50,-42.5"/>
<text text-anchor="start" x="57" y="-53.9" font-family="Arial" font-size="14.00" fill="#000000">updated_at    </text>
<text text-anchor="start" x="161.2468" y="-53.9" font-family="Arial" font-size="14.00" fill="#666666">[timestamp]</text>
</g>
<!-- user_occupations&#45;&gt;users -->
<g id="edge1" class="edge">
<title>user_occupations:user_id&#45;&gt;users:id</title>
<path fill="none" stroke="#000000" d="M229.8651,-726.6615C176.224,-717.1288 203.4009,-628.5621 240,-577 268.0688,-537.4557 314.9312,-580.5443 343,-541 367.0531,-507.1132 384.5556,-447.5 343,-447.5"/>
<polygon fill="#000000" stroke="#000000" points="230.034,-726.6754 239.6289,-731.9847 235.017,-727.0877 240,-727.5 240,-727.5 240,-727.5 235.017,-727.0877 240.3711,-723.0153 230.034,-726.6754 230.034,-726.6754"/>
<text text-anchor="start" x="6.945" y="-737.5" font-family="Arial" font-size="10.00" fill="#000000">FOREIGN KEY (user_id) REFERENCES users (id)</text>
</g>
<!-- occupations -->
<g id="node3" class="node">
<title>occupations</title>
<polygon fill="#efefef" stroke="transparent" points="447,-312.5 447,-347.5 684,-347.5 684,-312.5 447,-312.5"/>
<polygon fill="none" stroke="#000000" points="447,-312.5 447,-347.5 684,-347.5 684,-312.5 447,-312.5"/>
<text text-anchor="start" x="453.6992" y="-325.3" font-family="Arial Bold" font-size="18.00" fill="#000000">occupations</text>
<text text-anchor="start" x="549.7328" y="-325.3" font-family="Arial" font-size="14.00" fill="#000000">    </text>
<text text-anchor="start" x="583.9376" y="-325.3" font-family="Arial" font-size="14.00" fill="#666666">[BASE TABLE]</text>
<polygon fill="none" stroke="#000000" points="447,-282.5 447,-312.5 684,-312.5 684,-282.5 447,-282.5"/>
<text text-anchor="start" x="454" y="-293.9" font-family="Arial" font-size="14.00" fill="#000000">id    </text>
<text text-anchor="start" x="499.094" y="-293.9" font-family="Arial" font-size="14.00" fill="#666666">[int unsigned]</text>
<polygon fill="none" stroke="#000000" points="447,-252.5 447,-282.5 684,-282.5 684,-252.5 447,-252.5"/>
<text text-anchor="start" x="454" y="-263.9" font-family="Arial" font-size="14.00" fill="#000000">name    </text>
<text text-anchor="start" x="523.2132" y="-263.9" font-family="Arial" font-size="14.00" fill="#666666">[varchar(30)]</text>
<polygon fill="none" stroke="#000000" points="447,-222.5 447,-252.5 684,-252.5 684,-222.5 447,-222.5"/>
<text text-anchor="start" x="454" y="-233.9" font-family="Arial" font-size="14.00" fill="#000000">created_at    </text>
<text text-anchor="start" x="554.3422" y="-233.9" font-family="Arial" font-size="14.00" fill="#666666">[timestamp]</text>
<polygon fill="none" stroke="#000000" points="447,-192.5 447,-222.5 684,-222.5 684,-192.5 447,-192.5"/>
<text text-anchor="start" x="454" y="-203.9" font-family="Arial" font-size="14.00" fill="#000000">updated_at    </text>
<text text-anchor="start" x="558.2468" y="-203.9" font-family="Arial" font-size="14.00" fill="#666666">[timestamp]</text>
</g>
<!-- user_occupations&#45;&gt;occupations -->
<g id="edge2" class="edge">
<title>user_occupations:occupation_id&#45;&gt;occupations:id</title>
<path fill="none" stroke="#000000" d="M532.3595,-697.0022C685.2219,-681.262 269.8336,-297.5 447,-297.5"/>
<polygon fill="#000000" stroke="#000000" points="531.9885,-697.02 521.784,-693.0052 526.9942,-697.26 522,-697.5 522,-697.5 522,-697.5 526.9942,-697.26 522.216,-701.9948 531.9885,-697.02 531.9885,-697.02"/>
<text text-anchor="start" x="529.04" y="-707.5" font-family="Arial" font-size="10.00" fill="#000000">FOREIGN KEY (occupation_id) REFERENCES occupations (id)</text>
</g>
</g>
</svg>
