<?xml version="1.0" encoding="UTF-8" standalone="no"?>
<!DOCTYPE svg PUBLIC "-//W3C//DTD SVG 1.1//EN"
 "http://www.w3.org/Graphics/SVG/1.1/DTD/svg11.dtd">
<!-- Generated by graphviz version 2.40.1 (20161225.0304)
 -->
<!-- Title: users Pages: 1 -->
<svg width="1839pt" height="1169pt"
 viewBox="0.00 0.00 1838.50 1169.00" xmlns="http://www.w3.org/2000/svg" xmlns:xlink="http://www.w3.org/1999/xlink">
<g id="graph0" class="graph" transform="scale(1 1) rotate(0) translate(4 1165)">
<title>users</title>
<polygon fill="#ffffff" stroke="transparent" points="-4,4 -4,-1165 1834.5,-1165 1834.5,4 -4,4"/>
<!-- users -->
<g id="node1" class="node">
<title>users</title>
<polygon fill="#efefef" stroke="transparent" points="813.5,-742.5 813.5,-777.5 1075.5,-777.5 1075.5,-742.5 813.5,-742.5"/>
<polygon fill="none" stroke="#000000" points="813.5,-742.5 813.5,-777.5 1075.5,-777.5 1075.5,-742.5 813.5,-742.5"/>
<text text-anchor="start" x="858.7137" y="-755.3" font-family="Arial Bold" font-size="18.00" fill="#000000">users</text>
<text text-anchor="start" x="902.7183" y="-755.3" font-family="Arial" font-size="14.00" fill="#000000">    </text>
<text text-anchor="start" x="936.9231" y="-755.3" font-family="Arial" font-size="14.00" fill="#666666">[BASE TABLE]</text>
<polygon fill="none" stroke="#000000" points="813.5,-712.5 813.5,-742.5 1075.5,-742.5 1075.5,-712.5 813.5,-712.5"/>
<text text-anchor="start" x="820.5" y="-723.9" font-family="Arial" font-size="14.00" fill="#000000">id </text>
<text text-anchor="start" x="835.2798" y="-723.9" font-family="Arial" font-size="14.00" fill="#666666">[int unsigned]</text>
<polygon fill="none" stroke="#000000" points="813.5,-682.5 813.5,-712.5 1075.5,-712.5 1075.5,-682.5 813.5,-682.5"/>
<text text-anchor="start" x="820.5" y="-693.9" font-family="Arial" font-size="14.00" fill="#000000">firebase_uid </text>
<text text-anchor="start" x="900.6332" y="-693.9" font-family="Arial" font-size="14.00" fill="#666666">[varchar(255)]</text>
<polygon fill="none" stroke="#000000" points="813.5,-652.5 813.5,-682.5 1075.5,-682.5 1075.5,-652.5 813.5,-652.5"/>
<text text-anchor="start" x="820.5" y="-663.9" font-family="Arial" font-size="14.00" fill="#000000">email </text>
<text text-anchor="start" x="857.8296" y="-663.9" font-family="Arial" font-size="14.00" fill="#666666">[varchar(255)]</text>
<polygon fill="none" stroke="#000000" points="813.5,-622.5 813.5,-652.5 1075.5,-652.5 1075.5,-622.5 813.5,-622.5"/>
<text text-anchor="start" x="820.5" y="-633.9" font-family="Arial" font-size="14.00" fill="#000000">username </text>
<text text-anchor="start" x="886.6248" y="-633.9" font-family="Arial" font-size="14.00" fill="#666666">[varchar(50)]</text>
<polygon fill="none" stroke="#000000" points="813.5,-592.5 813.5,-622.5 1075.5,-622.5 1075.5,-592.5 813.5,-592.5"/>
<text text-anchor="start" x="820.5" y="-603.9" font-family="Arial" font-size="14.00" fill="#000000">affiliation_id </text>
<text text-anchor="start" x="898.291" y="-603.9" font-family="Arial" font-size="14.00" fill="#666666">[int unsigned]</text>
<polygon fill="none" stroke="#000000" points="813.5,-562.5 813.5,-592.5 1075.5,-592.5 1075.5,-562.5 813.5,-562.5"/>
<text text-anchor="start" x="820.5" y="-573.9" font-family="Arial" font-size="14.00" fill="#000000">enrollment_year </text>
<text text-anchor="start" x="924.737" y="-573.9" font-family="Arial" font-size="14.00" fill="#666666">[int]</text>
<polygon fill="none" stroke="#000000" points="813.5,-532.5 813.5,-562.5 1075.5,-562.5 1075.5,-532.5 813.5,-532.5"/>
<text text-anchor="start" x="820.5" y="-543.9" font-family="Arial" font-size="14.00" fill="#000000">graduation_year </text>
<text text-anchor="start" x="925.535" y="-543.9" font-family="Arial" font-size="14.00" fill="#666666">[int]</text>
<polygon fill="none" stroke="#000000" points="813.5,-502.5 813.5,-532.5 1075.5,-532.5 1075.5,-502.5 813.5,-502.5"/>
<text text-anchor="start" x="820.5" y="-513.9" font-family="Arial" font-size="14.00" fill="#000000">is_job_hunt_completed </text>
<text text-anchor="start" x="968.326" y="-513.9" font-family="Arial" font-size="14.00" fill="#666666">[tinyint(1)]</text>
<polygon fill="none" stroke="#000000" points="813.5,-472.5 813.5,-502.5 1075.5,-502.5 1075.5,-472.5 813.5,-472.5"/>
<text text-anchor="start" x="820.5" y="-483.9" font-family="Arial" font-size="14.00" fill="#000000">self_introduction </text>
<text text-anchor="start" x="926.3036" y="-483.9" font-family="Arial" font-size="14.00" fill="#666666">[text]</text>
<polygon fill="none" stroke="#000000" points="813.5,-442.5 813.5,-472.5 1075.5,-472.5 1075.5,-442.5 813.5,-442.5"/>
<text text-anchor="start" x="820.5" y="-453.9" font-family="Arial" font-size="14.00" fill="#000000">icon_url </text>
<text text-anchor="start" x="873.3948" y="-453.9" font-family="Arial" font-size="14.00" fill="#666666">[varchar(255)]</text>
<polygon fill="none" stroke="#000000" points="813.5,-412.5 813.5,-442.5 1075.5,-442.5 1075.5,-412.5 813.5,-412.5"/>
<text text-anchor="start" x="820.0309" y="-423.9" font-family="Arial" font-size="14.00" fill="#000000">show_profile_in_public_event </text>
<text text-anchor="start" x="1007.5245" y="-423.9" font-family="Arial" font-size="14.00" fill="#666666">[tinyint(1)]</text>
<polygon fill="none" stroke="#000000" points="813.5,-382.5 813.5,-412.5 1075.5,-412.5 1075.5,-382.5 813.5,-382.5"/>
<text text-anchor="start" x="820.5" y="-393.9" font-family="Arial" font-size="14.00" fill="#000000">show_profile_in_shared_url </text>
<text text-anchor="start" x="995.535" y="-393.9" font-family="Arial" font-size="14.00" fill="#666666">[tinyint(1)]</text>
<polygon fill="none" stroke="#000000" points="813.5,-352.5 813.5,-382.5 1075.5,-382.5 1075.5,-352.5 813.5,-352.5"/>
<text text-anchor="start" x="820.5" y="-363.9" font-family="Arial" font-size="14.00" fill="#000000">created_at </text>
<text text-anchor="start" x="890.528" y="-363.9" font-family="Arial" font-size="14.00" fill="#666666">[timestamp]</text>
<polygon fill="none" stroke="#000000" points="813.5,-322.5 813.5,-352.5 1075.5,-352.5 1075.5,-322.5 813.5,-322.5"/>
<text text-anchor="start" x="820.5" y="-333.9" font-family="Arial" font-size="14.00" fill="#000000">updated_at </text>
<text text-anchor="start" x="894.4326" y="-333.9" font-family="Arial" font-size="14.00" fill="#666666">[timestamp]</text>
<polygon fill="none" stroke="#000000" stroke-width="3" points="812,-321.5 812,-779.5 1077,-779.5 1077,-321.5 812,-321.5"/>
</g>
<!-- affiliations -->
<g id="node7" class="node">
<title>affiliations</title>
<polygon fill="#efefef" stroke="transparent" points="833.5,-162.5 833.5,-197.5 1054.5,-197.5 1054.5,-162.5 833.5,-162.5"/>
<polygon fill="none" stroke="#000000" points="833.5,-162.5 833.5,-197.5 1054.5,-197.5 1054.5,-162.5 833.5,-162.5"/>
<text text-anchor="start" x="840.2119" y="-175.3" font-family="Arial Bold" font-size="18.00" fill="#000000">affiliations</text>
<text text-anchor="start" x="920.2201" y="-175.3" font-family="Arial" font-size="14.00" fill="#000000">    </text>
<text text-anchor="start" x="954.4249" y="-175.3" font-family="Arial" font-size="14.00" fill="#666666">[BASE TABLE]</text>
<polygon fill="none" stroke="#000000" points="833.5,-132.5 833.5,-162.5 1054.5,-162.5 1054.5,-132.5 833.5,-132.5"/>
<text text-anchor="start" x="840.5" y="-143.9" font-family="Arial" font-size="14.00" fill="#000000">id    </text>
<text text-anchor="start" x="885.594" y="-143.9" font-family="Arial" font-size="14.00" fill="#666666">[int unsigned]</text>
<polygon fill="none" stroke="#000000" points="833.5,-102.5 833.5,-132.5 1054.5,-132.5 1054.5,-102.5 833.5,-102.5"/>
<text text-anchor="start" x="840.5" y="-113.9" font-family="Arial" font-size="14.00" fill="#000000">name    </text>
<text text-anchor="start" x="909.7132" y="-113.9" font-family="Arial" font-size="14.00" fill="#666666">[varchar(30)]</text>
<polygon fill="none" stroke="#000000" points="833.5,-72.5 833.5,-102.5 1054.5,-102.5 1054.5,-72.5 833.5,-72.5"/>
<text text-anchor="start" x="840.5" y="-83.9" font-family="Arial" font-size="14.00" fill="#000000">created_at    </text>
<text text-anchor="start" x="940.8422" y="-83.9" font-family="Arial" font-size="14.00" fill="#666666">[timestamp]</text>
<polygon fill="none" stroke="#000000" points="833.5,-42.5 833.5,-72.5 1054.5,-72.5 1054.5,-42.5 833.5,-42.5"/>
<text text-anchor="start" x="840.5" y="-53.9" font-family="Arial" font-size="14.00" fill="#000000">updated_at    </text>
<text text-anchor="start" x="944.7468" y="-53.9" font-family="Arial" font-size="14.00" fill="#666666">[timestamp]</text>
</g>
<!-- users&#45;&gt;affiliations -->
<g id="edge6" class="edge">
<title>users:affiliation_id&#45;&gt;affiliations:id</title>
<path fill="none" stroke="#000000" d="M803.496,-607.1429C669.0265,-597.2831 719.8602,-385.6664 813.5,-277 884.1965,-194.9586 983.8035,-323.0414 1054.5,-241 1081.6269,-209.5199 1096.0556,-147.5 1054.5,-147.5"/>
<polygon fill="#000000" stroke="#000000" points="803.5064,-607.1432 813.3394,-611.9971 808.5032,-607.3216 813.5,-607.5 813.5,-607.5 813.5,-607.5 808.5032,-607.3216 813.6606,-603.0029 803.5064,-607.1432 803.5064,-607.1432"/>
<text text-anchor="start" x="540.443" y="-617.5" font-family="Arial" font-size="10.00" fill="#000000">FOREIGN KEY (affiliation_id) REFERENCES affiliations (id)</text>
</g>
<!-- bookmarks -->
<g id="node2" class="node">
<title>bookmarks</title>
<polygon fill="#efefef" stroke="transparent" points="43.5,-1052.5 43.5,-1087.5 272.5,-1087.5 272.5,-1052.5 43.5,-1052.5"/>
<polygon fill="none" stroke="#000000" points="43.5,-1052.5 43.5,-1087.5 272.5,-1087.5 272.5,-1052.5 43.5,-1052.5"/>
<text text-anchor="start" x="50.2114" y="-1065.3" font-family="Arial Bold" font-size="18.00" fill="#000000">bookmarks</text>
<text text-anchor="start" x="138.2206" y="-1065.3" font-family="Arial" font-size="14.00" fill="#000000">    </text>
<text text-anchor="start" x="172.4254" y="-1065.3" font-family="Arial" font-size="14.00" fill="#666666">[BASE TABLE]</text>
<polygon fill="none" stroke="#000000" points="43.5,-1022.5 43.5,-1052.5 272.5,-1052.5 272.5,-1022.5 43.5,-1022.5"/>
<text text-anchor="start" x="50.5" y="-1033.9" font-family="Arial" font-size="14.00" fill="#000000">user_id    </text>
<text text-anchor="start" x="130.6024" y="-1033.9" font-family="Arial" font-size="14.00" fill="#666666">[int unsigned]</text>
<polygon fill="none" stroke="#000000" points="43.5,-992.5 43.5,-1022.5 272.5,-1022.5 272.5,-992.5 43.5,-992.5"/>
<text text-anchor="start" x="50.5" y="-1003.9" font-family="Arial" font-size="14.00" fill="#000000">work_id    </text>
<text text-anchor="start" x="132.9264" y="-1003.9" font-family="Arial" font-size="14.00" fill="#666666">[int unsigned]</text>
<polygon fill="none" stroke="#000000" points="43.5,-962.5 43.5,-992.5 272.5,-992.5 272.5,-962.5 43.5,-962.5"/>
<text text-anchor="start" x="50.5" y="-973.9" font-family="Arial" font-size="14.00" fill="#000000">created_at    </text>
<text text-anchor="start" x="150.8422" y="-973.9" font-family="Arial" font-size="14.00" fill="#666666">[timestamp]</text>
<polygon fill="none" stroke="#000000" points="43.5,-932.5 43.5,-962.5 272.5,-962.5 272.5,-932.5 43.5,-932.5"/>
<text text-anchor="start" x="50.5" y="-943.9" font-family="Arial" font-size="14.00" fill="#000000">updated_at    </text>
<text text-anchor="start" x="154.7468" y="-943.9" font-family="Arial" font-size="14.00" fill="#666666">[timestamp]</text>
</g>
<!-- bookmarks&#45;&gt;users -->
<g id="edge1" class="edge">
<title>bookmarks:user_id&#45;&gt;users:id</title>
<path fill="none" stroke="#000000" d="M282.5514,-1036.7906C346.8318,-1026.852 267.6342,-914.9958 323.5,-860 403.8849,-780.867 700.7003,-727.5 813.5,-727.5"/>
<polygon fill="#000000" stroke="#000000" points="282.4752,-1036.7958 272.1831,-1033.0112 277.4876,-1037.1479 272.5,-1037.5 272.5,-1037.5 272.5,-1037.5 277.4876,-1037.1479 272.8169,-1041.9888 282.4752,-1036.7958 282.4752,-1036.7958"/>
<text text-anchor="start" x="279.445" y="-1047.5" font-family="Arial" font-size="10.00" fill="#000000">FOREIGN KEY (user_id) REFERENCES users (id)</text>
</g>
<!-- event_user_authorities -->
<g id="node3" class="node">
<title>event_user_authorities</title>
<polygon fill="#efefef" stroke="transparent" points="376.5,-1067.5 376.5,-1102.5 699.5,-1102.5 699.5,-1067.5 376.5,-1067.5"/>
<polygon fill="none" stroke="#000000" points="376.5,-1067.5 376.5,-1102.5 699.5,-1102.5 699.5,-1067.5 376.5,-1067.5"/>
<text text-anchor="start" x="383.1891" y="-1080.3" font-family="Arial Bold" font-size="18.00" fill="#000000">event_user_authorities</text>
<text text-anchor="start" x="565.2429" y="-1080.3" font-family="Arial" font-size="14.00" fill="#000000">    </text>
<text text-anchor="start" x="599.4477" y="-1080.3" font-family="Arial" font-size="14.00" fill="#666666">[BASE TABLE]</text>
<polygon fill="none" stroke="#000000" points="376.5,-1037.5 376.5,-1067.5 699.5,-1067.5 699.5,-1037.5 376.5,-1037.5"/>
<text text-anchor="start" x="383.5" y="-1048.9" font-family="Arial" font-size="14.00" fill="#000000">event_id    </text>
<text text-anchor="start" x="470.615" y="-1048.9" font-family="Arial" font-size="14.00" fill="#666666">[int unsigned]</text>
<polygon fill="none" stroke="#000000" points="376.5,-1007.5 376.5,-1037.5 699.5,-1037.5 699.5,-1007.5 376.5,-1007.5"/>
<text text-anchor="start" x="383.5" y="-1018.9" font-family="Arial" font-size="14.00" fill="#000000">user_id    </text>
<text text-anchor="start" x="463.6024" y="-1018.9" font-family="Arial" font-size="14.00" fill="#666666">[int unsigned]</text>
<polygon fill="none" stroke="#000000" points="376.5,-977.5 376.5,-1007.5 699.5,-1007.5 699.5,-977.5 376.5,-977.5"/>
<text text-anchor="start" x="383.5" y="-988.9" font-family="Arial" font-size="14.00" fill="#000000">authority_id    </text>
<text text-anchor="start" x="490.0554" y="-988.9" font-family="Arial" font-size="14.00" fill="#666666">[int unsigned]</text>
<polygon fill="none" stroke="#000000" points="376.5,-947.5 376.5,-977.5 699.5,-977.5 699.5,-947.5 376.5,-947.5"/>
<text text-anchor="start" x="383.5" y="-958.9" font-family="Arial" font-size="14.00" fill="#000000">created_at    </text>
<text text-anchor="start" x="483.8422" y="-958.9" font-family="Arial" font-size="14.00" fill="#666666">[timestamp]</text>
<polygon fill="none" stroke="#000000" points="376.5,-917.5 376.5,-947.5 699.5,-947.5 699.5,-917.5 376.5,-917.5"/>
<text text-anchor="start" x="383.5" y="-928.9" font-family="Arial" font-size="14.00" fill="#000000">updated_at    </text>
<text text-anchor="start" x="487.7468" y="-928.9" font-family="Arial" font-size="14.00" fill="#666666">[timestamp]</text>
</g>
<!-- event_user_authorities&#45;&gt;users -->
<g id="edge2" class="edge">
<title>event_user_authorities:user_id&#45;&gt;users:id</title>
<path fill="none" stroke="#000000" d="M709.7211,-1021.8558C770.4883,-1013.5759 725.1703,-927.1497 751.5,-860 775.2341,-799.4698 748.483,-727.5 813.5,-727.5"/>
<polygon fill="#000000" stroke="#000000" points="709.4802,-1021.8709 699.2169,-1018.0089 704.4901,-1022.1855 699.5,-1022.5 699.5,-1022.5 699.5,-1022.5 704.4901,-1022.1855 699.7831,-1026.9911 709.4802,-1021.8709 709.4802,-1021.8709"/>
<text text-anchor="start" x="706.445" y="-1032.5" font-family="Arial" font-size="10.00" fill="#000000">FOREIGN KEY (user_id) REFERENCES users (id)</text>
</g>
<!-- user_occupations -->
<g id="node4" class="node">
<title>user_occupations</title>
<polygon fill="#efefef" stroke="transparent" points="803.5,-1052.5 803.5,-1087.5 1085.5,-1087.5 1085.5,-1052.5 803.5,-1052.5"/>
<polygon fill="none" stroke="#000000" points="803.5,-1052.5 803.5,-1087.5 1085.5,-1087.5 1085.5,-1052.5 803.5,-1052.5"/>
<text text-anchor="start" x="810.1938" y="-1065.3" font-family="Arial Bold" font-size="18.00" fill="#000000">user_occupations</text>
<text text-anchor="start" x="951.2382" y="-1065.3" font-family="Arial" font-size="14.00" fill="#000000">    </text>
<text text-anchor="start" x="985.443" y="-1065.3" font-family="Arial" font-size="14.00" fill="#666666">[BASE TABLE]</text>
<polygon fill="none" stroke="#000000" points="803.5,-1022.5 803.5,-1052.5 1085.5,-1052.5 1085.5,-1022.5 803.5,-1022.5"/>
<text text-anchor="start" x="810.5" y="-1033.9" font-family="Arial" font-size="14.00" fill="#000000">user_id    </text>
<text text-anchor="start" x="890.6024" y="-1033.9" font-family="Arial" font-size="14.00" fill="#666666">[int unsigned]</text>
<polygon fill="none" stroke="#000000" points="803.5,-992.5 803.5,-1022.5 1085.5,-1022.5 1085.5,-992.5 803.5,-992.5"/>
<text text-anchor="start" x="810.5" y="-1003.9" font-family="Arial" font-size="14.00" fill="#000000">occupation_id    </text>
<text text-anchor="start" x="931.0694" y="-1003.9" font-family="Arial" font-size="14.00" fill="#666666">[int unsigned]</text>
<polygon fill="none" stroke="#000000" points="803.5,-962.5 803.5,-992.5 1085.5,-992.5 1085.5,-962.5 803.5,-962.5"/>
<text text-anchor="start" x="810.5" y="-973.9" font-family="Arial" font-size="14.00" fill="#000000">created_at    </text>
<text text-anchor="start" x="910.8422" y="-973.9" font-family="Arial" font-size="14.00" fill="#666666">[timestamp]</text>
<polygon fill="none" stroke="#000000" points="803.5,-932.5 803.5,-962.5 1085.5,-962.5 1085.5,-932.5 803.5,-932.5"/>
<text text-anchor="start" x="810.5" y="-943.9" font-family="Arial" font-size="14.00" fill="#000000">updated_at    </text>
<text text-anchor="start" x="914.7468" y="-943.9" font-family="Arial" font-size="14.00" fill="#666666">[timestamp]</text>
</g>
<!-- user_occupations&#45;&gt;users -->
<g id="edge3" class="edge">
<title>user_occupations:user_id&#45;&gt;users:id</title>
<path fill="none" stroke="#000000" d="M1095.3923,-1035.183C1153.2571,-1006.815 1140.9246,-727.5 1075.5,-727.5"/>
<polygon fill="#000000" stroke="#000000" points="1095.2365,-1035.2194 1084.4737,-1033.1186 1090.3682,-1036.3597 1085.5,-1037.5 1085.5,-1037.5 1085.5,-1037.5 1090.3682,-1036.3597 1086.5263,-1041.8814 1095.2365,-1035.2194 1095.2365,-1035.2194"/>
<text text-anchor="start" x="1092.445" y="-1047.5" font-family="Arial" font-size="10.00" fill="#000000">FOREIGN KEY (user_id) REFERENCES users (id)</text>
</g>
<!-- user_urls -->
<g id="node5" class="node">
<title>user_urls</title>
<polygon fill="#efefef" stroke="transparent" points="1190.5,-1082.5 1190.5,-1117.5 1405.5,-1117.5 1405.5,-1082.5 1190.5,-1082.5"/>
<polygon fill="none" stroke="#000000" points="1190.5,-1082.5 1190.5,-1117.5 1405.5,-1117.5 1405.5,-1082.5 1190.5,-1082.5"/>
<text text-anchor="start" x="1197.2143" y="-1095.3" font-family="Arial Bold" font-size="18.00" fill="#000000">user_urls</text>
<text text-anchor="start" x="1271.2177" y="-1095.3" font-family="Arial" font-size="14.00" fill="#000000">    </text>
<text text-anchor="start" x="1305.4225" y="-1095.3" font-family="Arial" font-size="14.00" fill="#666666">[BASE TABLE]</text>
<polygon fill="none" stroke="#000000" points="1190.5,-1052.5 1190.5,-1082.5 1405.5,-1082.5 1405.5,-1052.5 1190.5,-1052.5"/>
<text text-anchor="start" x="1197.5" y="-1063.9" font-family="Arial" font-size="14.00" fill="#000000">id    </text>
<text text-anchor="start" x="1242.594" y="-1063.9" font-family="Arial" font-size="14.00" fill="#666666">[int unsigned]</text>
<polygon fill="none" stroke="#000000" points="1190.5,-1022.5 1190.5,-1052.5 1405.5,-1052.5 1405.5,-1022.5 1190.5,-1022.5"/>
<text text-anchor="start" x="1197.5" y="-1033.9" font-family="Arial" font-size="14.00" fill="#000000">user_id    </text>
<text text-anchor="start" x="1277.6024" y="-1033.9" font-family="Arial" font-size="14.00" fill="#666666">[int unsigned]</text>
<polygon fill="none" stroke="#000000" points="1190.5,-992.5 1190.5,-1022.5 1405.5,-1022.5 1405.5,-992.5 1190.5,-992.5"/>
<text text-anchor="start" x="1197.5" y="-1003.9" font-family="Arial" font-size="14.00" fill="#000000">url_name    </text>
<text text-anchor="start" x="1290.0456" y="-1003.9" font-family="Arial" font-size="14.00" fill="#666666">[varchar(30)]</text>
<polygon fill="none" stroke="#000000" points="1190.5,-962.5 1190.5,-992.5 1405.5,-992.5 1405.5,-962.5 1190.5,-962.5"/>
<text text-anchor="start" x="1197.5" y="-973.9" font-family="Arial" font-size="14.00" fill="#000000">url    </text>
<text text-anchor="start" x="1247.2546" y="-973.9" font-family="Arial" font-size="14.00" fill="#666666">[varchar(255)]</text>
<polygon fill="none" stroke="#000000" points="1190.5,-932.5 1190.5,-962.5 1405.5,-962.5 1405.5,-932.5 1190.5,-932.5"/>
<text text-anchor="start" x="1197.5" y="-943.9" font-family="Arial" font-size="14.00" fill="#000000">created_at    </text>
<text text-anchor="start" x="1297.8422" y="-943.9" font-family="Arial" font-size="14.00" fill="#666666">[timestamp]</text>
<polygon fill="none" stroke="#000000" points="1190.5,-902.5 1190.5,-932.5 1405.5,-932.5 1405.5,-902.5 1190.5,-902.5"/>
<text text-anchor="start" x="1197.5" y="-913.9" font-family="Arial" font-size="14.00" fill="#000000">updated_at    </text>
<text text-anchor="start" x="1301.7468" y="-913.9" font-family="Arial" font-size="14.00" fill="#666666">[timestamp]</text>
</g>
<!-- user_urls&#45;&gt;users -->
<g id="edge4" class="edge">
<title>user_urls:user_id&#45;&gt;users:id</title>
<path fill="none" stroke="#000000" d="M1180.2373,-1036.9025C1113.2599,-1028.5129 1165.4877,-933.4826 1137.5,-860 1114.3583,-799.2409 1140.517,-727.5 1075.5,-727.5"/>
<polygon fill="#000000" stroke="#000000" points="1180.5169,-1036.9187 1190.2384,-1041.9924 1185.5085,-1037.2093 1190.5,-1037.5 1190.5,-1037.5 1190.5,-1037.5 1185.5085,-1037.2093 1190.7616,-1033.0076 1180.5169,-1036.9187 1180.5169,-1036.9187"/>
<text text-anchor="start" x="1137.445" y="-1021.5" font-family="Arial" font-size="10.00" fill="#000000">FOREIGN KEY (user_id) REFERENCES users (id)</text>
</g>
<!-- work_data_users -->
<g id="node6" class="node">
<title>work_data_users</title>
<polygon fill="#efefef" stroke="transparent" points="1509.5,-1067.5 1509.5,-1102.5 1787.5,-1102.5 1787.5,-1067.5 1509.5,-1067.5"/>
<polygon fill="none" stroke="#000000" points="1509.5,-1067.5 1509.5,-1102.5 1787.5,-1102.5 1787.5,-1067.5 1509.5,-1067.5"/>
<text text-anchor="start" x="1516.2008" y="-1080.3" font-family="Arial Bold" font-size="18.00" fill="#000000">work_data_users</text>
<text text-anchor="start" x="1653.2312" y="-1080.3" font-family="Arial" font-size="14.00" fill="#000000">    </text>
<text text-anchor="start" x="1687.436" y="-1080.3" font-family="Arial" font-size="14.00" fill="#666666">[BASE TABLE]</text>
<polygon fill="none" stroke="#000000" points="1509.5,-1037.5 1509.5,-1067.5 1787.5,-1067.5 1787.5,-1037.5 1509.5,-1037.5"/>
<text text-anchor="start" x="1516.5" y="-1048.9" font-family="Arial" font-size="14.00" fill="#000000">work_data_id    </text>
<text text-anchor="start" x="1633.9474" y="-1048.9" font-family="Arial" font-size="14.00" fill="#666666">[int unsigned]</text>
<polygon fill="none" stroke="#000000" points="1509.5,-1007.5 1509.5,-1037.5 1787.5,-1037.5 1787.5,-1007.5 1509.5,-1007.5"/>
<text text-anchor="start" x="1516.5" y="-1018.9" font-family="Arial" font-size="14.00" fill="#000000">user_id    </text>
<text text-anchor="start" x="1596.6024" y="-1018.9" font-family="Arial" font-size="14.00" fill="#666666">[int unsigned]</text>
<polygon fill="none" stroke="#000000" points="1509.5,-977.5 1509.5,-1007.5 1787.5,-1007.5 1787.5,-977.5 1509.5,-977.5"/>
<text text-anchor="start" x="1516.5" y="-988.9" font-family="Arial" font-size="14.00" fill="#000000">role_explanation    </text>
<text text-anchor="start" x="1653.4018" y="-988.9" font-family="Arial" font-size="14.00" fill="#666666">[varchar(50)]</text>
<polygon fill="none" stroke="#000000" points="1509.5,-947.5 1509.5,-977.5 1787.5,-977.5 1787.5,-947.5 1509.5,-947.5"/>
<text text-anchor="start" x="1516.5" y="-958.9" font-family="Arial" font-size="14.00" fill="#000000">created_at    </text>
<text text-anchor="start" x="1616.8422" y="-958.9" font-family="Arial" font-size="14.00" fill="#666666">[timestamp]</text>
<polygon fill="none" stroke="#000000" points="1509.5,-917.5 1509.5,-947.5 1787.5,-947.5 1787.5,-917.5 1509.5,-917.5"/>
<text text-anchor="start" x="1516.5" y="-928.9" font-family="Arial" font-size="14.00" fill="#000000">updated_at    </text>
<text text-anchor="start" x="1620.7468" y="-928.9" font-family="Arial" font-size="14.00" fill="#666666">[timestamp]</text>
</g>
<!-- work_data_users&#45;&gt;users -->
<g id="edge5" class="edge">
<title>work_data_users:user_id&#45;&gt;users:id</title>
<path fill="none" stroke="#000000" d="M1499.4509,-1021.7447C1440.8605,-1012.0587 1507.8816,-911.6143 1457.5,-860 1331.9772,-731.406 1255.2008,-727.5 1075.5,-727.5"/>
<polygon fill="#000000" stroke="#000000" points="1499.5281,-1021.7504 1509.1627,-1026.9873 1504.5141,-1022.1252 1509.5,-1022.5 1509.5,-1022.5 1509.5,-1022.5 1504.5141,-1022.1252 1509.8373,-1018.0127 1499.5281,-1021.7504 1499.5281,-1021.7504"/>
<text text-anchor="start" x="1456.445" y="-1006.5" font-family="Arial" font-size="10.00" fill="#000000">FOREIGN KEY (user_id) REFERENCES users (id)</text>
</g>
</g>
</svg>
