<?xml version="1.0" encoding="UTF-8" standalone="no"?>
<!DOCTYPE svg PUBLIC "-//W3C//DTD SVG 1.1//EN"
 "http://www.w3.org/Graphics/SVG/1.1/DTD/svg11.dtd">
<!-- Generated by graphviz version 2.40.1 (20161225.0304)
 -->
<!-- Title: works Pages: 1 -->
<svg width="700pt" height="1319pt"
 viewBox="0.00 0.00 699.50 1319.00" xmlns="http://www.w3.org/2000/svg" xmlns:xlink="http://www.w3.org/1999/xlink">
<g id="graph0" class="graph" transform="scale(1 1) rotate(0) translate(4 1315)">
<title>works</title>
<polygon fill="#ffffff" stroke="transparent" points="-4,4 -4,-1315 695.5,-1315 695.5,4 -4,4"/>
<!-- works -->
<g id="node1" class="node">
<title>works</title>
<polygon fill="#efefef" stroke="transparent" points="250,-682.5 250,-717.5 438,-717.5 438,-682.5 250,-682.5"/>
<polygon fill="none" stroke="#000000" points="250,-682.5 250,-717.5 438,-717.5 438,-682.5 250,-682.5"/>
<text text-anchor="start" x="256.7197" y="-695.3" font-family="Arial Bold" font-size="18.00" fill="#000000">works</text>
<text text-anchor="start" x="303.7123" y="-695.3" font-family="Arial" font-size="14.00" fill="#000000">    </text>
<text text-anchor="start" x="337.9171" y="-695.3" font-family="Arial" font-size="14.00" fill="#666666">[BASE TABLE]</text>
<polygon fill="none" stroke="#000000" points="250,-652.5 250,-682.5 438,-682.5 438,-652.5 250,-652.5"/>
<text text-anchor="start" x="257" y="-663.9" font-family="Arial" font-size="14.00" fill="#000000">id </text>
<text text-anchor="start" x="271.7798" y="-663.9" font-family="Arial" font-size="14.00" fill="#666666">[int unsigned]</text>
<polygon fill="none" stroke="#000000" points="250,-622.5 250,-652.5 438,-652.5 438,-622.5 250,-622.5"/>
<text text-anchor="start" x="257" y="-633.9" font-family="Arial" font-size="14.00" fill="#000000">event_id </text>
<text text-anchor="start" x="313.8008" y="-633.9" font-family="Arial" font-size="14.00" fill="#666666">[int unsigned]</text>
<polygon fill="none" stroke="#000000" points="250,-592.5 250,-622.5 438,-622.5 438,-592.5 250,-592.5"/>
<text text-anchor="start" x="257" y="-603.9" font-family="Arial" font-size="14.00" fill="#000000">created_at </text>
<text text-anchor="start" x="327.028" y="-603.9" font-family="Arial" font-size="14.00" fill="#666666">[timestamp]</text>
<polygon fill="none" stroke="#000000" points="250,-562.5 250,-592.5 438,-592.5 438,-562.5 250,-562.5"/>
<text text-anchor="start" x="257" y="-573.9" font-family="Arial" font-size="14.00" fill="#000000">updated_at </text>
<text text-anchor="start" x="330.9326" y="-573.9" font-family="Arial" font-size="14.00" fill="#666666">[timestamp]</text>
<polygon fill="none" stroke="#000000" stroke-width="3" points="248.5,-561.5 248.5,-719.5 439.5,-719.5 439.5,-561.5 248.5,-561.5"/>
</g>
<!-- events -->
<g id="node4" class="node">
<title>events</title>
<polygon fill="#efefef" stroke="transparent" points="221,-402.5 221,-437.5 466,-437.5 466,-402.5 221,-402.5"/>
<polygon fill="none" stroke="#000000" points="221,-402.5 221,-437.5 466,-437.5 466,-402.5 221,-402.5"/>
<text text-anchor="start" x="253.2056" y="-415.3" font-family="Arial Bold" font-size="18.00" fill="#000000">events</text>
<text text-anchor="start" x="306.2264" y="-415.3" font-family="Arial" font-size="14.00" fill="#000000">    </text>
<text text-anchor="start" x="340.4312" y="-415.3" font-family="Arial" font-size="14.00" fill="#666666">[BASE TABLE]</text>
<polygon fill="none" stroke="#000000" points="221,-372.5 221,-402.5 466,-402.5 466,-372.5 221,-372.5"/>
<text text-anchor="start" x="228" y="-383.9" font-family="Arial" font-size="14.00" fill="#000000">id    </text>
<text text-anchor="start" x="273.094" y="-383.9" font-family="Arial" font-size="14.00" fill="#666666">[int unsigned]</text>
<polygon fill="none" stroke="#000000" points="221,-342.5 221,-372.5 466,-372.5 466,-342.5 221,-342.5"/>
<text text-anchor="start" x="228" y="-353.9" font-family="Arial" font-size="14.00" fill="#000000">name    </text>
<text text-anchor="start" x="297.2132" y="-353.9" font-family="Arial" font-size="14.00" fill="#666666">[varchar(50)]</text>
<polygon fill="none" stroke="#000000" points="221,-312.5 221,-342.5 466,-342.5 466,-312.5 221,-312.5"/>
<text text-anchor="start" x="228" y="-323.9" font-family="Arial" font-size="14.00" fill="#000000">password    </text>
<text text-anchor="start" x="322.1024" y="-323.9" font-family="Arial" font-size="14.00" fill="#666666">[varchar(255)]</text>
<polygon fill="none" stroke="#000000" points="221,-282.5 221,-312.5 466,-312.5 466,-282.5 221,-282.5"/>
<text text-anchor="start" x="227.6115" y="-293.9" font-family="Arial" font-size="14.00" fill="#000000">is_requires_password    </text>
<text text-anchor="start" x="397.9439" y="-293.9" font-family="Arial" font-size="14.00" fill="#666666">[tinyint(1)]</text>
<polygon fill="none" stroke="#000000" points="221,-252.5 221,-282.5 466,-282.5 466,-252.5 221,-252.5"/>
<text text-anchor="start" x="228" y="-263.9" font-family="Arial" font-size="14.00" fill="#000000">start_at    </text>
<text text-anchor="start" x="308.885" y="-263.9" font-family="Arial" font-size="14.00" fill="#666666">[datetime]</text>
<polygon fill="none" stroke="#000000" points="221,-222.5 221,-252.5 466,-252.5 466,-222.5 221,-222.5"/>
<text text-anchor="start" x="228" y="-233.9" font-family="Arial" font-size="14.00" fill="#000000">end_at    </text>
<text text-anchor="start" x="305.0084" y="-233.9" font-family="Arial" font-size="14.00" fill="#666666">[datetime]</text>
<polygon fill="none" stroke="#000000" points="221,-192.5 221,-222.5 466,-222.5 466,-192.5 221,-192.5"/>
<text text-anchor="start" x="228" y="-203.9" font-family="Arial" font-size="14.00" fill="#000000">need_proofreading    </text>
<text text-anchor="start" x="379.697" y="-203.9" font-family="Arial" font-size="14.00" fill="#666666">[tinyint(1)]</text>
<polygon fill="none" stroke="#000000" points="221,-162.5 221,-192.5 466,-192.5 466,-162.5 221,-162.5"/>
<text text-anchor="start" x="228" y="-173.9" font-family="Arial" font-size="14.00" fill="#000000">icon_url    </text>
<text text-anchor="start" x="311.209" y="-173.9" font-family="Arial" font-size="14.00" fill="#666666">[varchar(255)]</text>
<polygon fill="none" stroke="#000000" points="221,-132.5 221,-162.5 466,-162.5 466,-132.5 221,-132.5"/>
<text text-anchor="start" x="228" y="-143.9" font-family="Arial" font-size="14.00" fill="#000000">description    </text>
<text text-anchor="start" x="329.8822" y="-143.9" font-family="Arial" font-size="14.00" fill="#666666">[text]</text>
<polygon fill="none" stroke="#000000" points="221,-102.5 221,-132.5 466,-132.5 466,-102.5 221,-102.5"/>
<text text-anchor="start" x="228" y="-113.9" font-family="Arial" font-size="14.00" fill="#000000">detail    </text>
<text text-anchor="start" x="295.6564" y="-113.9" font-family="Arial" font-size="14.00" fill="#666666">[text]</text>
<polygon fill="none" stroke="#000000" points="221,-72.5 221,-102.5 466,-102.5 466,-72.5 221,-72.5"/>
<text text-anchor="start" x="228" y="-83.9" font-family="Arial" font-size="14.00" fill="#000000">created_at    </text>
<text text-anchor="start" x="328.3422" y="-83.9" font-family="Arial" font-size="14.00" fill="#666666">[timestamp]</text>
<polygon fill="none" stroke="#000000" points="221,-42.5 221,-72.5 466,-72.5 466,-42.5 221,-42.5"/>
<text text-anchor="start" x="228" y="-53.9" font-family="Arial" font-size="14.00" fill="#000000">updated_at    </text>
<text text-anchor="start" x="332.2468" y="-53.9" font-family="Arial" font-size="14.00" fill="#666666">[timestamp]</text>
</g>
<!-- works&#45;&gt;events -->
<g id="edge3" class="edge">
<title>works:event_id&#45;&gt;events:id</title>
<path fill="none" stroke="#000000" d="M240.0151,-636.4214C199.107,-626.7934 217.7494,-555.0705 250,-517 312.9079,-442.7397 403.0921,-555.2603 466,-481 492.8605,-449.2923 507.5556,-387.5 466,-387.5"/>
<polygon fill="#000000" stroke="#000000" points="240.0578,-636.4259 249.5167,-641.974 245.0289,-636.963 250,-637.5 250,-637.5 250,-637.5 245.0289,-636.963 250.4833,-633.026 240.0578,-636.4259 240.0578,-636.4259"/>
<text text-anchor="start" x="6.936" y="-647.5" font-family="Arial" font-size="10.00" fill="#000000">FOREIGN KEY (event_id) REFERENCES events (id)</text>
</g>
<!-- bookmarks -->
<g id="node2" class="node">
<title>bookmarks</title>
<polygon fill="#efefef" stroke="transparent" points="55,-1097.5 55,-1132.5 284,-1132.5 284,-1097.5 55,-1097.5"/>
<polygon fill="none" stroke="#000000" points="55,-1097.5 55,-1132.5 284,-1132.5 284,-1097.5 55,-1097.5"/>
<text text-anchor="start" x="61.7114" y="-1110.3" font-family="Arial Bold" font-size="18.00" fill="#000000">bookmarks</text>
<text text-anchor="start" x="149.7206" y="-1110.3" font-family="Arial" font-size="14.00" fill="#000000">    </text>
<text text-anchor="start" x="183.9254" y="-1110.3" font-family="Arial" font-size="14.00" fill="#666666">[BASE TABLE]</text>
<polygon fill="none" stroke="#000000" points="55,-1067.5 55,-1097.5 284,-1097.5 284,-1067.5 55,-1067.5"/>
<text text-anchor="start" x="62" y="-1078.9" font-family="Arial" font-size="14.00" fill="#000000">user_id    </text>
<text text-anchor="start" x="142.1024" y="-1078.9" font-family="Arial" font-size="14.00" fill="#666666">[int unsigned]</text>
<polygon fill="none" stroke="#000000" points="55,-1037.5 55,-1067.5 284,-1067.5 284,-1037.5 55,-1037.5"/>
<text text-anchor="start" x="62" y="-1048.9" font-family="Arial" font-size="14.00" fill="#000000">work_id    </text>
<text text-anchor="start" x="144.4264" y="-1048.9" font-family="Arial" font-size="14.00" fill="#666666">[int unsigned]</text>
<polygon fill="none" stroke="#000000" points="55,-1007.5 55,-1037.5 284,-1037.5 284,-1007.5 55,-1007.5"/>
<text text-anchor="start" x="62" y="-1018.9" font-family="Arial" font-size="14.00" fill="#000000">created_at    </text>
<text text-anchor="start" x="162.3422" y="-1018.9" font-family="Arial" font-size="14.00" fill="#666666">[timestamp]</text>
<polygon fill="none" stroke="#000000" points="55,-977.5 55,-1007.5 284,-1007.5 284,-977.5 55,-977.5"/>
<text text-anchor="start" x="62" y="-988.9" font-family="Arial" font-size="14.00" fill="#000000">updated_at    </text>
<text text-anchor="start" x="166.2468" y="-988.9" font-family="Arial" font-size="14.00" fill="#666666">[timestamp]</text>
</g>
<!-- bookmarks&#45;&gt;works -->
<g id="edge1" class="edge">
<title>bookmarks:work_id&#45;&gt;works:id</title>
<path fill="none" stroke="#000000" d="M294.3218,-1051.9745C439.8076,-1036.1347 81.9135,-667.5 250,-667.5"/>
<polygon fill="#000000" stroke="#000000" points="293.9871,-1051.9915 283.7712,-1048.0058 288.9935,-1052.2457 284,-1052.5 284,-1052.5 284,-1052.5 288.9935,-1052.2457 284.2288,-1056.9942 293.9871,-1051.9915 293.9871,-1051.9915"/>
<text text-anchor="start" x="109.035" y="-1036.5" font-family="Arial" font-size="10.00" fill="#000000">FOREIGN KEY (work_id) REFERENCES works (id)</text>
</g>
<!-- work_data -->
<g id="node3" class="node">
<title>work_data</title>
<polygon fill="#efefef" stroke="transparent" points="388,-1232.5 388,-1267.5 649,-1267.5 649,-1232.5 388,-1232.5"/>
<polygon fill="none" stroke="#000000" points="388,-1232.5 388,-1267.5 649,-1267.5 649,-1232.5 388,-1232.5"/>
<text text-anchor="start" x="413.2062" y="-1245.3" font-family="Arial Bold" font-size="18.00" fill="#000000">work_data</text>
<text text-anchor="start" x="496.2258" y="-1245.3" font-family="Arial" font-size="14.00" fill="#000000">    </text>
<text text-anchor="start" x="530.4306" y="-1245.3" font-family="Arial" font-size="14.00" fill="#666666">[BASE TABLE]</text>
<polygon fill="none" stroke="#000000" points="388,-1202.5 388,-1232.5 649,-1232.5 649,-1202.5 388,-1202.5"/>
<text text-anchor="start" x="395" y="-1213.9" font-family="Arial" font-size="14.00" fill="#000000">id    </text>
<text text-anchor="start" x="440.094" y="-1213.9" font-family="Arial" font-size="14.00" fill="#666666">[int unsigned]</text>
<polygon fill="none" stroke="#000000" points="388,-1172.5 388,-1202.5 649,-1202.5 649,-1172.5 388,-1172.5"/>
<text text-anchor="start" x="395" y="-1183.9" font-family="Arial" font-size="14.00" fill="#000000">work_id    </text>
<text text-anchor="start" x="477.4264" y="-1183.9" font-family="Arial" font-size="14.00" fill="#666666">[int unsigned]</text>
<polygon fill="none" stroke="#000000" points="388,-1142.5 388,-1172.5 649,-1172.5 649,-1142.5 388,-1142.5"/>
<text text-anchor="start" x="395" y="-1153.9" font-family="Arial" font-size="14.00" fill="#000000">name    </text>
<text text-anchor="start" x="464.2132" y="-1153.9" font-family="Arial" font-size="14.00" fill="#666666">[varchar(100)]</text>
<polygon fill="none" stroke="#000000" points="388,-1112.5 388,-1142.5 649,-1142.5 649,-1112.5 388,-1112.5"/>
<text text-anchor="start" x="395" y="-1123.9" font-family="Arial" font-size="14.00" fill="#000000">catch_copy    </text>
<text text-anchor="start" x="500.0084" y="-1123.9" font-family="Arial" font-size="14.00" fill="#666666">[varchar(100)]</text>
<polygon fill="none" stroke="#000000" points="388,-1082.5 388,-1112.5 649,-1112.5 649,-1082.5 388,-1082.5"/>
<text text-anchor="start" x="395" y="-1093.9" font-family="Arial" font-size="14.00" fill="#000000">description    </text>
<text text-anchor="start" x="496.8822" y="-1093.9" font-family="Arial" font-size="14.00" fill="#666666">[varchar(500)]</text>
<polygon fill="none" stroke="#000000" points="388,-1052.5 388,-1082.5 649,-1082.5 649,-1052.5 388,-1052.5"/>
<text text-anchor="start" x="395" y="-1063.9" font-family="Arial" font-size="14.00" fill="#000000">work_url    </text>
<text text-anchor="start" x="482.087" y="-1063.9" font-family="Arial" font-size="14.00" fill="#666666">[varchar(255)]</text>
<polygon fill="none" stroke="#000000" points="388,-1022.5 388,-1052.5 649,-1052.5 649,-1022.5 388,-1022.5"/>
<text text-anchor="start" x="395" y="-1033.9" font-family="Arial" font-size="14.00" fill="#000000">movie_url    </text>
<text text-anchor="start" x="489.8696" y="-1033.9" font-family="Arial" font-size="14.00" fill="#666666">[varchar(255)]</text>
<polygon fill="none" stroke="#000000" points="388,-992.5 388,-1022.5 649,-1022.5 649,-992.5 388,-992.5"/>
<text text-anchor="start" x="394.8345" y="-1003.9" font-family="Arial" font-size="14.00" fill="#000000">system_diagram_url    </text>
<text text-anchor="start" x="555.0463" y="-1003.9" font-family="Arial" font-size="14.00" fill="#666666">[varchar(255)]</text>
<polygon fill="none" stroke="#000000" points="388,-962.5 388,-992.5 649,-992.5 649,-962.5 388,-962.5"/>
<text text-anchor="start" x="395" y="-973.9" font-family="Arial" font-size="14.00" fill="#000000">thumbnail_url    </text>
<text text-anchor="start" x="513.2146" y="-973.9" font-family="Arial" font-size="14.00" fill="#666666">[varchar(255)]</text>
<polygon fill="none" stroke="#000000" points="388,-932.5 388,-962.5 649,-962.5 649,-932.5 388,-932.5"/>
<text text-anchor="start" x="395" y="-943.9" font-family="Arial" font-size="14.00" fill="#000000">detail    </text>
<text text-anchor="start" x="462.6564" y="-943.9" font-family="Arial" font-size="14.00" fill="#666666">[text]</text>
<polygon fill="none" stroke="#000000" points="388,-902.5 388,-932.5 649,-932.5 649,-902.5 388,-902.5"/>
<text text-anchor="start" x="395" y="-913.9" font-family="Arial" font-size="14.00" fill="#000000">is_approved    </text>
<text text-anchor="start" x="505.4502" y="-913.9" font-family="Arial" font-size="14.00" fill="#666666">[tinyint(1)]</text>
<polygon fill="none" stroke="#000000" points="388,-872.5 388,-902.5 649,-902.5 649,-872.5 388,-872.5"/>
<text text-anchor="start" x="395" y="-883.9" font-family="Arial" font-size="14.00" fill="#000000">created_at    </text>
<text text-anchor="start" x="495.3422" y="-883.9" font-family="Arial" font-size="14.00" fill="#666666">[timestamp]</text>
<polygon fill="none" stroke="#000000" points="388,-842.5 388,-872.5 649,-872.5 649,-842.5 388,-842.5"/>
<text text-anchor="start" x="395" y="-853.9" font-family="Arial" font-size="14.00" fill="#000000">updated_at    </text>
<text text-anchor="start" x="499.2468" y="-853.9" font-family="Arial" font-size="14.00" fill="#666666">[timestamp]</text>
</g>
<!-- work_data&#45;&gt;works -->
<g id="edge2" class="edge">
<title>work_data:work_id&#45;&gt;works:id</title>
<path fill="none" stroke="#000000" d="M378.0656,-1185.9688C305.7195,-1162.3939 350.3519,-873.4979 388,-800 400.484,-775.6283 425.516,-788.3717 438,-764 457.5532,-725.8276 480.8889,-667.5 438,-667.5"/>
<polygon fill="#000000" stroke="#000000" points="378.1167,-1185.9765 387.3144,-1191.9475 383.0584,-1186.7383 388,-1187.5 388,-1187.5 388,-1187.5 383.0584,-1186.7383 388.6856,-1183.0525 378.1167,-1185.9765 378.1167,-1185.9765"/>
<text text-anchor="start" x="152.285" y="-1197.5" font-family="Arial" font-size="10.00" fill="#000000">FOREIGN KEY (work_id) REFERENCES works (id)</text>
</g>
</g>
</svg>
