<?xml version="1.0" encoding="UTF-8" standalone="no"?>
<!DOCTYPE svg PUBLIC "-//W3C//DTD SVG 1.1//EN"
 "http://www.w3.org/Graphics/SVG/1.1/DTD/svg11.dtd">
<!-- Generated by graphviz version 2.40.1 (20161225.0304)
 -->
<!-- Title: work_data_technologies Pages: 1 -->
<svg width="931pt" height="802pt"
 viewBox="0.00 0.00 931.00 802.00" xmlns="http://www.w3.org/2000/svg" xmlns:xlink="http://www.w3.org/1999/xlink">
<g id="graph0" class="graph" transform="scale(1 1) rotate(0) translate(4 798)">
<title>work_data_technologies</title>
<polygon fill="#ffffff" stroke="transparent" points="-4,4 -4,-798 927,-798 927,4 -4,4"/>
<!-- work_data_technologies -->
<g id="node1" class="node">
<title>work_data_technologies</title>
<polygon fill="#efefef" stroke="transparent" points="288,-712.5 288,-747.5 623,-747.5 623,-712.5 288,-712.5"/>
<polygon fill="none" stroke="#000000" points="288,-712.5 288,-747.5 623,-747.5 623,-712.5 288,-712.5"/>
<text text-anchor="start" x="294.6861" y="-725.3" font-family="Arial Bold" font-size="18.00" fill="#000000">work_data_technologies</text>
<text text-anchor="start" x="488.7459" y="-725.3" font-family="Arial" font-size="14.00" fill="#000000">    </text>
<text text-anchor="start" x="522.9507" y="-725.3" font-family="Arial" font-size="14.00" fill="#666666">[BASE TABLE]</text>
<polygon fill="none" stroke="#000000" points="288,-682.5 288,-712.5 623,-712.5 623,-682.5 288,-682.5"/>
<text text-anchor="start" x="295" y="-693.9" font-family="Arial" font-size="14.00" fill="#000000">work_data_id </text>
<text text-anchor="start" x="382.1332" y="-693.9" font-family="Arial" font-size="14.00" fill="#666666">[int unsigned]</text>
<polygon fill="none" stroke="#000000" points="288,-652.5 288,-682.5 623,-682.5 623,-652.5 288,-652.5"/>
<text text-anchor="start" x="295" y="-663.9" font-family="Arial" font-size="14.00" fill="#000000">technology_id </text>
<text text-anchor="start" x="385.2552" y="-663.9" font-family="Arial" font-size="14.00" fill="#666666">[int unsigned]</text>
<polygon fill="none" stroke="#000000" points="288,-622.5 288,-652.5 623,-652.5 623,-622.5 288,-622.5"/>
<text text-anchor="start" x="295" y="-633.9" font-family="Arial" font-size="14.00" fill="#000000">created_at </text>
<text text-anchor="start" x="365.028" y="-633.9" font-family="Arial" font-size="14.00" fill="#666666">[timestamp]</text>
<polygon fill="none" stroke="#000000" points="288,-592.5 288,-622.5 623,-622.5 623,-592.5 288,-592.5"/>
<text text-anchor="start" x="295" y="-603.9" font-family="Arial" font-size="14.00" fill="#000000">updated_at </text>
<text text-anchor="start" x="368.9326" y="-603.9" font-family="Arial" font-size="14.00" fill="#666666">[timestamp]</text>
<polygon fill="none" stroke="#000000" stroke-width="3" points="286,-591.5 286,-749.5 624,-749.5 624,-591.5 286,-591.5"/>
</g>
<!-- work_data -->
<g id="node2" class="node">
<title>work_data</title>
<polygon fill="#efefef" stroke="transparent" points="148,-432.5 148,-467.5 409,-467.5 409,-432.5 148,-432.5"/>
<polygon fill="none" stroke="#000000" points="148,-432.5 148,-467.5 409,-467.5 409,-432.5 148,-432.5"/>
<text text-anchor="start" x="173.2062" y="-445.3" font-family="Arial Bold" font-size="18.00" fill="#000000">work_data</text>
<text text-anchor="start" x="256.2258" y="-445.3" font-family="Arial" font-size="14.00" fill="#000000">    </text>
<text text-anchor="start" x="290.4306" y="-445.3" font-family="Arial" font-size="14.00" fill="#666666">[BASE TABLE]</text>
<polygon fill="none" stroke="#000000" points="148,-402.5 148,-432.5 409,-432.5 409,-402.5 148,-402.5"/>
<text text-anchor="start" x="155" y="-413.9" font-family="Arial" font-size="14.00" fill="#000000">id    </text>
<text text-anchor="start" x="200.094" y="-413.9" font-family="Arial" font-size="14.00" fill="#666666">[int unsigned]</text>
<polygon fill="none" stroke="#000000" points="148,-372.5 148,-402.5 409,-402.5 409,-372.5 148,-372.5"/>
<text text-anchor="start" x="155" y="-383.9" font-family="Arial" font-size="14.00" fill="#000000">work_id    </text>
<text text-anchor="start" x="237.4264" y="-383.9" font-family="Arial" font-size="14.00" fill="#666666">[int unsigned]</text>
<polygon fill="none" stroke="#000000" points="148,-342.5 148,-372.5 409,-372.5 409,-342.5 148,-342.5"/>
<text text-anchor="start" x="155" y="-353.9" font-family="Arial" font-size="14.00" fill="#000000">name    </text>
<text text-anchor="start" x="224.2132" y="-353.9" font-family="Arial" font-size="14.00" fill="#666666">[varchar(100)]</text>
<polygon fill="none" stroke="#000000" points="148,-312.5 148,-342.5 409,-342.5 409,-312.5 148,-312.5"/>
<text text-anchor="start" x="155" y="-323.9" font-family="Arial" font-size="14.00" fill="#000000">catch_copy    </text>
<text text-anchor="start" x="260.0084" y="-323.9" font-family="Arial" font-size="14.00" fill="#666666">[varchar(100)]</text>
<polygon fill="none" stroke="#000000" points="148,-282.5 148,-312.5 409,-312.5 409,-282.5 148,-282.5"/>
<text text-anchor="start" x="155" y="-293.9" font-family="Arial" font-size="14.00" fill="#000000">description    </text>
<text text-anchor="start" x="256.8822" y="-293.9" font-family="Arial" font-size="14.00" fill="#666666">[varchar(500)]</text>
<polygon fill="none" stroke="#000000" points="148,-252.5 148,-282.5 409,-282.5 409,-252.5 148,-252.5"/>
<text text-anchor="start" x="155" y="-263.9" font-family="Arial" font-size="14.00" fill="#000000">work_url    </text>
<text text-anchor="start" x="242.087" y="-263.9" font-family="Arial" font-size="14.00" fill="#666666">[varchar(255)]</text>
<polygon fill="none" stroke="#000000" points="148,-222.5 148,-252.5 409,-252.5 409,-222.5 148,-222.5"/>
<text text-anchor="start" x="155" y="-233.9" font-family="Arial" font-size="14.00" fill="#000000">movie_url    </text>
<text text-anchor="start" x="249.8696" y="-233.9" font-family="Arial" font-size="14.00" fill="#666666">[varchar(255)]</text>
<polygon fill="none" stroke="#000000" points="148,-192.5 148,-222.5 409,-222.5 409,-192.5 148,-192.5"/>
<text text-anchor="start" x="154.8345" y="-203.9" font-family="Arial" font-size="14.00" fill="#000000">system_diagram_url    </text>
<text text-anchor="start" x="315.0463" y="-203.9" font-family="Arial" font-size="14.00" fill="#666666">[varchar(255)]</text>
<polygon fill="none" stroke="#000000" points="148,-162.5 148,-192.5 409,-192.5 409,-162.5 148,-162.5"/>
<text text-anchor="start" x="155" y="-173.9" font-family="Arial" font-size="14.00" fill="#000000">thumbnail_url    </text>
<text text-anchor="start" x="273.2146" y="-173.9" font-family="Arial" font-size="14.00" fill="#666666">[varchar(255)]</text>
<polygon fill="none" stroke="#000000" points="148,-132.5 148,-162.5 409,-162.5 409,-132.5 148,-132.5"/>
<text text-anchor="start" x="155" y="-143.9" font-family="Arial" font-size="14.00" fill="#000000">detail    </text>
<text text-anchor="start" x="222.6564" y="-143.9" font-family="Arial" font-size="14.00" fill="#666666">[text]</text>
<polygon fill="none" stroke="#000000" points="148,-102.5 148,-132.5 409,-132.5 409,-102.5 148,-102.5"/>
<text text-anchor="start" x="155" y="-113.9" font-family="Arial" font-size="14.00" fill="#000000">is_approved    </text>
<text text-anchor="start" x="265.4502" y="-113.9" font-family="Arial" font-size="14.00" fill="#666666">[tinyint(1)]</text>
<polygon fill="none" stroke="#000000" points="148,-72.5 148,-102.5 409,-102.5 409,-72.5 148,-72.5"/>
<text text-anchor="start" x="155" y="-83.9" font-family="Arial" font-size="14.00" fill="#000000">created_at    </text>
<text text-anchor="start" x="255.3422" y="-83.9" font-family="Arial" font-size="14.00" fill="#666666">[timestamp]</text>
<polygon fill="none" stroke="#000000" points="148,-42.5 148,-72.5 409,-72.5 409,-42.5 148,-42.5"/>
<text text-anchor="start" x="155" y="-53.9" font-family="Arial" font-size="14.00" fill="#000000">updated_at    </text>
<text text-anchor="start" x="259.2468" y="-53.9" font-family="Arial" font-size="14.00" fill="#666666">[timestamp]</text>
</g>
<!-- work_data_technologies&#45;&gt;work_data -->
<g id="edge1" class="edge">
<title>work_data_technologies:work_data_id&#45;&gt;work_data:id</title>
<path fill="none" stroke="#000000" d="M277.8543,-696.6537C224.0924,-687.033 250.1978,-597.6867 288,-547 321.5435,-502.0235 375.4565,-555.9765 409,-511 433.8437,-477.6885 450.5556,-417.5 409,-417.5"/>
<polygon fill="#000000" stroke="#000000" points="278.0346,-696.6686 287.6259,-701.9844 283.0173,-697.0843 288,-697.5 288,-697.5 288,-697.5 283.0173,-697.0843 288.3741,-693.0156 278.0346,-696.6686 278.0346,-696.6686"/>
<text text-anchor="start" x="6.77" y="-707.5" font-family="Arial" font-size="10.00" fill="#000000">FOREIGN KEY (work_data_id) REFERENCES work_data (id)</text>
</g>
<!-- technologies -->
<g id="node3" class="node">
<title>technologies</title>
<polygon fill="#efefef" stroke="transparent" points="513,-297.5 513,-332.5 755,-332.5 755,-297.5 513,-297.5"/>
<polygon fill="none" stroke="#000000" points="513,-297.5 513,-332.5 755,-332.5 755,-297.5 513,-297.5"/>
<text text-anchor="start" x="519.699" y="-310.3" font-family="Arial Bold" font-size="18.00" fill="#000000">technologies</text>
<text text-anchor="start" x="620.733" y="-310.3" font-family="Arial" font-size="14.00" fill="#000000">    </text>
<text text-anchor="start" x="654.9378" y="-310.3" font-family="Arial" font-size="14.00" fill="#666666">[BASE TABLE]</text>
<polygon fill="none" stroke="#000000" points="513,-267.5 513,-297.5 755,-297.5 755,-267.5 513,-267.5"/>
<text text-anchor="start" x="520" y="-278.9" font-family="Arial" font-size="14.00" fill="#000000">id    </text>
<text text-anchor="start" x="565.094" y="-278.9" font-family="Arial" font-size="14.00" fill="#666666">[int unsigned]</text>
<polygon fill="none" stroke="#000000" points="513,-237.5 513,-267.5 755,-267.5 755,-237.5 513,-237.5"/>
<text text-anchor="start" x="520" y="-248.9" font-family="Arial" font-size="14.00" fill="#000000">name    </text>
<text text-anchor="start" x="589.2132" y="-248.9" font-family="Arial" font-size="14.00" fill="#666666">[varchar(30)]</text>
<polygon fill="none" stroke="#000000" points="513,-207.5 513,-237.5 755,-237.5 755,-207.5 513,-207.5"/>
<text text-anchor="start" x="520" y="-218.9" font-family="Arial" font-size="14.00" fill="#000000">created_at    </text>
<text text-anchor="start" x="620.3422" y="-218.9" font-family="Arial" font-size="14.00" fill="#666666">[timestamp]</text>
<polygon fill="none" stroke="#000000" points="513,-177.5 513,-207.5 755,-207.5 755,-177.5 513,-177.5"/>
<text text-anchor="start" x="520" y="-188.9" font-family="Arial" font-size="14.00" fill="#000000">updated_at    </text>
<text text-anchor="start" x="624.2468" y="-188.9" font-family="Arial" font-size="14.00" fill="#666666">[timestamp]</text>
</g>
<!-- work_data_technologies&#45;&gt;technologies -->
<g id="edge2" class="edge">
<title>work_data_technologies:technology_id&#45;&gt;technologies:id</title>
<path fill="none" stroke="#000000" d="M632.9723,-666.5051C671.2631,-657.8681 637.0378,-594.77 623,-547 597.522,-460.2994 538.478,-462.7006 513,-376 501.2838,-336.1303 471.4444,-282.5 513,-282.5"/>
<polygon fill="#000000" stroke="#000000" points="632.9506,-666.5072 622.5532,-663.0222 627.9753,-667.0036 623,-667.5 623,-667.5 623,-667.5 627.9753,-667.0036 623.4468,-671.9778 632.9506,-666.5072 632.9506,-666.5072"/>
<text text-anchor="start" x="629.651" y="-677.5" font-family="Arial" font-size="10.00" fill="#000000">FOREIGN KEY (technology_id) REFERENCES technologies (id)</text>
</g>
</g>
</svg>
