<?xml version="1.0" encoding="UTF-8" standalone="no"?>
<!DOCTYPE svg PUBLIC "-//W3C//DTD SVG 1.1//EN"
 "http://www.w3.org/Graphics/SVG/1.1/DTD/svg11.dtd">
<!-- Generated by graphviz version 2.40.1 (20161225.0304)
 -->
<!-- Title: work_data_tools Pages: 1 -->
<svg width="801pt" height="802pt"
 viewBox="0.00 0.00 801.00 802.00" xmlns="http://www.w3.org/2000/svg" xmlns:xlink="http://www.w3.org/1999/xlink">
<g id="graph0" class="graph" transform="scale(1 1) rotate(0) translate(4 798)">
<title>work_data_tools</title>
<polygon fill="#ffffff" stroke="transparent" points="-4,4 -4,-798 797,-798 797,4 -4,4"/>
<!-- work_data_tools -->
<g id="node1" class="node">
<title>work_data_tools</title>
<polygon fill="#efefef" stroke="transparent" points="288,-712.5 288,-747.5 560,-747.5 560,-712.5 288,-712.5"/>
<polygon fill="none" stroke="#000000" points="288,-712.5 288,-747.5 560,-747.5 560,-712.5 288,-712.5"/>
<text text-anchor="start" x="294.6987" y="-725.3" font-family="Arial Bold" font-size="18.00" fill="#000000">work_data_tools</text>
<text text-anchor="start" x="425.7333" y="-725.3" font-family="Arial" font-size="14.00" fill="#000000">    </text>
<text text-anchor="start" x="459.9381" y="-725.3" font-family="Arial" font-size="14.00" fill="#666666">[BASE TABLE]</text>
<polygon fill="none" stroke="#000000" points="288,-682.5 288,-712.5 560,-712.5 560,-682.5 288,-682.5"/>
<text text-anchor="start" x="295" y="-693.9" font-family="Arial" font-size="14.00" fill="#000000">work_data_id </text>
<text text-anchor="start" x="382.1332" y="-693.9" font-family="Arial" font-size="14.00" fill="#666666">[int unsigned]</text>
<polygon fill="none" stroke="#000000" points="288,-652.5 288,-682.5 560,-682.5 560,-652.5 288,-652.5"/>
<text text-anchor="start" x="295" y="-663.9" font-family="Arial" font-size="14.00" fill="#000000">tool_id </text>
<text text-anchor="start" x="340.1248" y="-663.9" font-family="Arial" font-size="14.00" fill="#666666">[int unsigned]</text>
<polygon fill="none" stroke="#000000" points="288,-622.5 288,-652.5 560,-652.5 560,-622.5 288,-622.5"/>
<text text-anchor="start" x="295" y="-633.9" font-family="Arial" font-size="14.00" fill="#000000">created_at </text>
<text text-anchor="start" x="365.028" y="-633.9" font-family="Arial" font-size="14.00" fill="#666666">[timestamp]</text>
<polygon fill="none" stroke="#000000" points="288,-592.5 288,-622.5 560,-622.5 560,-592.5 288,-592.5"/>
<text text-anchor="start" x="295" y="-603.9" font-family="Arial" font-size="14.00" fill="#000000">updated_at </text>
<text text-anchor="start" x="368.9326" y="-603.9" font-family="Arial" font-size="14.00" fill="#666666">[timestamp]</text>
<polygon fill="none" stroke="#000000" stroke-width="3" points="286.5,-591.5 286.5,-749.5 561.5,-749.5 561.5,-591.5 286.5,-591.5"/>
</g>
<!-- work_data -->
<g id="node2" class="node">
<title>work_data</title>
<polygon fill="#efefef" stroke="transparent" points="129,-432.5 129,-467.5 390,-467.5 390,-432.5 129,-432.5"/>
<polygon fill="none" stroke="#000000" points="129,-432.5 129,-467.5 390,-467.5 390,-432.5 129,-432.5"/>
<text text-anchor="start" x="154.2062" y="-445.3" font-family="Arial Bold" font-size="18.00" fill="#000000">work_data</text>
<text text-anchor="start" x="237.2258" y="-445.3" font-family="Arial" font-size="14.00" fill="#000000">    </text>
<text text-anchor="start" x="271.4306" y="-445.3" font-family="Arial" font-size="14.00" fill="#666666">[BASE TABLE]</text>
<polygon fill="none" stroke="#000000" points="129,-402.5 129,-432.5 390,-432.5 390,-402.5 129,-402.5"/>
<text text-anchor="start" x="136" y="-413.9" font-family="Arial" font-size="14.00" fill="#000000">id    </text>
<text text-anchor="start" x="181.094" y="-413.9" font-family="Arial" font-size="14.00" fill="#666666">[int unsigned]</text>
<polygon fill="none" stroke="#000000" points="129,-372.5 129,-402.5 390,-402.5 390,-372.5 129,-372.5"/>
<text text-anchor="start" x="136" y="-383.9" font-family="Arial" font-size="14.00" fill="#000000">work_id    </text>
<text text-anchor="start" x="218.4264" y="-383.9" font-family="Arial" font-size="14.00" fill="#666666">[int unsigned]</text>
<polygon fill="none" stroke="#000000" points="129,-342.5 129,-372.5 390,-372.5 390,-342.5 129,-342.5"/>
<text text-anchor="start" x="136" y="-353.9" font-family="Arial" font-size="14.00" fill="#000000">name    </text>
<text text-anchor="start" x="205.2132" y="-353.9" font-family="Arial" font-size="14.00" fill="#666666">[varchar(100)]</text>
<polygon fill="none" stroke="#000000" points="129,-312.5 129,-342.5 390,-342.5 390,-312.5 129,-312.5"/>
<text text-anchor="start" x="136" y="-323.9" font-family="Arial" font-size="14.00" fill="#000000">catch_copy    </text>
<text text-anchor="start" x="241.0084" y="-323.9" font-family="Arial" font-size="14.00" fill="#666666">[varchar(100)]</text>
<polygon fill="none" stroke="#000000" points="129,-282.5 129,-312.5 390,-312.5 390,-282.5 129,-282.5"/>
<text text-anchor="start" x="136" y="-293.9" font-family="Arial" font-size="14.00" fill="#000000">description    </text>
<text text-anchor="start" x="237.8822" y="-293.9" font-family="Arial" font-size="14.00" fill="#666666">[varchar(500)]</text>
<polygon fill="none" stroke="#000000" points="129,-252.5 129,-282.5 390,-282.5 390,-252.5 129,-252.5"/>
<text text-anchor="start" x="136" y="-263.9" font-family="Arial" font-size="14.00" fill="#000000">work_url    </text>
<text text-anchor="start" x="223.087" y="-263.9" font-family="Arial" font-size="14.00" fill="#666666">[varchar(255)]</text>
<polygon fill="none" stroke="#000000" points="129,-222.5 129,-252.5 390,-252.5 390,-222.5 129,-222.5"/>
<text text-anchor="start" x="136" y="-233.9" font-family="Arial" font-size="14.00" fill="#000000">movie_url    </text>
<text text-anchor="start" x="230.8696" y="-233.9" font-family="Arial" font-size="14.00" fill="#666666">[varchar(255)]</text>
<polygon fill="none" stroke="#000000" points="129,-192.5 129,-222.5 390,-222.5 390,-192.5 129,-192.5"/>
<text text-anchor="start" x="135.8345" y="-203.9" font-family="Arial" font-size="14.00" fill="#000000">system_diagram_url    </text>
<text text-anchor="start" x="296.0463" y="-203.9" font-family="Arial" font-size="14.00" fill="#666666">[varchar(255)]</text>
<polygon fill="none" stroke="#000000" points="129,-162.5 129,-192.5 390,-192.5 390,-162.5 129,-162.5"/>
<text text-anchor="start" x="136" y="-173.9" font-family="Arial" font-size="14.00" fill="#000000">thumbnail_url    </text>
<text text-anchor="start" x="254.2146" y="-173.9" font-family="Arial" font-size="14.00" fill="#666666">[varchar(255)]</text>
<polygon fill="none" stroke="#000000" points="129,-132.5 129,-162.5 390,-162.5 390,-132.5 129,-132.5"/>
<text text-anchor="start" x="136" y="-143.9" font-family="Arial" font-size="14.00" fill="#000000">detail    </text>
<text text-anchor="start" x="203.6564" y="-143.9" font-family="Arial" font-size="14.00" fill="#666666">[text]</text>
<polygon fill="none" stroke="#000000" points="129,-102.5 129,-132.5 390,-132.5 390,-102.5 129,-102.5"/>
<text text-anchor="start" x="136" y="-113.9" font-family="Arial" font-size="14.00" fill="#000000">is_approved    </text>
<text text-anchor="start" x="246.4502" y="-113.9" font-family="Arial" font-size="14.00" fill="#666666">[tinyint(1)]</text>
<polygon fill="none" stroke="#000000" points="129,-72.5 129,-102.5 390,-102.5 390,-72.5 129,-72.5"/>
<text text-anchor="start" x="136" y="-83.9" font-family="Arial" font-size="14.00" fill="#000000">created_at    </text>
<text text-anchor="start" x="236.3422" y="-83.9" font-family="Arial" font-size="14.00" fill="#666666">[timestamp]</text>
<polygon fill="none" stroke="#000000" points="129,-42.5 129,-72.5 390,-72.5 390,-42.5 129,-42.5"/>
<text text-anchor="start" x="136" y="-53.9" font-family="Arial" font-size="14.00" fill="#000000">updated_at    </text>
<text text-anchor="start" x="240.2468" y="-53.9" font-family="Arial" font-size="14.00" fill="#666666">[timestamp]</text>
</g>
<!-- work_data_tools&#45;&gt;work_data -->
<g id="edge1" class="edge">
<title>work_data_tools:work_data_id&#45;&gt;work_data:id</title>
<path fill="none" stroke="#000000" d="M277.8658,-696.662C224.2326,-687.1349 251.4796,-598.6179 288,-547 315.7662,-507.7553 362.2338,-550.2447 390,-511 414.0013,-477.0766 431.5556,-417.5 390,-417.5"/>
<polygon fill="#000000" stroke="#000000" points="278.034,-696.6759 287.6291,-701.9847 283.017,-697.0879 288,-697.5 288,-697.5 288,-697.5 283.017,-697.0879 288.3709,-693.0153 278.034,-696.6759 278.034,-696.6759"/>
<text text-anchor="start" x="6.77" y="-707.5" font-family="Arial" font-size="10.00" fill="#000000">FOREIGN KEY (work_data_id) REFERENCES work_data (id)</text>
</g>
<!-- tools -->
<g id="node3" class="node">
<title>tools</title>
<polygon fill="#efefef" stroke="transparent" points="494,-297.5 494,-332.5 684,-332.5 684,-297.5 494,-297.5"/>
<polygon fill="none" stroke="#000000" points="494,-297.5 494,-332.5 684,-332.5 684,-297.5 494,-297.5"/>
<text text-anchor="start" x="506.2116" y="-310.3" font-family="Arial Bold" font-size="18.00" fill="#000000">tools</text>
<text text-anchor="start" x="544.2204" y="-310.3" font-family="Arial" font-size="14.00" fill="#000000">    </text>
<text text-anchor="start" x="578.4252" y="-310.3" font-family="Arial" font-size="14.00" fill="#666666">[BASE TABLE]</text>
<polygon fill="none" stroke="#000000" points="494,-267.5 494,-297.5 684,-297.5 684,-267.5 494,-267.5"/>
<text text-anchor="start" x="501" y="-278.9" font-family="Arial" font-size="14.00" fill="#000000">id    </text>
<text text-anchor="start" x="546.094" y="-278.9" font-family="Arial" font-size="14.00" fill="#666666">[int unsigned]</text>
<polygon fill="none" stroke="#000000" points="494,-237.5 494,-267.5 684,-267.5 684,-237.5 494,-237.5"/>
<text text-anchor="start" x="501" y="-248.9" font-family="Arial" font-size="14.00" fill="#000000">name    </text>
<text text-anchor="start" x="570.2132" y="-248.9" font-family="Arial" font-size="14.00" fill="#666666">[varchar(30)]</text>
<polygon fill="none" stroke="#000000" points="494,-207.5 494,-237.5 684,-237.5 684,-207.5 494,-207.5"/>
<text text-anchor="start" x="501" y="-218.9" font-family="Arial" font-size="14.00" fill="#000000">created_at    </text>
<text text-anchor="start" x="601.3422" y="-218.9" font-family="Arial" font-size="14.00" fill="#666666">[timestamp]</text>
<polygon fill="none" stroke="#000000" points="494,-177.5 494,-207.5 684,-207.5 684,-177.5 494,-177.5"/>
<text text-anchor="start" x="500.7076" y="-188.9" font-family="Arial" font-size="14.00" fill="#000000">updated_at    </text>
<text text-anchor="start" x="604.9544" y="-188.9" font-family="Arial" font-size="14.00" fill="#666666">[timestamp]</text>
</g>
<!-- work_data_tools&#45;&gt;tools -->
<g id="edge2" class="edge">
<title>work_data_tools:tool_id&#45;&gt;tools:id</title>
<path fill="none" stroke="#000000" d="M570.3886,-666.9745C716.1227,-651.1347 324.1227,-282.5 494,-282.5"/>
<polygon fill="#000000" stroke="#000000" points="569.9872,-666.9947 559.7726,-663.0057 564.9936,-667.2474 560,-667.5 560,-667.5 560,-667.5 564.9936,-667.2474 560.2274,-671.9943 569.9872,-666.9947 569.9872,-666.9947"/>
<text text-anchor="start" x="567.276" y="-677.5" font-family="Arial" font-size="10.00" fill="#000000">FOREIGN KEY (tool_id) REFERENCES tools (id)</text>
</g>
</g>
</svg>
