<?xml version="1.0" encoding="UTF-8" standalone="no"?>
<!DOCTYPE svg PUBLIC "-//W3C//DTD SVG 1.1//EN"
 "http://www.w3.org/Graphics/SVG/1.1/DTD/svg11.dtd">
<!-- Generated by graphviz version 2.40.1 (20161225.0304)
 -->
<!-- Title: work_data_genres Pages: 1 -->
<svg width="837pt" height="802pt"
 viewBox="0.00 0.00 837.00 802.00" xmlns="http://www.w3.org/2000/svg" xmlns:xlink="http://www.w3.org/1999/xlink">
<g id="graph0" class="graph" transform="scale(1 1) rotate(0) translate(4 798)">
<title>work_data_genres</title>
<polygon fill="#ffffff" stroke="transparent" points="-4,4 -4,-798 833,-798 833,4 -4,4"/>
<!-- work_data_genres -->
<g id="node1" class="node">
<title>work_data_genres</title>
<polygon fill="#efefef" stroke="transparent" points="288,-712.5 288,-747.5 577,-747.5 577,-712.5 288,-712.5"/>
<polygon fill="none" stroke="#000000" points="288,-712.5 288,-747.5 577,-747.5 577,-712.5 288,-712.5"/>
<text text-anchor="start" x="294.6946" y="-725.3" font-family="Arial Bold" font-size="18.00" fill="#000000">work_data_genres</text>
<text text-anchor="start" x="442.7374" y="-725.3" font-family="Arial" font-size="14.00" fill="#000000">    </text>
<text text-anchor="start" x="476.9422" y="-725.3" font-family="Arial" font-size="14.00" fill="#666666">[BASE TABLE]</text>
<polygon fill="none" stroke="#000000" points="288,-682.5 288,-712.5 577,-712.5 577,-682.5 288,-682.5"/>
<text text-anchor="start" x="295" y="-693.9" font-family="Arial" font-size="14.00" fill="#000000">work_data_id </text>
<text text-anchor="start" x="382.1332" y="-693.9" font-family="Arial" font-size="14.00" fill="#666666">[int unsigned]</text>
<polygon fill="none" stroke="#000000" points="288,-652.5 288,-682.5 577,-682.5 577,-652.5 288,-652.5"/>
<text text-anchor="start" x="295" y="-663.9" font-family="Arial" font-size="14.00" fill="#000000">genre_id </text>
<text text-anchor="start" x="353.3534" y="-663.9" font-family="Arial" font-size="14.00" fill="#666666">[int unsigned]</text>
<polygon fill="none" stroke="#000000" points="288,-622.5 288,-652.5 577,-652.5 577,-622.5 288,-622.5"/>
<text text-anchor="start" x="295" y="-633.9" font-family="Arial" font-size="14.00" fill="#000000">created_at </text>
<text text-anchor="start" x="365.028" y="-633.9" font-family="Arial" font-size="14.00" fill="#666666">[timestamp]</text>
<polygon fill="none" stroke="#000000" points="288,-592.5 288,-622.5 577,-622.5 577,-592.5 288,-592.5"/>
<text text-anchor="start" x="295" y="-603.9" font-family="Arial" font-size="14.00" fill="#000000">updated_at </text>
<text text-anchor="start" x="368.9326" y="-603.9" font-family="Arial" font-size="14.00" fill="#666666">[timestamp]</text>
<polygon fill="none" stroke="#000000" stroke-width="3" points="286,-591.5 286,-749.5 578,-749.5 578,-591.5 286,-591.5"/>
</g>
<!-- work_data -->
<g id="node2" class="node">
<title>work_data</title>
<polygon fill="#efefef" stroke="transparent" points="136,-432.5 136,-467.5 397,-467.5 397,-432.5 136,-432.5"/>
<polygon fill="none" stroke="#000000" points="136,-432.5 136,-467.5 397,-467.5 397,-432.5 136,-432.5"/>
<text text-anchor="start" x="161.2062" y="-445.3" font-family="Arial Bold" font-size="18.00" fill="#000000">work_data</text>
<text text-anchor="start" x="244.2258" y="-445.3" font-family="Arial" font-size="14.00" fill="#000000">    </text>
<text text-anchor="start" x="278.4306" y="-445.3" font-family="Arial" font-size="14.00" fill="#666666">[BASE TABLE]</text>
<polygon fill="none" stroke="#000000" points="136,-402.5 136,-432.5 397,-432.5 397,-402.5 136,-402.5"/>
<text text-anchor="start" x="143" y="-413.9" font-family="Arial" font-size="14.00" fill="#000000">id    </text>
<text text-anchor="start" x="188.094" y="-413.9" font-family="Arial" font-size="14.00" fill="#666666">[int unsigned]</text>
<polygon fill="none" stroke="#000000" points="136,-372.5 136,-402.5 397,-402.5 397,-372.5 136,-372.5"/>
<text text-anchor="start" x="143" y="-383.9" font-family="Arial" font-size="14.00" fill="#000000">work_id    </text>
<text text-anchor="start" x="225.4264" y="-383.9" font-family="Arial" font-size="14.00" fill="#666666">[int unsigned]</text>
<polygon fill="none" stroke="#000000" points="136,-342.5 136,-372.5 397,-372.5 397,-342.5 136,-342.5"/>
<text text-anchor="start" x="143" y="-353.9" font-family="Arial" font-size="14.00" fill="#000000">name    </text>
<text text-anchor="start" x="212.2132" y="-353.9" font-family="Arial" font-size="14.00" fill="#666666">[varchar(100)]</text>
<polygon fill="none" stroke="#000000" points="136,-312.5 136,-342.5 397,-342.5 397,-312.5 136,-312.5"/>
<text text-anchor="start" x="143" y="-323.9" font-family="Arial" font-size="14.00" fill="#000000">catch_copy    </text>
<text text-anchor="start" x="248.0084" y="-323.9" font-family="Arial" font-size="14.00" fill="#666666">[varchar(100)]</text>
<polygon fill="none" stroke="#000000" points="136,-282.5 136,-312.5 397,-312.5 397,-282.5 136,-282.5"/>
<text text-anchor="start" x="143" y="-293.9" font-family="Arial" font-size="14.00" fill="#000000">description    </text>
<text text-anchor="start" x="244.8822" y="-293.9" font-family="Arial" font-size="14.00" fill="#666666">[varchar(500)]</text>
<polygon fill="none" stroke="#000000" points="136,-252.5 136,-282.5 397,-282.5 397,-252.5 136,-252.5"/>
<text text-anchor="start" x="143" y="-263.9" font-family="Arial" font-size="14.00" fill="#000000">work_url    </text>
<text text-anchor="start" x="230.087" y="-263.9" font-family="Arial" font-size="14.00" fill="#666666">[varchar(255)]</text>
<polygon fill="none" stroke="#000000" points="136,-222.5 136,-252.5 397,-252.5 397,-222.5 136,-222.5"/>
<text text-anchor="start" x="143" y="-233.9" font-family="Arial" font-size="14.00" fill="#000000">movie_url    </text>
<text text-anchor="start" x="237.8696" y="-233.9" font-family="Arial" font-size="14.00" fill="#666666">[varchar(255)]</text>
<polygon fill="none" stroke="#000000" points="136,-192.5 136,-222.5 397,-222.5 397,-192.5 136,-192.5"/>
<text text-anchor="start" x="142.8345" y="-203.9" font-family="Arial" font-size="14.00" fill="#000000">system_diagram_url    </text>
<text text-anchor="start" x="303.0463" y="-203.9" font-family="Arial" font-size="14.00" fill="#666666">[varchar(255)]</text>
<polygon fill="none" stroke="#000000" points="136,-162.5 136,-192.5 397,-192.5 397,-162.5 136,-162.5"/>
<text text-anchor="start" x="143" y="-173.9" font-family="Arial" font-size="14.00" fill="#000000">thumbnail_url    </text>
<text text-anchor="start" x="261.2146" y="-173.9" font-family="Arial" font-size="14.00" fill="#666666">[varchar(255)]</text>
<polygon fill="none" stroke="#000000" points="136,-132.5 136,-162.5 397,-162.5 397,-132.5 136,-132.5"/>
<text text-anchor="start" x="143" y="-143.9" font-family="Arial" font-size="14.00" fill="#000000">detail    </text>
<text text-anchor="start" x="210.6564" y="-143.9" font-family="Arial" font-size="14.00" fill="#666666">[text]</text>
<polygon fill="none" stroke="#000000" points="136,-102.5 136,-132.5 397,-132.5 397,-102.5 136,-102.5"/>
<text text-anchor="start" x="143" y="-113.9" font-family="Arial" font-size="14.00" fill="#000000">is_approved    </text>
<text text-anchor="start" x="253.4502" y="-113.9" font-family="Arial" font-size="14.00" fill="#666666">[tinyint(1)]</text>
<polygon fill="none" stroke="#000000" points="136,-72.5 136,-102.5 397,-102.5 397,-72.5 136,-72.5"/>
<text text-anchor="start" x="143" y="-83.9" font-family="Arial" font-size="14.00" fill="#000000">created_at    </text>
<text text-anchor="start" x="243.3422" y="-83.9" font-family="Arial" font-size="14.00" fill="#666666">[timestamp]</text>
<polygon fill="none" stroke="#000000" points="136,-42.5 136,-72.5 397,-72.5 397,-42.5 136,-42.5"/>
<text text-anchor="start" x="143" y="-53.9" font-family="Arial" font-size="14.00" fill="#000000">updated_at    </text>
<text text-anchor="start" x="247.2468" y="-53.9" font-family="Arial" font-size="14.00" fill="#666666">[timestamp]</text>
</g>
<!-- work_data_genres&#45;&gt;work_data -->
<g id="edge1" class="edge">
<title>work_data_genres:work_data_id&#45;&gt;work_data:id</title>
<path fill="none" stroke="#000000" d="M277.8611,-696.6587C224.1755,-687.094 250.9576,-598.2446 288,-547 317.8879,-505.653 367.1121,-552.347 397,-511 421.3444,-477.3219 438.5556,-417.5 397,-417.5"/>
<polygon fill="#000000" stroke="#000000" points="278.0342,-696.673 287.6278,-701.9846 283.0171,-697.0865 288,-697.5 288,-697.5 288,-697.5 283.0171,-697.0865 288.3722,-693.0154 278.0342,-696.673 278.0342,-696.673"/>
<text text-anchor="start" x="6.77" y="-707.5" font-family="Arial" font-size="10.00" fill="#000000">FOREIGN KEY (work_data_id) REFERENCES work_data (id)</text>
</g>
<!-- genres -->
<g id="node3" class="node">
<title>genres</title>
<polygon fill="#efefef" stroke="transparent" points="501,-297.5 501,-332.5 697,-332.5 697,-297.5 501,-297.5"/>
<polygon fill="none" stroke="#000000" points="501,-297.5 501,-332.5 697,-332.5 697,-297.5 501,-297.5"/>
<text text-anchor="start" x="507.7075" y="-310.3" font-family="Arial Bold" font-size="18.00" fill="#000000">genres</text>
<text text-anchor="start" x="562.7245" y="-310.3" font-family="Arial" font-size="14.00" fill="#000000">    </text>
<text text-anchor="start" x="596.9293" y="-310.3" font-family="Arial" font-size="14.00" fill="#666666">[BASE TABLE]</text>
<polygon fill="none" stroke="#000000" points="501,-267.5 501,-297.5 697,-297.5 697,-267.5 501,-267.5"/>
<text text-anchor="start" x="508" y="-278.9" font-family="Arial" font-size="14.00" fill="#000000">id    </text>
<text text-anchor="start" x="553.094" y="-278.9" font-family="Arial" font-size="14.00" fill="#666666">[int unsigned]</text>
<polygon fill="none" stroke="#000000" points="501,-237.5 501,-267.5 697,-267.5 697,-237.5 501,-237.5"/>
<text text-anchor="start" x="508" y="-248.9" font-family="Arial" font-size="14.00" fill="#000000">name    </text>
<text text-anchor="start" x="577.2132" y="-248.9" font-family="Arial" font-size="14.00" fill="#666666">[varchar(30)]</text>
<polygon fill="none" stroke="#000000" points="501,-207.5 501,-237.5 697,-237.5 697,-207.5 501,-207.5"/>
<text text-anchor="start" x="508" y="-218.9" font-family="Arial" font-size="14.00" fill="#000000">created_at    </text>
<text text-anchor="start" x="608.3422" y="-218.9" font-family="Arial" font-size="14.00" fill="#666666">[timestamp]</text>
<polygon fill="none" stroke="#000000" points="501,-177.5 501,-207.5 697,-207.5 697,-177.5 501,-177.5"/>
<text text-anchor="start" x="508" y="-188.9" font-family="Arial" font-size="14.00" fill="#000000">updated_at    </text>
<text text-anchor="start" x="612.2468" y="-188.9" font-family="Arial" font-size="14.00" fill="#666666">[timestamp]</text>
</g>
<!-- work_data_genres&#45;&gt;genres -->
<g id="edge2" class="edge">
<title>work_data_genres:genre_id&#45;&gt;genres:id</title>
<path fill="none" stroke="#000000" d="M587.4236,-666.9745C733.4355,-651.1347 330.334,-282.5 501,-282.5"/>
<polygon fill="#000000" stroke="#000000" points="586.9873,-666.9964 576.7734,-663.0057 581.9937,-667.2482 577,-667.5 577,-667.5 577,-667.5 581.9937,-667.2482 577.2266,-671.9943 586.9873,-666.9964 586.9873,-666.9964"/>
<text text-anchor="start" x="583.827" y="-677.5" font-family="Arial" font-size="10.00" fill="#000000">FOREIGN KEY (genre_id) REFERENCES genres (id)</text>
</g>
</g>
</svg>
