<?xml version="1.0" encoding="UTF-8" standalone="no"?>
<!DOCTYPE svg PUBLIC "-//W3C//DTD SVG 1.1//EN"
 "http://www.w3.org/Graphics/SVG/1.1/DTD/svg11.dtd">
<!-- Generated by graphviz version 2.40.1 (20161225.0304)
 -->
<!-- Title: work_data Pages: 1 -->
<svg width="1978pt" height="1139pt"
 viewBox="0.00 0.00 1977.50 1139.00" xmlns="http://www.w3.org/2000/svg" xmlns:xlink="http://www.w3.org/1999/xlink">
<g id="graph0" class="graph" transform="scale(1 1) rotate(0) translate(4 1135)">
<title>work_data</title>
<polygon fill="#ffffff" stroke="transparent" points="-4,4 -4,-1135 1973.5,-1135 1973.5,4 -4,4"/>
<!-- work_data -->
<g id="node1" class="node">
<title>work_data</title>
<polygon fill="#efefef" stroke="transparent" points="885.5,-712.5 885.5,-747.5 1116.5,-747.5 1116.5,-712.5 885.5,-712.5"/>
<polygon fill="none" stroke="#000000" points="885.5,-712.5 885.5,-747.5 1116.5,-747.5 1116.5,-712.5 885.5,-712.5"/>
<text text-anchor="start" x="895.7062" y="-725.3" font-family="Arial Bold" font-size="18.00" fill="#000000">work_data</text>
<text text-anchor="start" x="978.7258" y="-725.3" font-family="Arial" font-size="14.00" fill="#000000">    </text>
<text text-anchor="start" x="1012.9306" y="-725.3" font-family="Arial" font-size="14.00" fill="#666666">[BASE TABLE]</text>
<polygon fill="none" stroke="#000000" points="885.5,-682.5 885.5,-712.5 1116.5,-712.5 1116.5,-682.5 885.5,-682.5"/>
<text text-anchor="start" x="892.5" y="-693.9" font-family="Arial" font-size="14.00" fill="#000000">id </text>
<text text-anchor="start" x="907.2798" y="-693.9" font-family="Arial" font-size="14.00" fill="#666666">[int unsigned]</text>
<polygon fill="none" stroke="#000000" points="885.5,-652.5 885.5,-682.5 1116.5,-682.5 1116.5,-652.5 885.5,-652.5"/>
<text text-anchor="start" x="892.5" y="-663.9" font-family="Arial" font-size="14.00" fill="#000000">work_id </text>
<text text-anchor="start" x="944.6122" y="-663.9" font-family="Arial" font-size="14.00" fill="#666666">[int unsigned]</text>
<polygon fill="none" stroke="#000000" points="885.5,-622.5 885.5,-652.5 1116.5,-652.5 1116.5,-622.5 885.5,-622.5"/>
<text text-anchor="start" x="892.5" y="-633.9" font-family="Arial" font-size="14.00" fill="#000000">name </text>
<text text-anchor="start" x="931.399" y="-633.9" font-family="Arial" font-size="14.00" fill="#666666">[varchar(100)]</text>
<polygon fill="none" stroke="#000000" points="885.5,-592.5 885.5,-622.5 1116.5,-622.5 1116.5,-592.5 885.5,-592.5"/>
<text text-anchor="start" x="892.5" y="-603.9" font-family="Arial" font-size="14.00" fill="#000000">catch_copy </text>
<text text-anchor="start" x="967.1942" y="-603.9" font-family="Arial" font-size="14.00" fill="#666666">[varchar(100)]</text>
<polygon fill="none" stroke="#000000" points="885.5,-562.5 885.5,-592.5 1116.5,-592.5 1116.5,-562.5 885.5,-562.5"/>
<text text-anchor="start" x="892.5" y="-573.9" font-family="Arial" font-size="14.00" fill="#000000">description </text>
<text text-anchor="start" x="964.068" y="-573.9" font-family="Arial" font-size="14.00" fill="#666666">[varchar(500)]</text>
<polygon fill="none" stroke="#000000" points="885.5,-532.5 885.5,-562.5 1116.5,-562.5 1116.5,-532.5 885.5,-532.5"/>
<text text-anchor="start" x="892.5" y="-543.9" font-family="Arial" font-size="14.00" fill="#000000">work_url </text>
<text text-anchor="start" x="949.2728" y="-543.9" font-family="Arial" font-size="14.00" fill="#666666">[varchar(255)]</text>
<polygon fill="none" stroke="#000000" points="885.5,-502.5 885.5,-532.5 1116.5,-532.5 1116.5,-502.5 885.5,-502.5"/>
<text text-anchor="start" x="892.5" y="-513.9" font-family="Arial" font-size="14.00" fill="#000000">movie_url </text>
<text text-anchor="start" x="957.0554" y="-513.9" font-family="Arial" font-size="14.00" fill="#666666">[varchar(255)]</text>
<polygon fill="none" stroke="#000000" points="885.5,-472.5 885.5,-502.5 1116.5,-502.5 1116.5,-472.5 885.5,-472.5"/>
<text text-anchor="start" x="892.4916" y="-483.9" font-family="Arial" font-size="14.00" fill="#000000">system_diagram_url </text>
<text text-anchor="start" x="1022.3892" y="-483.9" font-family="Arial" font-size="14.00" fill="#666666">[varchar(255)]</text>
<polygon fill="none" stroke="#000000" points="885.5,-442.5 885.5,-472.5 1116.5,-472.5 1116.5,-442.5 885.5,-442.5"/>
<text text-anchor="start" x="892.5" y="-453.9" font-family="Arial" font-size="14.00" fill="#000000">thumbnail_url </text>
<text text-anchor="start" x="980.4004" y="-453.9" font-family="Arial" font-size="14.00" fill="#666666">[varchar(255)]</text>
<polygon fill="none" stroke="#000000" points="885.5,-412.5 885.5,-442.5 1116.5,-442.5 1116.5,-412.5 885.5,-412.5"/>
<text text-anchor="start" x="892.5" y="-423.9" font-family="Arial" font-size="14.00" fill="#000000">detail </text>
<text text-anchor="start" x="929.8422" y="-423.9" font-family="Arial" font-size="14.00" fill="#666666">[text]</text>
<polygon fill="none" stroke="#000000" points="885.5,-382.5 885.5,-412.5 1116.5,-412.5 1116.5,-382.5 885.5,-382.5"/>
<text text-anchor="start" x="892.5" y="-393.9" font-family="Arial" font-size="14.00" fill="#000000">is_approved </text>
<text text-anchor="start" x="972.636" y="-393.9" font-family="Arial" font-size="14.00" fill="#666666">[tinyint(1)]</text>
<polygon fill="none" stroke="#000000" points="885.5,-352.5 885.5,-382.5 1116.5,-382.5 1116.5,-352.5 885.5,-352.5"/>
<text text-anchor="start" x="892.5" y="-363.9" font-family="Arial" font-size="14.00" fill="#000000">created_at </text>
<text text-anchor="start" x="962.528" y="-363.9" font-family="Arial" font-size="14.00" fill="#666666">[timestamp]</text>
<polygon fill="none" stroke="#000000" points="885.5,-322.5 885.5,-352.5 1116.5,-352.5 1116.5,-322.5 885.5,-322.5"/>
<text text-anchor="start" x="892.5" y="-333.9" font-family="Arial" font-size="14.00" fill="#000000">updated_at </text>
<text text-anchor="start" x="966.4326" y="-333.9" font-family="Arial" font-size="14.00" fill="#666666">[timestamp]</text>
<polygon fill="none" stroke="#000000" stroke-width="3" points="883.5,-321.5 883.5,-749.5 1117.5,-749.5 1117.5,-321.5 883.5,-321.5"/>
</g>
<!-- works -->
<g id="node7" class="node">
<title>works</title>
<polygon fill="#efefef" stroke="transparent" points="906.5,-162.5 906.5,-197.5 1096.5,-197.5 1096.5,-162.5 906.5,-162.5"/>
<polygon fill="none" stroke="#000000" points="906.5,-162.5 906.5,-197.5 1096.5,-197.5 1096.5,-162.5 906.5,-162.5"/>
<text text-anchor="start" x="914.2197" y="-175.3" font-family="Arial Bold" font-size="18.00" fill="#000000">works</text>
<text text-anchor="start" x="961.2123" y="-175.3" font-family="Arial" font-size="14.00" fill="#000000">    </text>
<text text-anchor="start" x="995.4171" y="-175.3" font-family="Arial" font-size="14.00" fill="#666666">[BASE TABLE]</text>
<polygon fill="none" stroke="#000000" points="906.5,-132.5 906.5,-162.5 1096.5,-162.5 1096.5,-132.5 906.5,-132.5"/>
<text text-anchor="start" x="913.5" y="-143.9" font-family="Arial" font-size="14.00" fill="#000000">id    </text>
<text text-anchor="start" x="958.594" y="-143.9" font-family="Arial" font-size="14.00" fill="#666666">[int unsigned]</text>
<polygon fill="none" stroke="#000000" points="906.5,-102.5 906.5,-132.5 1096.5,-132.5 1096.5,-102.5 906.5,-102.5"/>
<text text-anchor="start" x="913.5" y="-113.9" font-family="Arial" font-size="14.00" fill="#000000">event_id    </text>
<text text-anchor="start" x="1000.615" y="-113.9" font-family="Arial" font-size="14.00" fill="#666666">[int unsigned]</text>
<polygon fill="none" stroke="#000000" points="906.5,-72.5 906.5,-102.5 1096.5,-102.5 1096.5,-72.5 906.5,-72.5"/>
<text text-anchor="start" x="913.5" y="-83.9" font-family="Arial" font-size="14.00" fill="#000000">created_at    </text>
<text text-anchor="start" x="1013.8422" y="-83.9" font-family="Arial" font-size="14.00" fill="#666666">[timestamp]</text>
<polygon fill="none" stroke="#000000" points="906.5,-42.5 906.5,-72.5 1096.5,-72.5 1096.5,-42.5 906.5,-42.5"/>
<text text-anchor="start" x="913.2076" y="-53.9" font-family="Arial" font-size="14.00" fill="#000000">updated_at    </text>
<text text-anchor="start" x="1017.4544" y="-53.9" font-family="Arial" font-size="14.00" fill="#666666">[timestamp]</text>
</g>
<!-- work_data&#45;&gt;works -->
<g id="edge6" class="edge">
<title>work_data:work_id&#45;&gt;works:id</title>
<path fill="none" stroke="#000000" d="M1126.8825,-667.178C1287.5046,-656.9782 1226.0808,-406.9646 1116.5,-277 1055.4591,-204.6045 967.5409,-313.3955 906.5,-241 879.713,-209.2302 864.9444,-147.5 906.5,-147.5"/>
<polygon fill="#000000" stroke="#000000" points="1126.4952,-667.1899 1116.3605,-663.0022 1121.4976,-667.345 1116.5,-667.5 1116.5,-667.5 1116.5,-667.5 1121.4976,-667.345 1116.6395,-671.9978 1126.4952,-667.1899 1126.4952,-667.1899"/>
<text text-anchor="start" x="1123.785" y="-677.5" font-family="Arial" font-size="10.00" fill="#000000">FOREIGN KEY (work_id) REFERENCES works (id)</text>
</g>
<!-- work_data_genres -->
<g id="node2" class="node">
<title>work_data_genres</title>
<polygon fill="#efefef" stroke="transparent" points="43.5,-1022.5 43.5,-1057.5 332.5,-1057.5 332.5,-1022.5 43.5,-1022.5"/>
<polygon fill="none" stroke="#000000" points="43.5,-1022.5 43.5,-1057.5 332.5,-1057.5 332.5,-1022.5 43.5,-1022.5"/>
<text text-anchor="start" x="50.1946" y="-1035.3" font-family="Arial Bold" font-size="18.00" fill="#000000">work_data_genres</text>
<text text-anchor="start" x="198.2374" y="-1035.3" font-family="Arial" font-size="14.00" fill="#000000">    </text>
<text text-anchor="start" x="232.4422" y="-1035.3" font-family="Arial" font-size="14.00" fill="#666666">[BASE TABLE]</text>
<polygon fill="none" stroke="#000000" points="43.5,-992.5 43.5,-1022.5 332.5,-1022.5 332.5,-992.5 43.5,-992.5"/>
<text text-anchor="start" x="50.5" y="-1003.9" font-family="Arial" font-size="14.00" fill="#000000">work_data_id    </text>
<text text-anchor="start" x="167.9474" y="-1003.9" font-family="Arial" font-size="14.00" fill="#666666">[int unsigned]</text>
<polygon fill="none" stroke="#000000" points="43.5,-962.5 43.5,-992.5 332.5,-992.5 332.5,-962.5 43.5,-962.5"/>
<text text-anchor="start" x="50.5" y="-973.9" font-family="Arial" font-size="14.00" fill="#000000">genre_id    </text>
<text text-anchor="start" x="139.1676" y="-973.9" font-family="Arial" font-size="14.00" fill="#666666">[int unsigned]</text>
<polygon fill="none" stroke="#000000" points="43.5,-932.5 43.5,-962.5 332.5,-962.5 332.5,-932.5 43.5,-932.5"/>
<text text-anchor="start" x="50.5" y="-943.9" font-family="Arial" font-size="14.00" fill="#000000">created_at    </text>
<text text-anchor="start" x="150.8422" y="-943.9" font-family="Arial" font-size="14.00" fill="#666666">[timestamp]</text>
<polygon fill="none" stroke="#000000" points="43.5,-902.5 43.5,-932.5 332.5,-932.5 332.5,-902.5 43.5,-902.5"/>
<text text-anchor="start" x="50.5" y="-913.9" font-family="Arial" font-size="14.00" fill="#000000">updated_at    </text>
<text text-anchor="start" x="154.7468" y="-913.9" font-family="Arial" font-size="14.00" fill="#666666">[timestamp]</text>
</g>
<!-- work_data_genres&#45;&gt;work_data -->
<g id="edge1" class="edge">
<title>work_data_genres:work_data_id&#45;&gt;work_data:id</title>
<path fill="none" stroke="#000000" d="M342.5703,-1006.7892C406.9985,-996.8324 328.255,-884.7776 384.5,-830 467.0003,-749.6521 770.3389,-697.5 885.5,-697.5"/>
<polygon fill="#000000" stroke="#000000" points="342.4752,-1006.7958 332.1831,-1003.0112 337.4876,-1007.1479 332.5,-1007.5 332.5,-1007.5 332.5,-1007.5 337.4876,-1007.1479 332.8169,-1011.9888 342.4752,-1006.7958 342.4752,-1006.7958"/>
<text text-anchor="start" x="339.27" y="-1017.5" font-family="Arial" font-size="10.00" fill="#000000">FOREIGN KEY (work_data_id) REFERENCES work_data (id)</text>
</g>
<!-- work_data_images -->
<g id="node3" class="node">
<title>work_data_images</title>
<polygon fill="#efefef" stroke="transparent" points="436.5,-1052.5 436.5,-1087.5 728.5,-1087.5 728.5,-1052.5 436.5,-1052.5"/>
<polygon fill="none" stroke="#000000" points="436.5,-1052.5 436.5,-1087.5 728.5,-1087.5 728.5,-1052.5 436.5,-1052.5"/>
<text text-anchor="start" x="443.2006" y="-1065.3" font-family="Arial Bold" font-size="18.00" fill="#000000">work_data_images</text>
<text text-anchor="start" x="594.2314" y="-1065.3" font-family="Arial" font-size="14.00" fill="#000000">    </text>
<text text-anchor="start" x="628.4362" y="-1065.3" font-family="Arial" font-size="14.00" fill="#666666">[BASE TABLE]</text>
<polygon fill="none" stroke="#000000" points="436.5,-1022.5 436.5,-1052.5 728.5,-1052.5 728.5,-1022.5 436.5,-1022.5"/>
<text text-anchor="start" x="443.5" y="-1033.9" font-family="Arial" font-size="14.00" fill="#000000">id    </text>
<text text-anchor="start" x="488.594" y="-1033.9" font-family="Arial" font-size="14.00" fill="#666666">[int unsigned]</text>
<polygon fill="none" stroke="#000000" points="436.5,-992.5 436.5,-1022.5 728.5,-1022.5 728.5,-992.5 436.5,-992.5"/>
<text text-anchor="start" x="443.5" y="-1003.9" font-family="Arial" font-size="14.00" fill="#000000">work_data_id    </text>
<text text-anchor="start" x="560.9474" y="-1003.9" font-family="Arial" font-size="14.00" fill="#666666">[int unsigned]</text>
<polygon fill="none" stroke="#000000" points="436.5,-962.5 436.5,-992.5 728.5,-992.5 728.5,-962.5 436.5,-962.5"/>
<text text-anchor="start" x="443.5" y="-973.9" font-family="Arial" font-size="14.00" fill="#000000">url    </text>
<text text-anchor="start" x="493.2546" y="-973.9" font-family="Arial" font-size="14.00" fill="#666666">[varchar(255)]</text>
<polygon fill="none" stroke="#000000" points="436.5,-932.5 436.5,-962.5 728.5,-962.5 728.5,-932.5 436.5,-932.5"/>
<text text-anchor="start" x="443.5" y="-943.9" font-family="Arial" font-size="14.00" fill="#000000">order    </text>
<text text-anchor="start" x="510.3738" y="-943.9" font-family="Arial" font-size="14.00" fill="#666666">[tinyint]</text>
<polygon fill="none" stroke="#000000" points="436.5,-902.5 436.5,-932.5 728.5,-932.5 728.5,-902.5 436.5,-902.5"/>
<text text-anchor="start" x="443.5" y="-913.9" font-family="Arial" font-size="14.00" fill="#000000">created_at    </text>
<text text-anchor="start" x="543.8422" y="-913.9" font-family="Arial" font-size="14.00" fill="#666666">[timestamp]</text>
<polygon fill="none" stroke="#000000" points="436.5,-872.5 436.5,-902.5 728.5,-902.5 728.5,-872.5 436.5,-872.5"/>
<text text-anchor="start" x="443.5" y="-883.9" font-family="Arial" font-size="14.00" fill="#000000">updated_at    </text>
<text text-anchor="start" x="547.7468" y="-883.9" font-family="Arial" font-size="14.00" fill="#666666">[timestamp]</text>
</g>
<!-- work_data_images&#45;&gt;work_data -->
<g id="edge2" class="edge">
<title>work_data_images:work_data_id&#45;&gt;work_data:id</title>
<path fill="none" stroke="#000000" d="M738.6923,-1006.8797C804.8098,-998.1756 744.4155,-899.728 780.5,-830 815.0338,-763.2685 810.3623,-697.5 885.5,-697.5"/>
<polygon fill="#000000" stroke="#000000" points="738.4815,-1006.8925 728.2266,-1003.0083 733.4908,-1007.1962 728.5,-1007.5 728.5,-1007.5 728.5,-1007.5 733.4908,-1007.1962 728.7734,-1011.9917 738.4815,-1006.8925 738.4815,-1006.8925"/>
<text text-anchor="start" x="735.27" y="-1017.5" font-family="Arial" font-size="10.00" fill="#000000">FOREIGN KEY (work_data_id) REFERENCES work_data (id)</text>
</g>
<!-- work_data_technologies -->
<g id="node4" class="node">
<title>work_data_technologies</title>
<polygon fill="#efefef" stroke="transparent" points="833.5,-1022.5 833.5,-1057.5 1168.5,-1057.5 1168.5,-1022.5 833.5,-1022.5"/>
<polygon fill="none" stroke="#000000" points="833.5,-1022.5 833.5,-1057.5 1168.5,-1057.5 1168.5,-1022.5 833.5,-1022.5"/>
<text text-anchor="start" x="840.1861" y="-1035.3" font-family="Arial Bold" font-size="18.00" fill="#000000">work_data_technologies</text>
<text text-anchor="start" x="1034.2459" y="-1035.3" font-family="Arial" font-size="14.00" fill="#000000">    </text>
<text text-anchor="start" x="1068.4507" y="-1035.3" font-family="Arial" font-size="14.00" fill="#666666">[BASE TABLE]</text>
<polygon fill="none" stroke="#000000" points="833.5,-992.5 833.5,-1022.5 1168.5,-1022.5 1168.5,-992.5 833.5,-992.5"/>
<text text-anchor="start" x="840.5" y="-1003.9" font-family="Arial" font-size="14.00" fill="#000000">work_data_id    </text>
<text text-anchor="start" x="957.9474" y="-1003.9" font-family="Arial" font-size="14.00" fill="#666666">[int unsigned]</text>
<polygon fill="none" stroke="#000000" points="833.5,-962.5 833.5,-992.5 1168.5,-992.5 1168.5,-962.5 833.5,-962.5"/>
<text text-anchor="start" x="840.5" y="-973.9" font-family="Arial" font-size="14.00" fill="#000000">technology_id    </text>
<text text-anchor="start" x="961.0694" y="-973.9" font-family="Arial" font-size="14.00" fill="#666666">[int unsigned]</text>
<polygon fill="none" stroke="#000000" points="833.5,-932.5 833.5,-962.5 1168.5,-962.5 1168.5,-932.5 833.5,-932.5"/>
<text text-anchor="start" x="840.5" y="-943.9" font-family="Arial" font-size="14.00" fill="#000000">created_at    </text>
<text text-anchor="start" x="940.8422" y="-943.9" font-family="Arial" font-size="14.00" fill="#666666">[timestamp]</text>
<polygon fill="none" stroke="#000000" points="833.5,-902.5 833.5,-932.5 1168.5,-932.5 1168.5,-902.5 833.5,-902.5"/>
<text text-anchor="start" x="840.5" y="-913.9" font-family="Arial" font-size="14.00" fill="#000000">updated_at    </text>
<text text-anchor="start" x="944.7468" y="-913.9" font-family="Arial" font-size="14.00" fill="#666666">[timestamp]</text>
</g>
<!-- work_data_technologies&#45;&gt;work_data -->
<g id="edge3" class="edge">
<title>work_data_technologies:work_data_id&#45;&gt;work_data:id</title>
<path fill="none" stroke="#000000" d="M823.4506,-1005.0047C769.1827,-975.6668 819.3322,-697.5 885.5,-697.5"/>
<polygon fill="#000000" stroke="#000000" points="823.7947,-1005.09 832.4155,-1011.8674 828.6474,-1006.295 833.5,-1007.5 833.5,-1007.5 833.5,-1007.5 828.6474,-1006.295 834.5845,-1003.1326 823.7947,-1005.09 823.7947,-1005.09"/>
<text text-anchor="start" x="840.27" y="-991.5" font-family="Arial" font-size="10.00" fill="#000000">FOREIGN KEY (work_data_id) REFERENCES work_data (id)</text>
</g>
<!-- work_data_tools -->
<g id="node5" class="node">
<title>work_data_tools</title>
<polygon fill="#efefef" stroke="transparent" points="1272.5,-1022.5 1272.5,-1057.5 1544.5,-1057.5 1544.5,-1022.5 1272.5,-1022.5"/>
<polygon fill="none" stroke="#000000" points="1272.5,-1022.5 1272.5,-1057.5 1544.5,-1057.5 1544.5,-1022.5 1272.5,-1022.5"/>
<text text-anchor="start" x="1279.1987" y="-1035.3" font-family="Arial Bold" font-size="18.00" fill="#000000">work_data_tools</text>
<text text-anchor="start" x="1410.2333" y="-1035.3" font-family="Arial" font-size="14.00" fill="#000000">    </text>
<text text-anchor="start" x="1444.4381" y="-1035.3" font-family="Arial" font-size="14.00" fill="#666666">[BASE TABLE]</text>
<polygon fill="none" stroke="#000000" points="1272.5,-992.5 1272.5,-1022.5 1544.5,-1022.5 1544.5,-992.5 1272.5,-992.5"/>
<text text-anchor="start" x="1279.5" y="-1003.9" font-family="Arial" font-size="14.00" fill="#000000">work_data_id    </text>
<text text-anchor="start" x="1396.9474" y="-1003.9" font-family="Arial" font-size="14.00" fill="#666666">[int unsigned]</text>
<polygon fill="none" stroke="#000000" points="1272.5,-962.5 1272.5,-992.5 1544.5,-992.5 1544.5,-962.5 1272.5,-962.5"/>
<text text-anchor="start" x="1279.5" y="-973.9" font-family="Arial" font-size="14.00" fill="#000000">tool_id    </text>
<text text-anchor="start" x="1354.939" y="-973.9" font-family="Arial" font-size="14.00" fill="#666666">[int unsigned]</text>
<polygon fill="none" stroke="#000000" points="1272.5,-932.5 1272.5,-962.5 1544.5,-962.5 1544.5,-932.5 1272.5,-932.5"/>
<text text-anchor="start" x="1279.5" y="-943.9" font-family="Arial" font-size="14.00" fill="#000000">created_at    </text>
<text text-anchor="start" x="1379.8422" y="-943.9" font-family="Arial" font-size="14.00" fill="#666666">[timestamp]</text>
<polygon fill="none" stroke="#000000" points="1272.5,-902.5 1272.5,-932.5 1544.5,-932.5 1544.5,-902.5 1272.5,-902.5"/>
<text text-anchor="start" x="1279.5" y="-913.9" font-family="Arial" font-size="14.00" fill="#000000">updated_at    </text>
<text text-anchor="start" x="1383.7468" y="-913.9" font-family="Arial" font-size="14.00" fill="#666666">[timestamp]</text>
</g>
<!-- work_data_tools&#45;&gt;work_data -->
<g id="edge4" class="edge">
<title>work_data_tools:work_data_id&#45;&gt;work_data:id</title>
<path fill="none" stroke="#000000" d="M1262.3067,-1006.8802C1196.1756,-998.1831 1256.4222,-899.8118 1220.5,-830 1186.2474,-763.4331 1191.3625,-697.5 1116.5,-697.5"/>
<polygon fill="#000000" stroke="#000000" points="1262.5184,-1006.893 1272.2269,-1011.9917 1267.5092,-1007.1965 1272.5,-1007.5 1272.5,-1007.5 1272.5,-1007.5 1267.5092,-1007.1965 1272.7731,-1003.0083 1262.5184,-1006.893 1262.5184,-1006.893"/>
<text text-anchor="start" x="1279.27" y="-1017.5" font-family="Arial" font-size="10.00" fill="#000000">FOREIGN KEY (work_data_id) REFERENCES work_data (id)</text>
</g>
<!-- work_data_users -->
<g id="node6" class="node">
<title>work_data_users</title>
<polygon fill="#efefef" stroke="transparent" points="1648.5,-1037.5 1648.5,-1072.5 1926.5,-1072.5 1926.5,-1037.5 1648.5,-1037.5"/>
<polygon fill="none" stroke="#000000" points="1648.5,-1037.5 1648.5,-1072.5 1926.5,-1072.5 1926.5,-1037.5 1648.5,-1037.5"/>
<text text-anchor="start" x="1655.2008" y="-1050.3" font-family="Arial Bold" font-size="18.00" fill="#000000">work_data_users</text>
<text text-anchor="start" x="1792.2312" y="-1050.3" font-family="Arial" font-size="14.00" fill="#000000">    </text>
<text text-anchor="start" x="1826.436" y="-1050.3" font-family="Arial" font-size="14.00" fill="#666666">[BASE TABLE]</text>
<polygon fill="none" stroke="#000000" points="1648.5,-1007.5 1648.5,-1037.5 1926.5,-1037.5 1926.5,-1007.5 1648.5,-1007.5"/>
<text text-anchor="start" x="1655.5" y="-1018.9" font-family="Arial" font-size="14.00" fill="#000000">work_data_id    </text>
<text text-anchor="start" x="1772.9474" y="-1018.9" font-family="Arial" font-size="14.00" fill="#666666">[int unsigned]</text>
<polygon fill="none" stroke="#000000" points="1648.5,-977.5 1648.5,-1007.5 1926.5,-1007.5 1926.5,-977.5 1648.5,-977.5"/>
<text text-anchor="start" x="1655.5" y="-988.9" font-family="Arial" font-size="14.00" fill="#000000">user_id    </text>
<text text-anchor="start" x="1735.6024" y="-988.9" font-family="Arial" font-size="14.00" fill="#666666">[int unsigned]</text>
<polygon fill="none" stroke="#000000" points="1648.5,-947.5 1648.5,-977.5 1926.5,-977.5 1926.5,-947.5 1648.5,-947.5"/>
<text text-anchor="start" x="1655.5" y="-958.9" font-family="Arial" font-size="14.00" fill="#000000">role_explanation    </text>
<text text-anchor="start" x="1792.4018" y="-958.9" font-family="Arial" font-size="14.00" fill="#666666">[varchar(50)]</text>
<polygon fill="none" stroke="#000000" points="1648.5,-917.5 1648.5,-947.5 1926.5,-947.5 1926.5,-917.5 1648.5,-917.5"/>
<text text-anchor="start" x="1655.5" y="-928.9" font-family="Arial" font-size="14.00" fill="#000000">created_at    </text>
<text text-anchor="start" x="1755.8422" y="-928.9" font-family="Arial" font-size="14.00" fill="#666666">[timestamp]</text>
<polygon fill="none" stroke="#000000" points="1648.5,-887.5 1648.5,-917.5 1926.5,-917.5 1926.5,-887.5 1648.5,-887.5"/>
<text text-anchor="start" x="1655.5" y="-898.9" font-family="Arial" font-size="14.00" fill="#000000">updated_at    </text>
<text text-anchor="start" x="1759.7468" y="-898.9" font-family="Arial" font-size="14.00" fill="#666666">[timestamp]</text>
</g>
<!-- work_data_users&#45;&gt;work_data -->
<g id="edge5" class="edge">
<title>work_data_users:work_data_id&#45;&gt;work_data:id</title>
<path fill="none" stroke="#000000" d="M1638.5187,-1021.8592C1567.7365,-1011.976 1656.4295,-890.2601 1596.5,-830 1518.4699,-751.5394 1227.156,-697.5 1116.5,-697.5"/>
<polygon fill="#000000" stroke="#000000" points="1638.5205,-1021.8592 1648.2116,-1026.9908 1643.5103,-1022.1796 1648.5,-1022.5 1648.5,-1022.5 1648.5,-1022.5 1643.5103,-1022.1796 1648.7884,-1018.0092 1638.5205,-1021.8592 1638.5205,-1021.8592"/>
<text text-anchor="start" x="1655.27" y="-1032.5" font-family="Arial" font-size="10.00" fill="#000000">FOREIGN KEY (work_data_id) REFERENCES work_data (id)</text>
</g>
</g>
</svg>
