<?xml version="1.0" encoding="UTF-8" standalone="no"?>
<!DOCTYPE svg PUBLIC "-//W3C//DTD SVG 1.1//EN"
 "http://www.w3.org/Graphics/SVG/1.1/DTD/svg11.dtd">
<!-- Generated by graphviz version 2.40.1 (20161225.0304)
 -->
<!-- Title: work_data_images Pages: 1 -->
<svg width="634pt" height="862pt"
 viewBox="0.00 0.00 634.00 862.00" xmlns="http://www.w3.org/2000/svg" xmlns:xlink="http://www.w3.org/1999/xlink">
<g id="graph0" class="graph" transform="scale(1 1) rotate(0) translate(4 858)">
<title>work_data_images</title>
<polygon fill="#ffffff" stroke="transparent" points="-4,4 -4,-858 630,-858 630,4 -4,4"/>
<!-- work_data_images -->
<g id="node1" class="node">
<title>work_data_images</title>
<polygon fill="#efefef" stroke="transparent" points="288,-772.5 288,-807.5 580,-807.5 580,-772.5 288,-772.5"/>
<polygon fill="none" stroke="#000000" points="288,-772.5 288,-807.5 580,-807.5 580,-772.5 288,-772.5"/>
<text text-anchor="start" x="294.7006" y="-785.3" font-family="Arial Bold" font-size="18.00" fill="#000000">work_data_images</text>
<text text-anchor="start" x="445.7314" y="-785.3" font-family="Arial" font-size="14.00" fill="#000000">    </text>
<text text-anchor="start" x="479.9362" y="-785.3" font-family="Arial" font-size="14.00" fill="#666666">[BASE TABLE]</text>
<polygon fill="none" stroke="#000000" points="288,-742.5 288,-772.5 580,-772.5 580,-742.5 288,-742.5"/>
<text text-anchor="start" x="295" y="-753.9" font-family="Arial" font-size="14.00" fill="#000000">id </text>
<text text-anchor="start" x="309.7798" y="-753.9" font-family="Arial" font-size="14.00" fill="#666666">[int unsigned]</text>
<polygon fill="none" stroke="#000000" points="288,-712.5 288,-742.5 580,-742.5 580,-712.5 288,-712.5"/>
<text text-anchor="start" x="295" y="-723.9" font-family="Arial" font-size="14.00" fill="#000000">work_data_id </text>
<text text-anchor="start" x="382.1332" y="-723.9" font-family="Arial" font-size="14.00" fill="#666666">[int unsigned]</text>
<polygon fill="none" stroke="#000000" points="288,-682.5 288,-712.5 580,-712.5 580,-682.5 288,-682.5"/>
<text text-anchor="start" x="295" y="-693.9" font-family="Arial" font-size="14.00" fill="#000000">url </text>
<text text-anchor="start" x="314.4404" y="-693.9" font-family="Arial" font-size="14.00" fill="#666666">[varchar(255)]</text>
<polygon fill="none" stroke="#000000" points="288,-652.5 288,-682.5 580,-682.5 580,-652.5 288,-652.5"/>
<text text-anchor="start" x="295" y="-663.9" font-family="Arial" font-size="14.00" fill="#000000">order </text>
<text text-anchor="start" x="331.5596" y="-663.9" font-family="Arial" font-size="14.00" fill="#666666">[tinyint]</text>
<polygon fill="none" stroke="#000000" points="288,-622.5 288,-652.5 580,-652.5 580,-622.5 288,-622.5"/>
<text text-anchor="start" x="295" y="-633.9" font-family="Arial" font-size="14.00" fill="#000000">created_at </text>
<text text-anchor="start" x="365.028" y="-633.9" font-family="Arial" font-size="14.00" fill="#666666">[timestamp]</text>
<polygon fill="none" stroke="#000000" points="288,-592.5 288,-622.5 580,-622.5 580,-592.5 288,-592.5"/>
<text text-anchor="start" x="295" y="-603.9" font-family="Arial" font-size="14.00" fill="#000000">updated_at </text>
<text text-anchor="start" x="368.9326" y="-603.9" font-family="Arial" font-size="14.00" fill="#666666">[timestamp]</text>
<polygon fill="none" stroke="#000000" stroke-width="3" points="286.5,-591.5 286.5,-809.5 581.5,-809.5 581.5,-591.5 286.5,-591.5"/>
</g>
<!-- work_data -->
<g id="node2" class="node">
<title>work_data</title>
<polygon fill="#efefef" stroke="transparent" points="303,-432.5 303,-467.5 564,-467.5 564,-432.5 303,-432.5"/>
<polygon fill="none" stroke="#000000" points="303,-432.5 303,-467.5 564,-467.5 564,-432.5 303,-432.5"/>
<text text-anchor="start" x="328.2062" y="-445.3" font-family="Arial Bold" font-size="18.00" fill="#000000">work_data</text>
<text text-anchor="start" x="411.2258" y="-445.3" font-family="Arial" font-size="14.00" fill="#000000">    </text>
<text text-anchor="start" x="445.4306" y="-445.3" font-family="Arial" font-size="14.00" fill="#666666">[BASE TABLE]</text>
<polygon fill="none" stroke="#000000" points="303,-402.5 303,-432.5 564,-432.5 564,-402.5 303,-402.5"/>
<text text-anchor="start" x="310" y="-413.9" font-family="Arial" font-size="14.00" fill="#000000">id    </text>
<text text-anchor="start" x="355.094" y="-413.9" font-family="Arial" font-size="14.00" fill="#666666">[int unsigned]</text>
<polygon fill="none" stroke="#000000" points="303,-372.5 303,-402.5 564,-402.5 564,-372.5 303,-372.5"/>
<text text-anchor="start" x="310" y="-383.9" font-family="Arial" font-size="14.00" fill="#000000">work_id    </text>
<text text-anchor="start" x="392.4264" y="-383.9" font-family="Arial" font-size="14.00" fill="#666666">[int unsigned]</text>
<polygon fill="none" stroke="#000000" points="303,-342.5 303,-372.5 564,-372.5 564,-342.5 303,-342.5"/>
<text text-anchor="start" x="310" y="-353.9" font-family="Arial" font-size="14.00" fill="#000000">name    </text>
<text text-anchor="start" x="379.2132" y="-353.9" font-family="Arial" font-size="14.00" fill="#666666">[varchar(100)]</text>
<polygon fill="none" stroke="#000000" points="303,-312.5 303,-342.5 564,-342.5 564,-312.5 303,-312.5"/>
<text text-anchor="start" x="310" y="-323.9" font-family="Arial" font-size="14.00" fill="#000000">catch_copy    </text>
<text text-anchor="start" x="415.0084" y="-323.9" font-family="Arial" font-size="14.00" fill="#666666">[varchar(100)]</text>
<polygon fill="none" stroke="#000000" points="303,-282.5 303,-312.5 564,-312.5 564,-282.5 303,-282.5"/>
<text text-anchor="start" x="310" y="-293.9" font-family="Arial" font-size="14.00" fill="#000000">description    </text>
<text text-anchor="start" x="411.8822" y="-293.9" font-family="Arial" font-size="14.00" fill="#666666">[varchar(500)]</text>
<polygon fill="none" stroke="#000000" points="303,-252.5 303,-282.5 564,-282.5 564,-252.5 303,-252.5"/>
<text text-anchor="start" x="310" y="-263.9" font-family="Arial" font-size="14.00" fill="#000000">work_url    </text>
<text text-anchor="start" x="397.087" y="-263.9" font-family="Arial" font-size="14.00" fill="#666666">[varchar(255)]</text>
<polygon fill="none" stroke="#000000" points="303,-222.5 303,-252.5 564,-252.5 564,-222.5 303,-222.5"/>
<text text-anchor="start" x="310" y="-233.9" font-family="Arial" font-size="14.00" fill="#000000">movie_url    </text>
<text text-anchor="start" x="404.8696" y="-233.9" font-family="Arial" font-size="14.00" fill="#666666">[varchar(255)]</text>
<polygon fill="none" stroke="#000000" points="303,-192.5 303,-222.5 564,-222.5 564,-192.5 303,-192.5"/>
<text text-anchor="start" x="309.8345" y="-203.9" font-family="Arial" font-size="14.00" fill="#000000">system_diagram_url    </text>
<text text-anchor="start" x="470.0463" y="-203.9" font-family="Arial" font-size="14.00" fill="#666666">[varchar(255)]</text>
<polygon fill="none" stroke="#000000" points="303,-162.5 303,-192.5 564,-192.5 564,-162.5 303,-162.5"/>
<text text-anchor="start" x="310" y="-173.9" font-family="Arial" font-size="14.00" fill="#000000">thumbnail_url    </text>
<text text-anchor="start" x="428.2146" y="-173.9" font-family="Arial" font-size="14.00" fill="#666666">[varchar(255)]</text>
<polygon fill="none" stroke="#000000" points="303,-132.5 303,-162.5 564,-162.5 564,-132.5 303,-132.5"/>
<text text-anchor="start" x="310" y="-143.9" font-family="Arial" font-size="14.00" fill="#000000">detail    </text>
<text text-anchor="start" x="377.6564" y="-143.9" font-family="Arial" font-size="14.00" fill="#666666">[text]</text>
<polygon fill="none" stroke="#000000" points="303,-102.5 303,-132.5 564,-132.5 564,-102.5 303,-102.5"/>
<text text-anchor="start" x="310" y="-113.9" font-family="Arial" font-size="14.00" fill="#000000">is_approved    </text>
<text text-anchor="start" x="420.4502" y="-113.9" font-family="Arial" font-size="14.00" fill="#666666">[tinyint(1)]</text>
<polygon fill="none" stroke="#000000" points="303,-72.5 303,-102.5 564,-102.5 564,-72.5 303,-72.5"/>
<text text-anchor="start" x="310" y="-83.9" font-family="Arial" font-size="14.00" fill="#000000">created_at    </text>
<text text-anchor="start" x="410.3422" y="-83.9" font-family="Arial" font-size="14.00" fill="#666666">[timestamp]</text>
<polygon fill="none" stroke="#000000" points="303,-42.5 303,-72.5 564,-72.5 564,-42.5 303,-42.5"/>
<text text-anchor="start" x="310" y="-53.9" font-family="Arial" font-size="14.00" fill="#000000">updated_at    </text>
<text text-anchor="start" x="414.2468" y="-53.9" font-family="Arial" font-size="14.00" fill="#666666">[timestamp]</text>
</g>
<!-- work_data_images&#45;&gt;work_data -->
<g id="edge1" class="edge">
<title>work_data_images:work_data_id&#45;&gt;work_data:id</title>
<path fill="none" stroke="#000000" d="M277.8323,-726.7885C210.2815,-716.8202 237.4474,-604.5746 288,-547 369.6205,-454.0419 482.3795,-603.9581 564,-511 591.4182,-479.7733 605.5556,-417.5 564,-417.5"/>
<polygon fill="#000000" stroke="#000000" points="278.0244,-726.8019 287.6859,-731.989 283.0122,-727.1509 288,-727.5 288,-727.5 288,-727.5 283.0122,-727.1509 288.3141,-723.011 278.0244,-726.8019 278.0244,-726.8019"/>
<text text-anchor="start" x="6.77" y="-737.5" font-family="Arial" font-size="10.00" fill="#000000">FOREIGN KEY (work_data_id) REFERENCES work_data (id)</text>
</g>
</g>
</svg>
